0
SECTION
2
HEADER
9
$INSUNITS
70
4
9
$ACADVER
1
AC1014
9
$HANDSEED
5
FFFF
0
ENDSEC
0
SECTION
2
TABLES
0
TABLE
2
VPORT
5
8
100
AcDbSymbolTable
0
ENDTAB
0
TABLE
2
LTYPE
5
5
100
AcDbSymbolTable
0
LTYPE
5
14
100
AcDbSymbolTableRecord
100
AcDbLinetypeTableRecord
2
BYBLOCK
70
0
0
LTYPE
5
15
100
AcDbSymbolTableRecord
100
AcDbLinetypeTableRecord
2
BYLAYER
70
0
0
LTYPE
5
16
100
AcDbSymbolTableRecord
100
AcDbLinetypeTableRecord
2
DASHED
70
0
3
Dashed __ __ __ __ __ __ __ __ __ __ __ __ __ _
72
65
73
2
40
0.75
49
0.5
74
0
49
-0.25
74
0
0
ENDTAB
0
TABLE
2
LAYER
5
2
100
AcDbSymbolTable
70
2
0
LAYER
5
50
100
AcDbSymbolTableRecord
100
AcDbLayerTableRecord
2
0
70
0
62
7
6
CONTINUOUS
0
ENDTAB
0
TABLE
2
STYLE
5
3
100
AcDbSymbolTable
70
1
0
STYLE
5
11
100
AcDbSymbolTableRecord
100
AcDbTextStyleTableRecord
2
STANDARD
70
0
0
ENDTAB
0
TABLE
2
VIEW
5
6
100
AcDbSymbolTable
70
0
0
ENDTAB
0
TABLE
2
UCS
5
7
100
AcDbSymbolTable
70
0
0
ENDTAB
0
TABLE
2
APPID
5
9
100
AcDbSymbolTable
70
2
0
APPID
5
12
100
AcDbSymbolTableRecord
100
AcDbRegAppTableRecord
2
ACAD
70
0
0
ENDTAB
0
TABLE
2
DIMSTYLE
5
A
100
AcDbSymbolTable
70
1
0
ENDTAB
0
TABLE
2
BLOCK_RECORD
5
1
100
AcDbSymbolTable
70
1
0
BLOCK_RECORD
5
1F
100
AcDbSymbolTableRecord
100
AcDbBlockTableRecord
2
*MODEL_SPACE
0
BLOCK_RECORD
5
1B
100
AcDbSymbolTableRecord
100
AcDbBlockTableRecord
2
*PAPER_SPACE
0
ENDTAB
0
ENDSEC
0
SECTION
2
BLOCKS
0
BLOCK
5
20
100
AcDbEntity
100
AcDbBlockBegin
2
*MODEL_SPACE
0
ENDBLK
5
21
100
AcDbEntity
100
AcDbBlockEnd
0
BLOCK
5
1C
100
AcDbEntity
100
AcDbBlockBegin
2
*PAPER_SPACE
0
ENDBLK
5
1D
100
AcDbEntity
100
AcDbBlockEnd
0
ENDSEC
0
SECTION
2
ENTITIES
0
LWPOLYLINE
5
100
100
AcDbEntity
8
0
100
AcDbPolyline
90
90
70
1
43
0.0
10
558.99999999999989
20
-429.9521915523996
10
548.37553482472811
20
-429.95887332591269
42
0.48563790824508168
10
545.94769690873522
20
-433.04875942479777
10
547.39315051143205
20
-439.00176756685482
42
-0.48583223003248344
10
544.96374033464531
20
-442.09165416013275
10
534.35161620352687
20
-442.09165416022699
42
-0.4719960020782541
10
531.89812024163507
20
-439.1116983644331
10
533.10705596876414
20
-432.93171480868841
42
0.43016658931964652
10
531.00000000000045
20
-429.9758795066615
10
521.99999999999989
20
-429.97587950649267
10
522
20
-457.99999999999949
42
-0.41421356237309087
10
511.99999999999994
20
-467.99999999999949
10
366.9999999999676
20
-467.99999999999949
10
366.9999999997878
20
-491.31223370619159
42
-0.43016658931963719
10
364.04416469776066
20
-493.41928967495517
10
357.76418114200311
20
-492.19079182898895
42
0.47199600207825054
10
354.78422534620898
20
-494.64428779088087
10
354.78422534632909
20
-505.27597404083747
42
0.48583223003253051
10
357.99770740332116
20
-507.80256062468243
10
363.92749769363172
20
-506.36274456299645
42
-0.48469782468398837
10
367.01736742553942
20
-508.78297287684006
10
367.10263822542294
20
-531.99999999999943
10
511.99999999999994
20
-531.99999999999943
42
-0.41421356237309293
10
522
20
-541.99999999999943
10
521.99999999999989
20
-703.9999999999992
42
-0.41421356237309709
10
511.99999999999994
20
-713.9999999999992
10
366.99999999995987
20
-713.9999999999992
10
366.9999999997878
20
-736.31223370619125
42
-0.43016658931964552
10
364.04416469776066
20
-738.41928967495494
10
357.76418114200311
20
-737.19079182898872
42
0.47199600207829889
10
354.7842253462091
20
-739.64428779088064
10
354.78422534632909
20
-750.27597404083724
42
0.48583223003252407
10
357.99770740332116
20
-752.80256062468197
10
363.92749769363161
20
-751.36274456299611
42
-0.48469782468399042
10
367.01736742553942
20
-753.78297287683972
10
367.10631099538745
20
-777.99999999999932
10
511.99999999999994
20
-777.99999999999932
42
-0.41421356237310125
10
522
20
-787.99999999999932
10
521.99999999999989
20
-949.99999999999909
42
-0.41421356237310125
10
511.99999999999994
20
-959.99999999999909
10
366.99999999987494
20
-959.99999999999898
10
366.9999999997878
20
-971.31223370619091
42
-0.43016658931964552
10
364.04416469776066
20
-973.4192896749546
10
357.76418114200311
20
-972.19079182898838
42
0.47199600207829889
10
354.7842253462091
20
-974.64428779088041
10
354.78422534632909
20
-985.2759740408369
42
0.48583223003252407
10
357.99770740332116
20
-987.80256062468175
10
363.92749769363155
20
-986.36274456299589
42
-0.48469782468399042
10
367.01736742553931
20
-988.78297287683949
10
367.05856498584859
20
-999.99999999999886
10
710.00326182815456
20
-999.99999999999886
10
710.00527595394306
20
-989.50277673161986
42
-0.43016658931961599
10
712.96151548709463
20
-987.39628794436214
10
719.2412632126285
20
-988.6259907221837
42
0.47199600207818226
10
722.22168971131805
20
-986.17306657622771
10
722.2237296365812
20
-975.54138052197357
42
0.48583223003248283
10
719.01073242055088
20
-973.01417740665829
10
713.08066597606899
20
-974.45285568036707
42
-0.48469781703565928
10
709.99126067616419
20
-972.03203461303531
10
709.94937812565638
20
-959.99999999999886
10
568.99999999999989
20
-959.99999999999909
42
-0.41421356237310125
10
558.99999999999989
20
-949.99999999999909
10
558.99999999999989
20
-787.99999999999932
42
-0.41421356237310336
10
568.99999999999989
20
-777.99999999999932
10
710.00076748897754
20
-777.99999999999932
10
710.00527595394306
20
-754.5027767316202
42
-0.43016658931961599
10
712.96151548709463
20
-752.39628794436248
10
719.2412632126285
20
-753.62599072218404
42
0.47199600207818226
10
722.22168971131805
20
-751.17306657622805
10
722.2237296365812
20
-740.54138052197391
42
0.48583223003248283
10
719.01073242055088
20
-738.01417740665852
10
713.08066597606899
20
-739.45285568036741
42
-0.48469781703566339
10
709.99126067616419
20
-737.03203461303565
10
709.91108800512393
20
-713.9999999999992
10
568.99999999999989
20
-713.9999999999992
42
-0.41421356237310336
10
558.99999999999989
20
-703.9999999999992
10
558.99999999999989
20
-541.99999999999932
42
-0.41421356237309087
10
568.99999999999989
20
-531.99999999999943
10
710.00076748897754
20
-531.99999999999943
10
710.00527595394306
20
-508.50277673162049
42
-0.43016658931963198
10
712.96151548709463
20
-506.3962879443626
10
719.2412632126285
20
-507.62599072218421
42
0.47199600207824743
10
722.22168971131828
20
-505.17306657622828
10
722.2237296365812
20
-494.54138052197408
42
0.48583223003248727
10
719.01073242055099
20
-492.01417740665875
10
713.08066597606899
20
-493.45285568036758
42
-0.48469781703565462
10
709.99126067616419
20
-491.03203461303588
10
709.91108800512393
20
-467.99999999999943
10
568.99999999999989
20
-467.99999999999943
42
-0.41421356237309293
10
558.99999999999989
20
-457.99999999999949
0
LWPOLYLINE
5
101
100
AcDbEntity
8
0
100
AcDbPolyline
90
4
70
1
43
0.0
10
624
20
-503.04999999999944
10
624
20
-496.94999999999942
10
674
20
-496.94999999999942
10
674
20
-503.04999999999944
0
LWPOLYLINE
5
102
100
AcDbEntity
8
0
100
AcDbPolyline
90
4
70
1
43
0.0
10
404
20
-503.04999999999944
10
404
20
-496.94999999999942
10
454
20
-496.94999999999942
10
454
20
-503.04999999999944
0
LWPOLYLINE
5
103
100
AcDbEntity
8
0
100
AcDbPolyline
90
4
70
1
43
0.0
10
624
20
-749.04999999999916
10
624
20
-742.94999999999914
10
674
20
-742.94999999999914
10
674
20
-749.04999999999916
0
LWPOLYLINE
5
104
100
AcDbEntity
8
0
100
AcDbPolyline
90
4
70
1
43
0.0
10
404
20
-749.04999999999916
10
404
20
-742.94999999999914
10
454
20
-742.94999999999914
10
454
20
-749.04999999999916
0
LWPOLYLINE
5
105
100
AcDbEntity
8
0
100
AcDbPolyline
90
4
70
1
43
0.0
10
537.44999999999993
20
-597.99999999999943
10
543.54999999999995
20
-597.99999999999943
10
543.54999999999995
20
-647.99999999999932
10
537.44999999999993
20
-647.99999999999932
0
LWPOLYLINE
5
106
100
AcDbEntity
8
0
100
AcDbPolyline
90
4
70
1
43
0.0
10
537.44999999999993
20
-843.99999999999909
10
543.54999999999995
20
-843.99999999999909
10
543.54999999999995
20
-893.99999999999909
10
537.44999999999993
20
-893.99999999999909
0
ENDSEC
0
SECTION
2
OBJECTS
0
DICTIONARY
5
C
100
AcDbDictionary
3
ACAD_GROUP
350
D
3
ACAD_MLINESTYLE
350
17
0
DICTIONARY
5
D
100
AcDbDictionary
0
DICTIONARY
5
1A
330
C
100
AcDbDictionary
0
DICTIONARY
5
17
100
AcDbDictionary
0
ENDSEC
0
EOF
