0
SECTION
2
HEADER
9
$INSUNITS
70
4
9
$ACADVER
1
AC1014
9
$HANDSEED
5
FFFF
0
ENDSEC
0
SECTION
2
TABLES
0
TABLE
2
VPORT
5
8
100
AcDbSymbolTable
0
ENDTAB
0
TABLE
2
LTYPE
5
5
100
AcDbSymbolTable
0
LTYPE
5
14
100
AcDbSymbolTableRecord
100
AcDbLinetypeTableRecord
2
BYBLOCK
70
0
0
LTYPE
5
15
100
AcDbSymbolTableRecord
100
AcDbLinetypeTableRecord
2
BYLAYER
70
0
0
LTYPE
5
16
100
AcDbSymbolTableRecord
100
AcDbLinetypeTableRecord
2
DASHED
70
0
3
Dashed __ __ __ __ __ __ __ __ __ __ __ __ __ _
72
65
73
2
40
0.75
49
0.5
74
0
49
-0.25
74
0
0
ENDTAB
0
TABLE
2
LAYER
5
2
100
AcDbSymbolTable
70
2
0
LAYER
5
50
100
AcDbSymbolTableRecord
100
AcDbLayerTableRecord
2
0
70
0
62
7
6
CONTINUOUS
0
ENDTAB
0
TABLE
2
STYLE
5
3
100
AcDbSymbolTable
70
1
0
STYLE
5
11
100
AcDbSymbolTableRecord
100
AcDbTextStyleTableRecord
2
STANDARD
70
0
0
ENDTAB
0
TABLE
2
VIEW
5
6
100
AcDbSymbolTable
70
0
0
ENDTAB
0
TABLE
2
UCS
5
7
100
AcDbSymbolTable
70
0
0
ENDTAB
0
TABLE
2
APPID
5
9
100
AcDbSymbolTable
70
2
0
APPID
5
12
100
AcDbSymbolTableRecord
100
AcDbRegAppTableRecord
2
ACAD
70
0
0
ENDTAB
0
TABLE
2
DIMSTYLE
5
A
100
AcDbSymbolTable
70
1
0
ENDTAB
0
TABLE
2
BLOCK_RECORD
5
1
100
AcDbSymbolTable
70
1
0
BLOCK_RECORD
5
1F
100
AcDbSymbolTableRecord
100
AcDbBlockTableRecord
2
*MODEL_SPACE
0
BLOCK_RECORD
5
1B
100
AcDbSymbolTableRecord
100
AcDbBlockTableRecord
2
*PAPER_SPACE
0
ENDTAB
0
ENDSEC
0
SECTION
2
BLOCKS
0
BLOCK
5
20
100
AcDbEntity
100
AcDbBlockBegin
2
*MODEL_SPACE
0
ENDBLK
5
21
100
AcDbEntity
100
AcDbBlockEnd
0
BLOCK
5
1C
100
AcDbEntity
100
AcDbBlockBegin
2
*PAPER_SPACE
0
ENDBLK
5
1D
100
AcDbEntity
100
AcDbBlockEnd
0
ENDSEC
0
SECTION
2
ENTITIES
0
LWPOLYLINE
5
100
100
AcDbEntity
8
0
100
AcDbPolyline
90
51
70
1
43
0.0
10
366.9999999997878
20
-736.31223370619125
10
366.99999999995987
20
-713.9999999999992
10
350
20
-713.9999999999992
42
-0.41421356237310336
10
340
20
-703.9999999999992
10
340
20
-564.97587950663944
10
329.85361873503706
20
-564.97587950644947
42
-0.4301665893196373
10
327.74656276627343
20
-562.02004420442233
10
328.95549849340256
20
-555.84006064867776
42
0.47199600207897202
10
326.50200253150456
20
-552.86010485288375
10
315.88987840039226
20
-552.86010485299084
42
0.48583223003248016
10
313.46046822361797
20
-555.94999144625297
10
314.9059218263024
20
-561.90299958831304
42
-0.48563790824507541
10
312.47808391030946
20
-564.99288568719817
10
303
20
-564.99884649642308
10
302.99999999999989
20
-703.9999999999992
42
-0.41421356237310125
10
293
20
-713.9999999999992
10
130.99999999999994
20
-713.9999999999992
42
-0.41421356237310181
10
120.99999999999994
20
-703.9999999999992
10
120.99999999999994
20
-564.97587722181584
10
108.68774973318835
20
-564.97587718913098
42
-0.43016460769586801
10
106.58071032504466
20
-562.02004420442222
10
107.78964605217382
20
-555.84006064867754
42
0.4719960020782748
10
105.33615009028196
20
-552.86010485288375
10
94.724025959163498
20
-552.86010485297788
42
0.48583223003248449
10
92.294615782376781
20
-555.94999144625592
10
93.740069385073767
20
-561.90299958831281
42
-0.48567863821735208
10
91.311901902339088
20
-564.99288587274123
10
76.999999999999886
20
-564.99999999999932
10
76.999999999999886
20
-999.99999999999886
10
367.05856498584859
20
-999.99999999999886
10
367.01698981355895
20
-988.68015892876929
42
0.48469782468393102
10
363.92712008165154
20
-986.25993061492534
10
357.97411193959141
20
-987.70538421761
42
-0.48583223003249193
10
354.88422534632917
20
-985.27597404083576
10
354.88422534622202
20
-974.66384990972347
42
-0.47199600207899944
10
357.86418114201609
20
-972.21035394782552
10
364.04416469776066
20
-973.4192896749546
42
0.43016658931967255
10
366.9999999997878
20
-971.31223370619091
10
366.99999999987494
20
-959.99999999999886
10
350
20
-959.99999999999909
42
-0.41421356237310336
10
340
20
-949.99999999999909
10
340
20
-787.99999999999932
42
-0.41421356237310336
10
350
20
-777.99999999999932
10
367.10631099538745
20
-777.99999999999932
10
367.01698981355895
20
-753.68015892876952
42
0.48469782468393102
10
363.92712008165154
20
-751.25993061492568
10
357.97411193959141
20
-752.70538421761034
42
-0.48583223003249193
10
354.88422534632917
20
-750.2759740408361
10
354.88422534622202
20
-739.66384990972369
42
-0.47199600207899944
10
357.86418114201609
20
-737.21035394782575
10
364.04416469776066
20
-738.41928967495494
42
0.43016658931967255
0
LWPOLYLINE
5
101
100
AcDbEntity
8
0
100
AcDbPolyline
90
4
70
1
43
0.0
10
318.44999999999999
20
-843.99999999999909
10
324.54999999999984
20
-843.99999999999909
10
324.54999999999984
20
-893.99999999999909
10
318.44999999999999
20
-893.99999999999909
0
LWPOLYLINE
5
102
100
AcDbEntity
8
0
100
AcDbPolyline
90
4
70
1
43
0.0
10
318.44999999999999
20
-597.99999999999943
10
324.54999999999984
20
-597.99999999999943
10
324.54999999999984
20
-647.99999999999932
10
318.44999999999999
20
-647.99999999999932
0
LWPOLYLINE
5
103
100
AcDbEntity
8
0
100
AcDbPolyline
90
4
70
1
43
0.0
10
184.00000000000006
20
-749.04999999999916
10
184.00000000000006
20
-742.94999999999914
10
234.00000000000006
20
-742.94999999999914
10
234.00000000000006
20
-749.04999999999916
0
LWPOLYLINE
5
104
100
AcDbEntity
8
0
100
AcDbPolyline
90
8
70
1
43
0.0
10
130.99999999999994
20
-777.99999999999932
10
293
20
-777.99999999999932
42
-0.41421356237310125
10
303
20
-787.99999999999932
10
302.99999999999989
20
-949.99999999999909
42
-0.41421356237310125
10
293
20
-959.99999999999909
10
130.99999999999994
20
-959.99999999999909
42
-0.41421356237310181
10
120.99999999999994
20
-949.99999999999909
10
121
20
-787.99999999999932
42
-0.41421356237310181
0
ENDSEC
0
SECTION
2
OBJECTS
0
DICTIONARY
5
C
100
AcDbDictionary
3
ACAD_GROUP
350
D
3
ACAD_MLINESTYLE
350
17
0
DICTIONARY
5
D
100
AcDbDictionary
0
DICTIONARY
5
1A
330
C
100
AcDbDictionary
0
DICTIONARY
5
17
100
AcDbDictionary
0
ENDSEC
0
EOF
