0
SECTION
2
HEADER
9
$INSUNITS
70
4
9
$ACADVER
1
AC1014
9
$HANDSEED
5
FFFF
0
ENDSEC
0
SECTION
2
TABLES
0
TABLE
2
VPORT
5
8
100
AcDbSymbolTable
0
ENDTAB
0
TABLE
2
LTYPE
5
5
100
AcDbSymbolTable
0
LTYPE
5
14
100
AcDbSymbolTableRecord
100
AcDbLinetypeTableRecord
2
BYBLOCK
70
0
0
LTYPE
5
15
100
AcDbSymbolTableRecord
100
AcDbLinetypeTableRecord
2
BYLAYER
70
0
0
LTYPE
5
16
100
AcDbSymbolTableRecord
100
AcDbLinetypeTableRecord
2
DASHED
70
0
3
Dashed __ __ __ __ __ __ __ __ __ __ __ __ __ _
72
65
73
2
40
0.75
49
0.5
74
0
49
-0.25
74
0
0
ENDTAB
0
TABLE
2
LAYER
5
2
100
AcDbSymbolTable
70
2
0
LAYER
5
50
100
AcDbSymbolTableRecord
100
AcDbLayerTableRecord
2
0
70
0
62
7
6
CONTINUOUS
0
ENDTAB
0
TABLE
2
STYLE
5
3
100
AcDbSymbolTable
70
1
0
STYLE
5
11
100
AcDbSymbolTableRecord
100
AcDbTextStyleTableRecord
2
STANDARD
70
0
0
ENDTAB
0
TABLE
2
VIEW
5
6
100
AcDbSymbolTable
70
0
0
ENDTAB
0
TABLE
2
UCS
5
7
100
AcDbSymbolTable
70
0
0
ENDTAB
0
TABLE
2
APPID
5
9
100
AcDbSymbolTable
70
2
0
APPID
5
12
100
AcDbSymbolTableRecord
100
AcDbRegAppTableRecord
2
ACAD
70
0
0
ENDTAB
0
TABLE
2
DIMSTYLE
5
A
100
AcDbSymbolTable
70
1
0
ENDTAB
0
TABLE
2
BLOCK_RECORD
5
1
100
AcDbSymbolTable
70
1
0
BLOCK_RECORD
5
1F
100
AcDbSymbolTableRecord
100
AcDbBlockTableRecord
2
*MODEL_SPACE
0
BLOCK_RECORD
5
1B
100
AcDbSymbolTableRecord
100
AcDbBlockTableRecord
2
*PAPER_SPACE
0
ENDTAB
0
ENDSEC
0
SECTION
2
BLOCKS
0
BLOCK
5
20
100
AcDbEntity
100
AcDbBlockBegin
2
*MODEL_SPACE
0
ENDBLK
5
21
100
AcDbEntity
100
AcDbBlockEnd
0
BLOCK
5
1C
100
AcDbEntity
100
AcDbBlockBegin
2
*PAPER_SPACE
0
ENDBLK
5
1D
100
AcDbEntity
100
AcDbBlockEnd
0
ENDSEC
0
SECTION
2
ENTITIES
0
LWPOLYLINE
5
100
100
AcDbEntity
8
0
100
AcDbPolyline
90
6
70
1
43
0.0
10
865.12414653599262
20
-428.81991863250732
10
865.12414653599262
20
-430
10
858.8758512288332
20
-430
10
858.8758512288332
20
-420
10
860.19917924702168
20
-420
10
860.19917924702168
20
-428.81991863250732
0
LWPOLYLINE
5
101
100
AcDbEntity
8
0
100
AcDbPolyline
90
23
70
1
43
0.0
10
769.61108438428482
20
-427.33973330288785
42
0.42924350898888269
10
776.44270966747195
20
-433.83126815002157
10
818.16837471681265
20
-431.69967896287062
42
-0.42924350898886598
10
825.00000000000011
20
-438.19121381000446
10
825
20
-450
10
949.79289321881356
20
-450
42
0.19891236737965803
10
950.14644660940667
20
-449.85355339059322
10
974.85355339059322
20
-425.14644660940678
42
0.19891236737968412
10
975
20
-424.79289321881345
10
975
20
-400
10
894.49999999999989
20
-400
42
-0.41421356237309503
10
893.99999999999989
20
-399.5
10
893.99999999999989
20
-388.5
42
0.41421356237309503
10
893.5
20
-388.00000000000006
10
844.49999999999989
20
-388
42
0.41421356237309503
10
843.99999999999989
20
-388.5
10
843.99999999999989
20
-399.5
42
-0.41421356237309503
10
843.5
20
-400
10
825
20
-400
10
825
20
-410.56857097068792
42
-0.42924350898886976
10
818.16837471681288
20
-417.06010581782141
10
776.44270966747217
20
-414.92851663066972
42
0.42924350898884323
10
769.61108438428482
20
-421.42005147780304
0
LWPOLYLINE
5
102
100
AcDbEntity
8
0
100
AcDbPolyline
90
6
70
1
43
0.0
10
865.12414653599262
20
-428.81991863250732
10
865.12414653599262
20
-430
10
858.8758512288332
20
-430
10
858.8758512288332
20
-420
10
860.19917924702168
20
-420
10
860.19917924702168
20
-428.81991863250732
0
LWPOLYLINE
5
103
100
AcDbEntity
8
0
100
AcDbPolyline
90
23
70
1
43
0.0
10
949.79289321881356
20
-450
42
0.19891236737963189
10
950.14644660940678
20
-449.85355339059333
10
974.85355339059322
20
-425.14644660940678
42
0.19891236737968412
10
975
20
-424.79289321881345
10
975
20
-400
10
894.49999999999989
20
-400
42
-0.41421356237309503
10
893.99999999999989
20
-399.5
10
893.99999999999989
20
-388.5
42
0.41421356237309503
10
893.5
20
-388.00000000000006
10
844.49999999999989
20
-388
42
0.41421356237309503
10
843.99999999999989
20
-388.5
10
843.99999999999989
20
-399.5
42
-0.41421356237309503
10
843.5
20
-400
10
825
20
-400
10
825
20
-410.56857097068792
42
-0.42924350898886976
10
818.16837471681288
20
-417.06010581782141
10
776.44270966747217
20
-414.92851663066972
42
0.42924350898885988
10
769.61108438428482
20
-421.42005147780304
10
769.61108438428482
20
-427.33973330288785
42
0.42924350898886621
10
776.44270966747183
20
-433.83126815002163
10
818.16837471681288
20
-431.69967896287068
42
-0.42924350898886598
10
825.00000000000011
20
-438.19121381000446
10
825
20
-450
0
ENDSEC
0
SECTION
2
OBJECTS
0
DICTIONARY
5
C
100
AcDbDictionary
3
ACAD_GROUP
350
D
3
ACAD_MLINESTYLE
350
17
0
DICTIONARY
5
D
100
AcDbDictionary
0
DICTIONARY
5
1A
330
C
100
AcDbDictionary
0
DICTIONARY
5
17
100
AcDbDictionary
0
ENDSEC
0
EOF
