0
SECTION
2
HEADER
9
$INSUNITS
70
4
9
$ACADVER
1
AC1014
9
$HANDSEED
5
FFFF
0
ENDSEC
0
SECTION
2
TABLES
0
TABLE
2
VPORT
5
8
100
AcDbSymbolTable
0
ENDTAB
0
TABLE
2
LTYPE
5
5
100
AcDbSymbolTable
0
LTYPE
5
14
100
AcDbSymbolTableRecord
100
AcDbLinetypeTableRecord
2
BYBLOCK
70
0
0
LTYPE
5
15
100
AcDbSymbolTableRecord
100
AcDbLinetypeTableRecord
2
BYLAYER
70
0
0
LTYPE
5
16
100
AcDbSymbolTableRecord
100
AcDbLinetypeTableRecord
2
DASHED
70
0
3
Dashed __ __ __ __ __ __ __ __ __ __ __ __ __ _
72
65
73
2
40
0.75
49
0.5
74
0
49
-0.25
74
0
0
ENDTAB
0
TABLE
2
LAYER
5
2
100
AcDbSymbolTable
70
2
0
LAYER
5
50
100
AcDbSymbolTableRecord
100
AcDbLayerTableRecord
2
0
70
0
62
7
6
CONTINUOUS
0
ENDTAB
0
TABLE
2
STYLE
5
3
100
AcDbSymbolTable
70
1
0
STYLE
5
11
100
AcDbSymbolTableRecord
100
AcDbTextStyleTableRecord
2
STANDARD
70
0
0
ENDTAB
0
TABLE
2
VIEW
5
6
100
AcDbSymbolTable
70
0
0
ENDTAB
0
TABLE
2
UCS
5
7
100
AcDbSymbolTable
70
0
0
ENDTAB
0
TABLE
2
APPID
5
9
100
AcDbSymbolTable
70
2
0
APPID
5
12
100
AcDbSymbolTableRecord
100
AcDbRegAppTableRecord
2
ACAD
70
0
0
ENDTAB
0
TABLE
2
DIMSTYLE
5
A
100
AcDbSymbolTable
70
1
0
ENDTAB
0
TABLE
2
BLOCK_RECORD
5
1
100
AcDbSymbolTable
70
1
0
BLOCK_RECORD
5
1F
100
AcDbSymbolTableRecord
100
AcDbBlockTableRecord
2
*MODEL_SPACE
0
BLOCK_RECORD
5
1B
100
AcDbSymbolTableRecord
100
AcDbBlockTableRecord
2
*PAPER_SPACE
0
ENDTAB
0
ENDSEC
0
SECTION
2
BLOCKS
0
BLOCK
5
20
100
AcDbEntity
100
AcDbBlockBegin
2
*MODEL_SPACE
0
ENDBLK
5
21
100
AcDbEntity
100
AcDbBlockEnd
0
BLOCK
5
1C
100
AcDbEntity
100
AcDbBlockBegin
2
*PAPER_SPACE
0
ENDBLK
5
1D
100
AcDbEntity
100
AcDbBlockEnd
0
ENDSEC
0
SECTION
2
ENTITIES
0
SPLINE
5
100
100
AcDbEntity
8
0
100
AcDbSpline
70
0
71
3
72
9
73
5
74
0
42
0.000000001
43
0.0000000001
44
0.0000000001
40
0
40
0
40
0
40
0
40
0.09567913720663572
40
0.18885764670245608
40
0.18885764670245608
40
0.18885764670245608
40
0.18885764670245608
10
1848.0081870406866
20
-429.77489829063416
30
0
10
1847.7200385252954
20
-429.62818817497492
30
0
10
1847.1512724169631
20
-429.33860229450215
30
0
10
1846.7613009559927
20
-428.83369496978474
30
0
10
1846.5688969939947
20
-428.58458399772644
30
0
0
SPLINE
5
101
100
AcDbEntity
8
0
100
AcDbSpline
70
0
71
3
72
9
73
5
74
0
42
0.000000001
43
0.0000000001
44
0.0000000001
40
0
40
0
40
0
40
0
40
0.093565114453726575
40
0.18982723371579957
40
0.18982723371579957
40
0.18982723371579957
40
0.18982723371579957
10
1846.5688969939947
20
-428.58458399772644
30
0
10
1846.4155056716386
20
-428.30871108433087
30
0
10
1846.1043015378229
20
-427.74901324916272
30
0
10
1846.0482215969384
20
-427.11081096271857
30
0
10
1846.0197832435369
20
-426.78717613220215
30
0
0
LINE
5
102
100
AcDbEntity
8
0
100
AcDbLine
10
1846.0197832435369
20
-426.78717613220221
30
0
11
1847.2680785506964
21
-426.67803585529327
31
0
0
SPLINE
5
103
100
AcDbEntity
8
0
100
AcDbSpline
70
0
71
3
72
9
73
5
74
0
42
0.000000001
43
0.0000000001
44
0.0000000001
40
0
40
0
40
0
40
0
40
0.069872952899511273
40
0.13077514728411185
40
0.13077514728411185
40
0.13077514728411185
40
0.13077514728411185
10
1847.2680785506964
20
-426.67803585529327
30
0
10
1847.3032919465832
20
-426.9105018614178
30
0
10
1847.3691978063234
20
-427.34558832803953
30
0
10
1847.5817694628154
20
-427.73017503537346
30
0
10
1847.6807644218206
20
-427.90927767753601
30
0
0
SPLINE
5
104
100
AcDbEntity
8
0
100
AcDbSpline
70
0
71
3
72
9
73
5
74
0
42
0.000000001
43
0.0000000001
44
0.0000000001
40
0
40
0
40
0
40
0
40
0.060009577969819518
40
0.12846885887691437
40
0.12846885887691437
40
0.12846885887691437
40
0.12846885887691437
10
1847.6807644218206
20
-427.90927767753601
30
0
10
1847.8103648484494
20
-428.06469267577114
30
0
10
1848.0878142070724
20
-428.39740602172515
30
0
10
1848.4786396493478
20
-428.58626393893536
30
0
10
1848.686905130744
20
-428.68690371513367
30
0
0
SPLINE
5
105
100
AcDbEntity
8
0
100
AcDbSpline
70
0
71
3
72
9
73
5
74
0
42
0.000000001
43
0.0000000001
44
0.0000000001
40
0
40
0
40
0
40
0
40
0.075815882984513541
40
0.15715756003486434
40
0.15715756003486434
40
0.15715756003486434
40
0.15715756003486434
10
1848.686905130744
20
-428.68690371513367
30
0
10
1848.9260610617225
20
-428.77341883989448
30
0
10
1849.4218036568216
20
-428.95275469114722
30
0
10
1849.9488861548368
20
-428.97309895636579
30
0
10
1850.221693739295
20
-428.98362874984741
30
0
0
SPLINE
5
106
100
AcDbEntity
8
0
100
AcDbSpline
70
0
71
3
72
9
73
5
74
0
42
0.000000001
43
0.0000000001
44
0.0000000001
40
0
40
0
40
0
40
0
40
0.07150417866684948
40
0.13616183246878427
40
0.13616183246878427
40
0.13616183246878427
40
0.13616183246878427
10
1850.221693739295
20
-428.98362874984741
30
0
10
1850.461278611137
20
-428.97628591789947
30
0
10
1850.9175081041542
20
-428.96230333013762
30
0
10
1851.3522317090974
20
-428.82413669338075
30
0
10
1851.5586640685797
20
-428.75852704048157
30
0
0
SPLINE
5
107
100
AcDbEntity
8
0
100
AcDbSpline
70
0
71
3
72
9
73
5
74
0
42
0.000000001
43
0.0000000001
44
0.0000000001
40
0
40
0
40
0
40
0
40
0.05717403271736337
40
0.10721891272293368
40
0.10721891272293368
40
0.10721891272293368
40
0.10721891272293368
10
1851.5586640685797
20
-428.75852704048157
30
0
10
1851.7358694010204
20
-428.68142905200381
30
0
10
1852.0681839530994
20
-428.53684658851762
30
0
10
1852.3091065076935
20
-428.26710402319782
30
0
10
1852.4215581268072
20
-428.14120054244995
30
0
0
SPLINE
5
108
100
AcDbEntity
8
0
100
AcDbSpline
70
0
71
3
72
9
73
5
74
0
42
0.000000001
43
0.0000000001
44
0.0000000001
40
0
40
0
40
0
40
0
40
0.046182457238536652
40
0.091334683164094571
40
0.091334683164094571
40
0.091334683164094571
40
0.091334683164094571
10
1852.4215581268072
20
-428.14120054244995
30
0
10
1852.5041208381194
20
-428.00836647912865
30
0
10
1852.6674044641925
20
-427.74566159480037
30
0
10
1852.6923216132579
20
-427.43748181850782
30
0
10
1852.7046396583319
20
-427.2851300239563
30
0
0
SPLINE
5
109
100
AcDbEntity
8
0
100
AcDbSpline
70
0
71
3
72
9
73
5
74
0
42
0.000000001
43
0.0000000001
44
0.0000000001
40
0
40
0
40
0
40
0
40
0.044607140050406315
40
0.087867356135271552
40
0.087867356135271552
40
0.087867356135271552
40
0.087867356135271552
10
1852.7046396583319
20
-427.2851300239563
30
0
10
1852.693984838997
20
-427.13414229980316
30
0
10
1852.6729969253129
20
-426.83672596431916
30
0
10
1852.5113655347056
20
-426.58640645599598
30
0
10
1852.4317886680365
20
-426.46316528320312
30
0
0
SPLINE
5
110
100
AcDbEntity
8
0
100
AcDbSpline
70
0
71
3
72
9
73
5
74
0
42
0.000000001
43
0.0000000001
44
0.0000000001
40
0
40
0
40
0
40
0
40
0.048490558758718043
40
0.10862534723607364
40
0.10862534723607364
40
0.10862534723607364
40
0.10862534723607364
10
1852.4317886680365
20
-426.46316528320312
30
0
10
1852.316710869602
20
-426.34741451476873
30
0
10
1852.0589211857111
20
-426.08811728792932
30
0
10
1851.7193599239633
20
-425.94973356750972
30
0
10
1851.5313794463873
20
-425.87312459945679
30
0
0
SPLINE
5
111
100
AcDbEntity
8
0
100
AcDbSpline
70
0
71
3
72
9
73
5
74
0
42
0.000000001
43
0.0000000001
44
0.0000000001
40
0
40
0
40
0
40
0
40
0.067666530828069463
40
0.1846541363534232
40
0.1846541363534232
40
0.1846541363534232
40
0.1846541363534232
10
1851.5313794463873
20
-425.87312459945679
30
0
10
1851.3165279423799
20
-425.80424576851442
30
0
10
1850.7302230375592
20
-425.61628340536316
30
0
10
1850.1307931816837
20
-425.47494681599602
30
0
10
1849.7510244697332
20
-425.38540303707123
30
0
0
SPLINE
5
112
100
AcDbEntity
8
0
100
AcDbSpline
70
0
71
3
72
9
73
5
74
0
42
0.000000001
43
0.0000000001
44
0.0000000001
40
0
40
0
40
0
40
0
40
0.12148557539624946
40
0.20318645960182091
40
0.20318645960182091
40
0.20318645960182091
40
0.20318645960182091
10
1849.7510244697332
20
-425.38540303707123
30
0
10
1849.3562056831072
20
-425.29107097661318
30
0
10
1848.6958652996732
20
-425.13329918083502
30
0
10
1848.0716125254571
20
-424.86795126825746
30
0
10
1847.8206016868353
20
-424.76125538349152
30
0
0
SPLINE
5
113
100
AcDbEntity
8
0
100
AcDbSpline
70
0
71
3
72
9
73
5
74
0
42
0.000000001
43
0.0000000001
44
0.0000000001
40
0
40
0
40
0
40
0
40
0.07532124580636064
40
0.14290027068337222
40
0.14290027068337222
40
0.14290027068337222
40
0.14290027068337222
10
1847.8206016868353
20
-424.76125538349152
30
0
10
1847.6006925770957
20
-424.6342149680014
30
0
10
1847.1834786692389
20
-424.39319253711994
30
0
10
1846.8912625983821
20
-424.01092748596915
30
0
10
1846.7530705779791
20
-423.83015036582947
30
0
0
SPLINE
5
114
100
AcDbEntity
8
0
100
AcDbSpline
70
0
71
3
72
9
73
5
74
0
42
0.000000001
43
0.0000000001
44
0.0000000001
40
0
40
0
40
0
40
0
40
0.064541473692177623
40
0.13069659508606041
40
0.13069659508606041
40
0.13069659508606041
40
0.13069659508606041
10
1846.7530705779791
20
-423.83015036582947
30
0
10
1846.6506138069772
20
-423.63791176478395
30
0
10
1846.443138669714
20
-423.24862826746886
30
0
10
1846.4156759839332
20
-422.80819949787838
30
0
10
1846.4017751067877
20
-422.58526623249054
30
0
0
SPLINE
5
115
100
AcDbEntity
8
0
100
AcDbSpline
70
0
71
3
72
9
73
5
74
0
42
0.000000001
43
0.0000000001
44
0.0000000001
40
0
40
0
40
0
40
0
40
0.074027261497114472
40
0.14954830407837755
40
0.14954830407837755
40
0.14954830407837755
40
0.14954830407837755
10
1846.4017751067877
20
-422.58526623249054
30
0
10
1846.4203863353255
20
-422.33592672012117
30
0
10
1846.457984344604
20
-421.83221632397164
30
0
10
1846.7061784486414
20
-421.39210429863294
30
0
10
1846.8315150588751
20
-421.16985023021698
30
0
0
SPLINE
5
116
100
AcDbEntity
8
0
100
AcDbSpline
70
0
71
3
72
9
73
5
74
0
42
0.000000001
43
0.0000000001
44
0.0000000001
40
0
40
0
40
0
40
0
40
0.078400330466529666
40
0.16233227409105988
40
0.16233227409105988
40
0.16233227409105988
40
0.16233227409105988
10
1846.8315150588751
20
-421.16985023021698
30
0
10
1846.9956628023417
20
-420.9618690359805
30
0
10
1847.335539896294
20
-420.53123232784833
30
0
10
1847.8306439463863
20
-420.29346644555034
30
0
10
1848.0866315215826
20
-420.17053246498108
30
0
0
SPLINE
5
117
100
AcDbEntity
8
0
100
AcDbSpline
70
0
71
3
72
9
73
5
74
0
42
0.000000001
43
0.0000000001
44
0.0000000001
40
0
40
0
40
0
40
0
40
0.090818784944099909
40
0.18754576378100785
40
0.18754576378100785
40
0.18754576378100785
40
0.18754576378100785
10
1848.0866315215826
20
-420.17053246498108
30
0
10
1848.3744226940757
20
-420.07108288649727
30
0
10
1848.9687272235617
20
-419.86571406146913
30
0
10
1849.5973451864156
20
-419.84180160734871
30
0
10
1849.9215557426214
20
-419.82946872711182
30
0
0
SPLINE
5
118
100
AcDbEntity
8
0
100
AcDbSpline
70
0
71
3
72
9
73
5
74
0
42
0.000000001
43
0.0000000001
44
0.0000000001
40
0
40
0
40
0
40
0
40
0.10500378186878999
40
0.20035528100050359
40
0.20035528100050359
40
0.20035528100050359
40
0.20035528100050359
10
1849.9215557426214
20
-419.82946872711182
30
0
10
1850.273673674908
20
-419.84129646174864
30
0
10
1850.9455417354004
20
-419.86386468790755
30
0
10
1851.5804936359496
20
-420.08320110076517
30
0
10
1851.8826749175787
20
-420.18758594989777
30
0
0
SPLINE
5
119
100
AcDbEntity
8
0
100
AcDbSpline
70
0
71
3
72
9
73
5
74
0
42
0.000000001
43
0.0000000001
44
0.0000000001
40
0
40
0
40
0
40
0
40
0.087185269028673421
40
0.16976090395322879
40
0.16976090395322879
40
0.16976090395322879
40
0.16976090395322879
10
1851.8826749175787
20
-420.18758594989777
30
0
10
1852.147207485026
20
-420.31772394732002
30
0
10
1852.6622863312032
20
-420.57111932393803
30
0
10
1853.0166032732675
20
-421.0221045122953
30
0
10
1853.1889512389898
20
-421.24147415161133
30
0
0
SPLINE
5
120
100
AcDbEntity
8
0
100
AcDbSpline
70
0
71
3
72
9
73
5
74
0
42
0.000000001
43
0.0000000001
44
0.0000000001
40
0
40
0
40
0
40
0
40
0.082079051829504035
40
0.16663356743680191
40
0.16663356743680191
40
0.16663356743680191
40
0.16663356743680191
10
1853.1889512389898
20
-421.24147415161133
30
0
10
1853.3237455604174
20
-421.48318991932024
30
0
10
1853.5973995336187
20
-421.97391148324277
30
0
10
1853.6522508757068
20
-422.53332717735987
30
0
10
1853.6800839751959
20
-422.81719028949738
30
0
0
LINE
5
121
100
AcDbEntity
8
0
100
AcDbLine
10
1853.6800839751957
20
-422.81719028949738
30
0
11
1852.4113252013922
21
-422.91268825531006
31
0
0
SPLINE
5
122
100
AcDbEntity
8
0
100
AcDbSpline
70
0
71
3
72
9
73
5
74
0
42
0.000000001
43
0.0000000001
44
0.0000000001
40
0
40
0
40
0
40
0
40
0.086188093623474377
40
0.16231007693751154
40
0.16231007693751154
40
0.16231007693751154
40
0.16231007693751154
10
1852.4113252013922
20
-422.91268825531006
30
0
10
1852.3636358989024
20
-422.62178893548344
30
0
10
1852.2738270398033
20
-422.07396511206309
30
0
10
1851.8961104999285
20
-421.66977863367958
30
0
10
1851.7189648002386
20
-421.48021876811981
30
0
0
SPLINE
5
123
100
AcDbEntity
8
0
100
AcDbSpline
70
0
71
3
72
9
73
5
74
0
42
0.000000001
43
0.0000000001
44
0.0000000001
40
0
40
0
40
0
40
0
40
0.081602911459913982
40
0.18353539146523506
40
0.18353539146523506
40
0.18353539146523506
40
0.18353539146523506
10
1851.7189648002386
20
-421.48021876811981
30
0
10
1851.4812812943278
20
-421.33940712489778
30
0
10
1850.9467006706498
20
-421.02270371812881
30
0
10
1850.3226915674745
20
-421.00547585173211
30
0
10
1849.976127371192
20
-420.9959077835083
30
0
0
SPLINE
5
124
100
AcDbEntity
8
0
100
AcDbSpline
70
0
71
3
72
9
73
5
74
0
42
0.000000001
43
0.0000000001
44
0.0000000001
40
0
40
0
40
0
40
0
40
0.10435015206107964
40
0.18282233340958165
40
0.18282233340958165
40
0.18282233340958165
40
0.18282233340958165
10
1849.976127371192
20
-420.9959077835083
30
0
10
1849.6215812452251
20
-421.0012933552922
30
0
10
1849.0004134867668
20
-421.01072892180389
30
0
10
1848.4589004888917
20
-421.30819874464692
30
0
10
1848.2264687865973
20
-421.43588066101074
30
0
0
SPLINE
5
125
100
AcDbEntity
8
0
100
AcDbSpline
70
0
71
3
72
9
73
5
74
0
42
0.000000001
43
0.0000000001
44
0.0000000001
40
0
40
0
40
0
40
0
40
0.063639080408478405
40
0.12280816919646717
40
0.12280816919646717
40
0.12280816919646717
40
0.12280816919646717
10
1848.2264687865973
20
-421.43588066101074
30
0
10
1848.0663726060807
20
-421.58604049674545
30
0
10
1847.7574253570253
20
-421.87581298237939
30
0
10
1847.70338954165
20
-422.29474715086621
30
0
10
1847.6773550361395
20
-422.4965900182724
30
0
0
SPLINE
5
126
100
AcDbEntity
8
0
100
AcDbSpline
70
0
71
3
72
9
73
5
74
0
42
0.000000001
43
0.0000000001
44
0.0000000001
40
0
40
0
40
0
40
0
40
0.050065881778110319
40
0.099214905616750004
40
0.099214905616750004
40
0.099214905616750004
40
0.099214905616750004
10
1847.6773550361395
20
-422.4965900182724
30
0
10
1847.6929483548111
20
-422.66771171947107
30
0
10
1847.7238494312585
20
-423.00682136521033
30
0
10
1847.9527669994568
20
-423.25862031260851
30
0
10
1848.0661680549383
20
-423.38335633277893
30
0
0
SPLINE
5
127
100
AcDbEntity
8
0
100
AcDbSpline
70
0
71
3
72
9
73
5
74
0
42
0.000000001
43
0.0000000001
44
0.0000000001
40
0
40
0
40
0
40
0
40
0.077449077366773186
40
0.21288227105907376
40
0.21288227105907376
40
0.21288227105907376
40
0.21288227105907376
10
1848.0661680549383
20
-423.38335633277893
30
0
10
1848.2926629185079
20
-423.50958559014475
30
0
10
1848.9152234780292
20
-423.85654867732092
30
0
10
1849.615735505698
20
-424.00300586355144
30
0
10
1850.0613930076361
20
-424.09618020057678
30
0
0
SPLINE
5
128
100
AcDbEntity
8
0
100
AcDbSpline
70
0
71
3
72
9
73
5
74
0
42
0.000000001
43
0.0000000001
44
0.0000000001
40
0
40
0
40
0
40
0
40
0.14023167342345871
40
0.23056571307500801
40
0.23056571307500801
40
0.23056571307500801
40
0.23056571307500801
10
1850.0613930076361
20
-424.09618020057678
30
0
10
1850.5182753161307
20
-424.1982534601263
30
0
10
1851.2694707677554
20
-424.36607998104967
30
0
10
1851.9918690811828
20
-424.6304082079597
30
0
10
1852.2748997062445
20
-424.73397016525269
30
0
0
SPLINE
5
129
100
AcDbEntity
8
0
100
AcDbSpline
70
0
71
3
72
9
73
5
74
0
42
0.000000001
43
0.0000000001
44
0.0000000001
40
0
40
0
40
0
40
0
40
0.088542525121966059
40
0.16593294042023432
40
0.16593294042023432
40
0.16593294042023432
40
0.16593294042023432
10
1852.2748997062445
20
-424.73397016525269
30
0
10
1852.5413824311581
20
-424.86925069360444
30
0
10
1853.0407838437027
20
-425.12277289460434
30
0
10
1853.3976712045837
20
-425.55306540335715
30
0
10
1853.5641219466925
20
-425.75375199317932
30
0
0
SPLINE
5
130
100
AcDbEntity
8
0
100
AcDbSpline
70
0
71
3
72
9
73
5
74
0
42
0.000000001
43
0.0000000001
44
0.0000000001
40
0
40
0
40
0
40
0
40
0.073387968903420808
40
0.14989994109870025
40
0.14989994109870025
40
0.14989994109870025
40
0.14989994109870025
10
1853.5641219466925
20
-425.75375199317932
30
0
10
1853.6854678299233
20
-425.97003165205541
30
0
10
1853.9333250880088
20
-426.4117976337389
30
0
10
1853.9643724063094
20
-426.91774390555446
30
0
10
1853.9802195876837
20
-427.17598915100098
30
0
0
SPLINE
5
131
100
AcDbEntity
8
0
100
AcDbSpline
70
0
71
3
72
9
73
5
74
0
42
0.000000001
43
0.0000000001
44
0.0000000001
40
0
40
0
40
0
40
0
40
0.078344504984065172
40
0.15890303060696157
40
0.15890303060696157
40
0.15890303060696157
40
0.15890303060696157
10
1853.9802195876837
20
-427.17598915100098
30
0
10
1853.9601380646609
20
-427.43977547808873
30
0
10
1853.9194075135119
20
-427.97480275046036
30
0
10
1853.6564869511355
20
-428.4428156576692
30
0
10
1853.5231950134039
20
-428.68008255958557
30
0
0
SPLINE
5
132
100
AcDbEntity
8
0
100
AcDbSpline
70
0
71
3
72
9
73
5
74
0
42
0.000000001
43
0.0000000001
44
0.0000000001
40
0
40
0
40
0
40
0
40
0.08389524476844902
40
0.17297570917341368
40
0.17297570917341368
40
0.17297570917341368
40
0.17297570917341368
10
1853.5231950134039
20
-428.68008255958557
30
0
10
1853.3501685215715
20
-428.9041649386138
30
0
10
1852.9934214828907
20
-429.36617930584828
30
0
10
1852.4763719766768
20
-429.6382141233521
30
0
10
1852.2100975364447
20
-429.7783088684082
30
0
0
SPLINE
5
133
100
AcDbEntity
8
0
100
AcDbSpline
70
0
71
3
72
9
73
5
74
0
42
0.000000001
43
0.0000000001
44
0.0000000001
40
0
40
0
40
0
40
0
40
0.095616390877727817
40
0.19781039292145439
40
0.19781039292145439
40
0.19781039292145439
40
0.19781039292145439
10
1852.2100975364447
20
-429.7783088684082
30
0
10
1851.9102153488402
20
-429.89267200281978
30
0
10
1851.2898215772736
20
-430.12926550259567
30
0
10
1850.6260208745816
20
-430.15647521745689
30
0
10
1850.2830841392279
20
-430.17053246498108
30
0
0
SPLINE
5
134
100
AcDbEntity
8
0
100
AcDbSpline
70
0
71
3
72
9
73
5
74
0
42
0.000000001
43
0.0000000001
44
0.0000000001
40
0
40
0
40
0
40
0
40
0.12513567629776456
40
0.23208009684435454
40
0.23208009684435454
40
0.23208009684435454
40
0.23208009684435454
10
1850.2830841392279
20
-430.17053246498108
30
0
10
1849.8632068499003
20
-430.15987593208854
30
0
10
1849.0844907806472
20
-430.14011203054667
30
0
10
1848.3477043142102
20
-429.89010403472366
30
0
10
1848.0081870406866
20
-429.77489829063416
30
0
0
LWPOLYLINE
5
135
100
AcDbEntity
8
0
100
AcDbPolyline
90
15
70
1
43
0.0
10
1766.7800928801462
20
-416.20893510961361
42
0.4215992977834776
10
1761.6543537796515
20
-421.20735382742856
10
1761.6543537796508
20
-428.79264617257047
42
0.42159929778351035
10
1766.7800928801464
20
-433.79106489038628
10
1819.8742608995049
20
-432.45543990472709
42
-0.42159929778353628
10
1825
20
-437.45385862254244
10
1825
20
-450
10
1872.5857864376269
20
-450
42
0.19891236737970577
10
1873.2928932188136
20
-449.70710678118678
10
1897.7071067811869
20
-425.29289321881333
42
0.19891236737963952
10
1898
20
-424.58578643762672
10
1898
20
-400
10
1825
20
-400
10
1825
20
-412.54614137745756
42
-0.42159929778353628
10
1819.8742608995049
20
-417.54456009527291
0
SPLINE
5
136
100
AcDbEntity
8
0
100
AcDbSpline
70
0
71
3
72
9
73
5
74
0
42
0.000000001
43
0.0000000001
44
0.0000000001
40
0
40
0
40
0
40
0
40
0.09567913720663572
40
0.18885764670245608
40
0.18885764670245608
40
0.18885764670245608
40
0.18885764670245608
10
1848.0081870406866
20
-429.77489829063416
30
0
10
1847.7200385252954
20
-429.62818817497492
30
0
10
1847.1512724169631
20
-429.33860229450215
30
0
10
1846.7613009559927
20
-428.83369496978474
30
0
10
1846.5688969939947
20
-428.58458399772644
30
0
0
SPLINE
5
137
100
AcDbEntity
8
0
100
AcDbSpline
70
0
71
3
72
9
73
5
74
0
42
0.000000001
43
0.0000000001
44
0.0000000001
40
0
40
0
40
0
40
0
40
0.093565114453726575
40
0.18982723371579957
40
0.18982723371579957
40
0.18982723371579957
40
0.18982723371579957
10
1846.5688969939947
20
-428.58458399772644
30
0
10
1846.4155056716386
20
-428.30871108433087
30
0
10
1846.1043015378229
20
-427.74901324916272
30
0
10
1846.0482215969384
20
-427.11081096271857
30
0
10
1846.0197832435369
20
-426.78717613220215
30
0
0
LINE
5
138
100
AcDbEntity
8
0
100
AcDbLine
10
1846.0197832435369
20
-426.78717613220221
30
0
11
1847.2680785506964
21
-426.67803585529327
31
0
0
SPLINE
5
139
100
AcDbEntity
8
0
100
AcDbSpline
70
0
71
3
72
9
73
5
74
0
42
0.000000001
43
0.0000000001
44
0.0000000001
40
0
40
0
40
0
40
0
40
0.069872952899511273
40
0.13077514728411185
40
0.13077514728411185
40
0.13077514728411185
40
0.13077514728411185
10
1847.2680785506964
20
-426.67803585529327
30
0
10
1847.3032919465832
20
-426.9105018614178
30
0
10
1847.3691978063234
20
-427.34558832803953
30
0
10
1847.5817694628154
20
-427.73017503537346
30
0
10
1847.6807644218206
20
-427.90927767753601
30
0
0
SPLINE
5
140
100
AcDbEntity
8
0
100
AcDbSpline
70
0
71
3
72
9
73
5
74
0
42
0.000000001
43
0.0000000001
44
0.0000000001
40
0
40
0
40
0
40
0
40
0.060009577969819518
40
0.12846885887691437
40
0.12846885887691437
40
0.12846885887691437
40
0.12846885887691437
10
1847.6807644218206
20
-427.90927767753601
30
0
10
1847.8103648484494
20
-428.06469267577114
30
0
10
1848.0878142070724
20
-428.39740602172515
30
0
10
1848.4786396493478
20
-428.58626393893536
30
0
10
1848.686905130744
20
-428.68690371513367
30
0
0
SPLINE
5
141
100
AcDbEntity
8
0
100
AcDbSpline
70
0
71
3
72
9
73
5
74
0
42
0.000000001
43
0.0000000001
44
0.0000000001
40
0
40
0
40
0
40
0
40
0.075815882984513541
40
0.15715756003486434
40
0.15715756003486434
40
0.15715756003486434
40
0.15715756003486434
10
1848.686905130744
20
-428.68690371513367
30
0
10
1848.9260610617225
20
-428.77341883989448
30
0
10
1849.4218036568216
20
-428.95275469114722
30
0
10
1849.9488861548368
20
-428.97309895636579
30
0
10
1850.221693739295
20
-428.98362874984741
30
0
0
SPLINE
5
142
100
AcDbEntity
8
0
100
AcDbSpline
70
0
71
3
72
9
73
5
74
0
42
0.000000001
43
0.0000000001
44
0.0000000001
40
0
40
0
40
0
40
0
40
0.07150417866684948
40
0.13616183246878427
40
0.13616183246878427
40
0.13616183246878427
40
0.13616183246878427
10
1850.221693739295
20
-428.98362874984741
30
0
10
1850.461278611137
20
-428.97628591789947
30
0
10
1850.9175081041542
20
-428.96230333013762
30
0
10
1851.3522317090974
20
-428.82413669338075
30
0
10
1851.5586640685797
20
-428.75852704048157
30
0
0
SPLINE
5
143
100
AcDbEntity
8
0
100
AcDbSpline
70
0
71
3
72
9
73
5
74
0
42
0.000000001
43
0.0000000001
44
0.0000000001
40
0
40
0
40
0
40
0
40
0.05717403271736337
40
0.10721891272293368
40
0.10721891272293368
40
0.10721891272293368
40
0.10721891272293368
10
1851.5586640685797
20
-428.75852704048157
30
0
10
1851.7358694010204
20
-428.68142905200381
30
0
10
1852.0681839530994
20
-428.53684658851762
30
0
10
1852.3091065076935
20
-428.26710402319782
30
0
10
1852.4215581268072
20
-428.14120054244995
30
0
0
SPLINE
5
144
100
AcDbEntity
8
0
100
AcDbSpline
70
0
71
3
72
9
73
5
74
0
42
0.000000001
43
0.0000000001
44
0.0000000001
40
0
40
0
40
0
40
0
40
0.046182457238536652
40
0.091334683164094571
40
0.091334683164094571
40
0.091334683164094571
40
0.091334683164094571
10
1852.4215581268072
20
-428.14120054244995
30
0
10
1852.5041208381194
20
-428.00836647912865
30
0
10
1852.6674044641925
20
-427.74566159480037
30
0
10
1852.6923216132579
20
-427.43748181850782
30
0
10
1852.7046396583319
20
-427.2851300239563
30
0
0
SPLINE
5
145
100
AcDbEntity
8
0
100
AcDbSpline
70
0
71
3
72
9
73
5
74
0
42
0.000000001
43
0.0000000001
44
0.0000000001
40
0
40
0
40
0
40
0
40
0.044607140050406315
40
0.087867356135271552
40
0.087867356135271552
40
0.087867356135271552
40
0.087867356135271552
10
1852.7046396583319
20
-427.2851300239563
30
0
10
1852.693984838997
20
-427.13414229980316
30
0
10
1852.6729969253129
20
-426.83672596431916
30
0
10
1852.5113655347056
20
-426.58640645599598
30
0
10
1852.4317886680365
20
-426.46316528320312
30
0
0
SPLINE
5
146
100
AcDbEntity
8
0
100
AcDbSpline
70
0
71
3
72
9
73
5
74
0
42
0.000000001
43
0.0000000001
44
0.0000000001
40
0
40
0
40
0
40
0
40
0.048490558758718043
40
0.10862534723607364
40
0.10862534723607364
40
0.10862534723607364
40
0.10862534723607364
10
1852.4317886680365
20
-426.46316528320312
30
0
10
1852.316710869602
20
-426.34741451476873
30
0
10
1852.0589211857111
20
-426.08811728792932
30
0
10
1851.7193599239633
20
-425.94973356750972
30
0
10
1851.5313794463873
20
-425.87312459945679
30
0
0
SPLINE
5
147
100
AcDbEntity
8
0
100
AcDbSpline
70
0
71
3
72
9
73
5
74
0
42
0.000000001
43
0.0000000001
44
0.0000000001
40
0
40
0
40
0
40
0
40
0.067666530828069463
40
0.1846541363534232
40
0.1846541363534232
40
0.1846541363534232
40
0.1846541363534232
10
1851.5313794463873
20
-425.87312459945679
30
0
10
1851.3165279423799
20
-425.80424576851442
30
0
10
1850.7302230375592
20
-425.61628340536316
30
0
10
1850.1307931816837
20
-425.47494681599602
30
0
10
1849.7510244697332
20
-425.38540303707123
30
0
0
SPLINE
5
148
100
AcDbEntity
8
0
100
AcDbSpline
70
0
71
3
72
9
73
5
74
0
42
0.000000001
43
0.0000000001
44
0.0000000001
40
0
40
0
40
0
40
0
40
0.12148557539624946
40
0.20318645960182091
40
0.20318645960182091
40
0.20318645960182091
40
0.20318645960182091
10
1849.7510244697332
20
-425.38540303707123
30
0
10
1849.3562056831072
20
-425.29107097661318
30
0
10
1848.6958652996732
20
-425.13329918083502
30
0
10
1848.0716125254571
20
-424.86795126825746
30
0
10
1847.8206016868353
20
-424.76125538349152
30
0
0
SPLINE
5
149
100
AcDbEntity
8
0
100
AcDbSpline
70
0
71
3
72
9
73
5
74
0
42
0.000000001
43
0.0000000001
44
0.0000000001
40
0
40
0
40
0
40
0
40
0.07532124580636064
40
0.14290027068337222
40
0.14290027068337222
40
0.14290027068337222
40
0.14290027068337222
10
1847.8206016868353
20
-424.76125538349152
30
0
10
1847.6006925770957
20
-424.6342149680014
30
0
10
1847.1834786692389
20
-424.39319253711994
30
0
10
1846.8912625983821
20
-424.01092748596915
30
0
10
1846.7530705779791
20
-423.83015036582947
30
0
0
SPLINE
5
150
100
AcDbEntity
8
0
100
AcDbSpline
70
0
71
3
72
9
73
5
74
0
42
0.000000001
43
0.0000000001
44
0.0000000001
40
0
40
0
40
0
40
0
40
0.064541473692177623
40
0.13069659508606041
40
0.13069659508606041
40
0.13069659508606041
40
0.13069659508606041
10
1846.7530705779791
20
-423.83015036582947
30
0
10
1846.6506138069772
20
-423.63791176478395
30
0
10
1846.443138669714
20
-423.24862826746886
30
0
10
1846.4156759839332
20
-422.80819949787838
30
0
10
1846.4017751067877
20
-422.58526623249054
30
0
0
SPLINE
5
151
100
AcDbEntity
8
0
100
AcDbSpline
70
0
71
3
72
9
73
5
74
0
42
0.000000001
43
0.0000000001
44
0.0000000001
40
0
40
0
40
0
40
0
40
0.074027261497114472
40
0.14954830407837755
40
0.14954830407837755
40
0.14954830407837755
40
0.14954830407837755
10
1846.4017751067877
20
-422.58526623249054
30
0
10
1846.4203863353255
20
-422.33592672012117
30
0
10
1846.457984344604
20
-421.83221632397164
30
0
10
1846.7061784486414
20
-421.39210429863294
30
0
10
1846.8315150588751
20
-421.16985023021698
30
0
0
SPLINE
5
152
100
AcDbEntity
8
0
100
AcDbSpline
70
0
71
3
72
9
73
5
74
0
42
0.000000001
43
0.0000000001
44
0.0000000001
40
0
40
0
40
0
40
0
40
0.078400330466529666
40
0.16233227409105988
40
0.16233227409105988
40
0.16233227409105988
40
0.16233227409105988
10
1846.8315150588751
20
-421.16985023021698
30
0
10
1846.9956628023417
20
-420.9618690359805
30
0
10
1847.335539896294
20
-420.53123232784833
30
0
10
1847.8306439463863
20
-420.29346644555034
30
0
10
1848.0866315215826
20
-420.17053246498108
30
0
0
SPLINE
5
153
100
AcDbEntity
8
0
100
AcDbSpline
70
0
71
3
72
9
73
5
74
0
42
0.000000001
43
0.0000000001
44
0.0000000001
40
0
40
0
40
0
40
0
40
0.090818784944099909
40
0.18754576378100785
40
0.18754576378100785
40
0.18754576378100785
40
0.18754576378100785
10
1848.0866315215826
20
-420.17053246498108
30
0
10
1848.3744226940757
20
-420.07108288649727
30
0
10
1848.9687272235617
20
-419.86571406146913
30
0
10
1849.5973451864156
20
-419.84180160734871
30
0
10
1849.9215557426214
20
-419.82946872711182
30
0
0
SPLINE
5
154
100
AcDbEntity
8
0
100
AcDbSpline
70
0
71
3
72
9
73
5
74
0
42
0.000000001
43
0.0000000001
44
0.0000000001
40
0
40
0
40
0
40
0
40
0.10500378186878999
40
0.20035528100050359
40
0.20035528100050359
40
0.20035528100050359
40
0.20035528100050359
10
1849.9215557426214
20
-419.82946872711182
30
0
10
1850.273673674908
20
-419.84129646174864
30
0
10
1850.9455417354004
20
-419.86386468790755
30
0
10
1851.5804936359496
20
-420.08320110076517
30
0
10
1851.8826749175787
20
-420.18758594989777
30
0
0
SPLINE
5
155
100
AcDbEntity
8
0
100
AcDbSpline
70
0
71
3
72
9
73
5
74
0
42
0.000000001
43
0.0000000001
44
0.0000000001
40
0
40
0
40
0
40
0
40
0.087185269028673421
40
0.16976090395322879
40
0.16976090395322879
40
0.16976090395322879
40
0.16976090395322879
10
1851.8826749175787
20
-420.18758594989777
30
0
10
1852.147207485026
20
-420.31772394732002
30
0
10
1852.6622863312032
20
-420.57111932393803
30
0
10
1853.0166032732675
20
-421.0221045122953
30
0
10
1853.1889512389898
20
-421.24147415161133
30
0
0
SPLINE
5
156
100
AcDbEntity
8
0
100
AcDbSpline
70
0
71
3
72
9
73
5
74
0
42
0.000000001
43
0.0000000001
44
0.0000000001
40
0
40
0
40
0
40
0
40
0.082079051829504035
40
0.16663356743680191
40
0.16663356743680191
40
0.16663356743680191
40
0.16663356743680191
10
1853.1889512389898
20
-421.24147415161133
30
0
10
1853.3237455604174
20
-421.48318991932024
30
0
10
1853.5973995336187
20
-421.97391148324277
30
0
10
1853.6522508757068
20
-422.53332717735987
30
0
10
1853.6800839751959
20
-422.81719028949738
30
0
0
LINE
5
157
100
AcDbEntity
8
0
100
AcDbLine
10
1853.6800839751957
20
-422.81719028949738
30
0
11
1852.4113252013922
21
-422.91268825531006
31
0
0
SPLINE
5
158
100
AcDbEntity
8
0
100
AcDbSpline
70
0
71
3
72
9
73
5
74
0
42
0.000000001
43
0.0000000001
44
0.0000000001
40
0
40
0
40
0
40
0
40
0.086188093623474377
40
0.16231007693751154
40
0.16231007693751154
40
0.16231007693751154
40
0.16231007693751154
10
1852.4113252013922
20
-422.91268825531006
30
0
10
1852.3636358989024
20
-422.62178893548344
30
0
10
1852.2738270398033
20
-422.07396511206309
30
0
10
1851.8961104999285
20
-421.66977863367958
30
0
10
1851.7189648002386
20
-421.48021876811981
30
0
0
SPLINE
5
159
100
AcDbEntity
8
0
100
AcDbSpline
70
0
71
3
72
9
73
5
74
0
42
0.000000001
43
0.0000000001
44
0.0000000001
40
0
40
0
40
0
40
0
40
0.081602911459913982
40
0.18353539146523506
40
0.18353539146523506
40
0.18353539146523506
40
0.18353539146523506
10
1851.7189648002386
20
-421.48021876811981
30
0
10
1851.4812812943278
20
-421.33940712489778
30
0
10
1850.9467006706498
20
-421.02270371812881
30
0
10
1850.3226915674745
20
-421.00547585173211
30
0
10
1849.976127371192
20
-420.9959077835083
30
0
0
SPLINE
5
160
100
AcDbEntity
8
0
100
AcDbSpline
70
0
71
3
72
9
73
5
74
0
42
0.000000001
43
0.0000000001
44
0.0000000001
40
0
40
0
40
0
40
0
40
0.10435015206107964
40
0.18282233340958165
40
0.18282233340958165
40
0.18282233340958165
40
0.18282233340958165
10
1849.976127371192
20
-420.9959077835083
30
0
10
1849.6215812452251
20
-421.0012933552922
30
0
10
1849.0004134867668
20
-421.01072892180389
30
0
10
1848.4589004888917
20
-421.30819874464692
30
0
10
1848.2264687865973
20
-421.43588066101074
30
0
0
SPLINE
5
161
100
AcDbEntity
8
0
100
AcDbSpline
70
0
71
3
72
9
73
5
74
0
42
0.000000001
43
0.0000000001
44
0.0000000001
40
0
40
0
40
0
40
0
40
0.063639080408478405
40
0.12280816919646717
40
0.12280816919646717
40
0.12280816919646717
40
0.12280816919646717
10
1848.2264687865973
20
-421.43588066101074
30
0
10
1848.0663726060807
20
-421.58604049674545
30
0
10
1847.7574253570253
20
-421.87581298237939
30
0
10
1847.70338954165
20
-422.29474715086621
30
0
10
1847.6773550361395
20
-422.4965900182724
30
0
0
SPLINE
5
162
100
AcDbEntity
8
0
100
AcDbSpline
70
0
71
3
72
9
73
5
74
0
42
0.000000001
43
0.0000000001
44
0.0000000001
40
0
40
0
40
0
40
0
40
0.050065881778110319
40
0.099214905616750004
40
0.099214905616750004
40
0.099214905616750004
40
0.099214905616750004
10
1847.6773550361395
20
-422.4965900182724
30
0
10
1847.6929483548111
20
-422.66771171947107
30
0
10
1847.7238494312585
20
-423.00682136521033
30
0
10
1847.9527669994568
20
-423.25862031260851
30
0
10
1848.0661680549383
20
-423.38335633277893
30
0
0
SPLINE
5
163
100
AcDbEntity
8
0
100
AcDbSpline
70
0
71
3
72
9
73
5
74
0
42
0.000000001
43
0.0000000001
44
0.0000000001
40
0
40
0
40
0
40
0
40
0.077449077366773186
40
0.21288227105907376
40
0.21288227105907376
40
0.21288227105907376
40
0.21288227105907376
10
1848.0661680549383
20
-423.38335633277893
30
0
10
1848.2926629185079
20
-423.50958559014475
30
0
10
1848.9152234780292
20
-423.85654867732092
30
0
10
1849.615735505698
20
-424.00300586355144
30
0
10
1850.0613930076361
20
-424.09618020057678
30
0
0
SPLINE
5
164
100
AcDbEntity
8
0
100
AcDbSpline
70
0
71
3
72
9
73
5
74
0
42
0.000000001
43
0.0000000001
44
0.0000000001
40
0
40
0
40
0
40
0
40
0.14023167342345871
40
0.23056571307500801
40
0.23056571307500801
40
0.23056571307500801
40
0.23056571307500801
10
1850.0613930076361
20
-424.09618020057678
30
0
10
1850.5182753161307
20
-424.1982534601263
30
0
10
1851.2694707677554
20
-424.36607998104967
30
0
10
1851.9918690811828
20
-424.6304082079597
30
0
10
1852.2748997062445
20
-424.73397016525269
30
0
0
SPLINE
5
165
100
AcDbEntity
8
0
100
AcDbSpline
70
0
71
3
72
9
73
5
74
0
42
0.000000001
43
0.0000000001
44
0.0000000001
40
0
40
0
40
0
40
0
40
0.088542525121966059
40
0.16593294042023432
40
0.16593294042023432
40
0.16593294042023432
40
0.16593294042023432
10
1852.2748997062445
20
-424.73397016525269
30
0
10
1852.5413824311581
20
-424.86925069360444
30
0
10
1853.0407838437027
20
-425.12277289460434
30
0
10
1853.3976712045837
20
-425.55306540335715
30
0
10
1853.5641219466925
20
-425.75375199317932
30
0
0
SPLINE
5
166
100
AcDbEntity
8
0
100
AcDbSpline
70
0
71
3
72
9
73
5
74
0
42
0.000000001
43
0.0000000001
44
0.0000000001
40
0
40
0
40
0
40
0
40
0.073387968903420808
40
0.14989994109870025
40
0.14989994109870025
40
0.14989994109870025
40
0.14989994109870025
10
1853.5641219466925
20
-425.75375199317932
30
0
10
1853.6854678299233
20
-425.97003165205541
30
0
10
1853.9333250880088
20
-426.4117976337389
30
0
10
1853.9643724063094
20
-426.91774390555446
30
0
10
1853.9802195876837
20
-427.17598915100098
30
0
0
SPLINE
5
167
100
AcDbEntity
8
0
100
AcDbSpline
70
0
71
3
72
9
73
5
74
0
42
0.000000001
43
0.0000000001
44
0.0000000001
40
0
40
0
40
0
40
0
40
0.078344504984065172
40
0.15890303060696157
40
0.15890303060696157
40
0.15890303060696157
40
0.15890303060696157
10
1853.9802195876837
20
-427.17598915100098
30
0
10
1853.9601380646609
20
-427.43977547808873
30
0
10
1853.9194075135119
20
-427.97480275046036
30
0
10
1853.6564869511355
20
-428.4428156576692
30
0
10
1853.5231950134039
20
-428.68008255958557
30
0
0
SPLINE
5
168
100
AcDbEntity
8
0
100
AcDbSpline
70
0
71
3
72
9
73
5
74
0
42
0.000000001
43
0.0000000001
44
0.0000000001
40
0
40
0
40
0
40
0
40
0.08389524476844902
40
0.17297570917341368
40
0.17297570917341368
40
0.17297570917341368
40
0.17297570917341368
10
1853.5231950134039
20
-428.68008255958557
30
0
10
1853.3501685215715
20
-428.9041649386138
30
0
10
1852.9934214828907
20
-429.36617930584828
30
0
10
1852.4763719766768
20
-429.6382141233521
30
0
10
1852.2100975364447
20
-429.7783088684082
30
0
0
SPLINE
5
169
100
AcDbEntity
8
0
100
AcDbSpline
70
0
71
3
72
9
73
5
74
0
42
0.000000001
43
0.0000000001
44
0.0000000001
40
0
40
0
40
0
40
0
40
0.095616390877727817
40
0.19781039292145439
40
0.19781039292145439
40
0.19781039292145439
40
0.19781039292145439
10
1852.2100975364447
20
-429.7783088684082
30
0
10
1851.9102153488402
20
-429.89267200281978
30
0
10
1851.2898215772736
20
-430.12926550259567
30
0
10
1850.6260208745816
20
-430.15647521745689
30
0
10
1850.2830841392279
20
-430.17053246498108
30
0
0
SPLINE
5
170
100
AcDbEntity
8
0
100
AcDbSpline
70
0
71
3
72
9
73
5
74
0
42
0.000000001
43
0.0000000001
44
0.0000000001
40
0
40
0
40
0
40
0
40
0.12513567629776456
40
0.23208009684435454
40
0.23208009684435454
40
0.23208009684435454
40
0.23208009684435454
10
1850.2830841392279
20
-430.17053246498108
30
0
10
1849.8632068499003
20
-430.15987593208854
30
0
10
1849.0844907806472
20
-430.14011203054667
30
0
10
1848.3477043142102
20
-429.89010403472366
30
0
10
1848.0081870406866
20
-429.77489829063416
30
0
0
LWPOLYLINE
5
171
100
AcDbEntity
8
0
100
AcDbPolyline
90
15
70
1
43
0.0
10
1898
20
-424.58578643762672
10
1898
20
-400
10
1825
20
-400
10
1825
20
-412.54614137745756
42
-0.42159929778353628
10
1819.8742608995049
20
-417.54456009527291
10
1766.7800928801462
20
-416.20893510961355
42
0.42159929778353666
10
1761.654353779651
20
-421.20735382742856
10
1761.6543537796508
20
-428.79264617257047
42
0.42159929778353583
10
1766.7800928801464
20
-433.79106489038611
10
1819.8742608995049
20
-432.45543990472709
42
-0.42159929778353628
10
1825
20
-437.45385862254244
10
1825
20
-450
10
1872.5857864376269
20
-450
42
0.19891236737961882
10
1873.2928932188133
20
-449.70710678118667
10
1897.7071067811869
20
-425.29289321881333
42
0.19891236737964493
0
ENDSEC
0
SECTION
2
OBJECTS
0
DICTIONARY
5
C
100
AcDbDictionary
3
ACAD_GROUP
350
D
3
ACAD_MLINESTYLE
350
17
0
DICTIONARY
5
D
100
AcDbDictionary
0
DICTIONARY
5
1A
330
C
100
AcDbDictionary
0
DICTIONARY
5
17
100
AcDbDictionary
0
ENDSEC
0
EOF
