0
SECTION
2
HEADER
9
$INSUNITS
70
4
9
$ACADVER
1
AC1014
9
$HANDSEED
5
FFFF
0
ENDSEC
0
SECTION
2
TABLES
0
TABLE
2
VPORT
5
8
100
AcDbSymbolTable
0
ENDTAB
0
TABLE
2
LTYPE
5
5
100
AcDbSymbolTable
0
LTYPE
5
14
100
AcDbSymbolTableRecord
100
AcDbLinetypeTableRecord
2
BYBLOCK
70
0
0
LTYPE
5
15
100
AcDbSymbolTableRecord
100
AcDbLinetypeTableRecord
2
BYLAYER
70
0
0
LTYPE
5
16
100
AcDbSymbolTableRecord
100
AcDbLinetypeTableRecord
2
DASHED
70
0
3
Dashed __ __ __ __ __ __ __ __ __ __ __ __ __ _
72
65
73
2
40
0.75
49
0.5
74
0
49
-0.25
74
0
0
ENDTAB
0
TABLE
2
LAYER
5
2
100
AcDbSymbolTable
70
2
0
LAYER
5
50
100
AcDbSymbolTableRecord
100
AcDbLayerTableRecord
2
0
70
0
62
7
6
CONTINUOUS
0
ENDTAB
0
TABLE
2
STYLE
5
3
100
AcDbSymbolTable
70
1
0
STYLE
5
11
100
AcDbSymbolTableRecord
100
AcDbTextStyleTableRecord
2
STANDARD
70
0
0
ENDTAB
0
TABLE
2
VIEW
5
6
100
AcDbSymbolTable
70
0
0
ENDTAB
0
TABLE
2
UCS
5
7
100
AcDbSymbolTable
70
0
0
ENDTAB
0
TABLE
2
APPID
5
9
100
AcDbSymbolTable
70
2
0
APPID
5
12
100
AcDbSymbolTableRecord
100
AcDbRegAppTableRecord
2
ACAD
70
0
0
ENDTAB
0
TABLE
2
DIMSTYLE
5
A
100
AcDbSymbolTable
70
1
0
ENDTAB
0
TABLE
2
BLOCK_RECORD
5
1
100
AcDbSymbolTable
70
1
0
BLOCK_RECORD
5
1F
100
AcDbSymbolTableRecord
100
AcDbBlockTableRecord
2
*MODEL_SPACE
0
BLOCK_RECORD
5
1B
100
AcDbSymbolTableRecord
100
AcDbBlockTableRecord
2
*PAPER_SPACE
0
ENDTAB
0
ENDSEC
0
SECTION
2
BLOCKS
0
BLOCK
5
20
100
AcDbEntity
100
AcDbBlockBegin
2
*MODEL_SPACE
0
ENDBLK
5
21
100
AcDbEntity
100
AcDbBlockEnd
0
BLOCK
5
1C
100
AcDbEntity
100
AcDbBlockBegin
2
*PAPER_SPACE
0
ENDBLK
5
1D
100
AcDbEntity
100
AcDbBlockEnd
0
ENDSEC
0
SECTION
2
ENTITIES
0
SPLINE
5
100
100
AcDbEntity
8
0
100
AcDbSpline
70
0
71
3
72
9
73
5
74
0
42
0.000000001
43
0.0000000001
44
0.0000000001
40
0
40
0
40
0
40
0
40
0.13967913113481031
40
0.27043414838216029
40
0.27043414838216029
40
0.27043414838216029
40
0.27043414838216029
10
1613.9904477447271
20
-430.16371130943298
30
0
10
1613.5132660665406
20
-430.12870692120407
30
0
10
1612.5893898960953
20
-430.06093457866859
30
0
10
1611.8762031397616
20
-429.47268560365637
30
0
10
1611.5313770622015
20
-429.18826699256897
30
0
0
SPLINE
5
101
100
AcDbEntity
8
0
100
AcDbSpline
70
0
71
3
72
9
73
5
74
0
42
0.000000001
43
0.0000000001
44
0.0000000001
40
0
40
0
40
0
40
0
40
0.13826349538740976
40
0.30195710037969503
40
0.30195710037969503
40
0.30195710037969503
40
0.30195710037969503
10
1611.5313770622015
20
-429.18826699256897
30
0
10
1611.2583266720751
20
-428.80508488516944
30
0
10
1610.6620051062919
20
-427.96824391175471
30
0
10
1610.6175498688865
20
-426.93696463459696
30
0
10
1610.5934502929449
20
-426.37789905071259
30
0
0
SPLINE
5
102
100
AcDbEntity
8
0
100
AcDbSpline
70
0
71
3
72
9
73
5
74
0
42
0.000000001
43
0.0000000001
44
0.0000000001
40
0
40
0
40
0
40
0
40
0.17735540629725666
40
0.32620792403146814
40
0.32620792403146814
40
0.32620792403146814
40
0.32620792403146814
10
1610.5934502929449
20
-426.37789905071259
30
0
10
1610.6214315203065
20
-425.76815957115571
30
0
10
1610.6728970960114
20
-424.64667219178079
30
0
10
1611.3865092470483
20
-423.78856366928585
30
0
10
1611.7121388763189
20
-423.39699864387512
30
0
0
SPLINE
5
103
100
AcDbEntity
8
0
100
AcDbSpline
70
0
71
3
72
9
73
5
74
0
42
0.000000001
43
0.0000000001
44
0.0000000001
40
0
40
0
40
0
40
0
40
0.11997770842463816
40
0.24574514150868082
40
0.24574514150868082
40
0.24574514150868082
40
0.24574514150868082
10
1611.7121388763189
20
-423.39699864387512
30
0
10
1612.045750525034
20
-423.16226916226219
30
0
10
1612.7290728096395
20
-422.68148293594862
30
0
10
1613.5634369284273
20
-422.62235028991245
30
0
10
1613.9904477447271
20
-422.59208738803864
30
0
0
SPLINE
5
104
100
AcDbEntity
8
0
100
AcDbSpline
70
0
71
3
72
9
73
5
74
0
42
0.000000001
43
0.0000000001
44
0.0000000001
40
0
40
0
40
0
40
0
40
0.13793178182605931
40
0.26890074685805776
40
0.26890074685805776
40
0.26890074685805776
40
0.26890074685805776
10
1613.9904477447271
20
-422.59208738803864
30
0
10
1614.4613233300252
20
-422.62848017589761
30
0
10
1615.3793046312708
20
-422.69942863828936
30
0
10
1616.0875271040595
20
-423.28549540541303
30
0
10
1616.4324691146612
20
-423.5709410905838
30
0
0
SPLINE
5
105
100
AcDbEntity
8
0
100
AcDbSpline
70
0
71
3
72
9
73
5
74
0
42
0.000000001
43
0.0000000001
44
0.0000000001
40
0
40
0
40
0
40
0
40
0.1365387948149917
40
0.29225862971538918
40
0.29225862971538918
40
0.29225862971538918
40
0.29225862971538918
10
1616.4324691146612
20
-423.5709410905838
30
0
10
1616.7086961925284
20
-423.94515182748444
30
0
10
1617.2999548701605
20
-424.7461426179741
30
0
10
1617.3525845387262
20
-425.74393891437018
30
0
10
1617.3806264251471
20
-426.27557992935181
30
0
0
SPLINE
5
106
100
AcDbEntity
8
0
100
AcDbSpline
70
0
71
3
72
9
73
5
74
0
42
0.000000001
43
0.0000000001
44
0.0000000001
40
0
40
0
40
0
40
0
40
0.12535426776061565
40
0.2254968160823338
40
0.2254968160823338
40
0.2254968160823338
40
0.2254968160823338
10
1617.3806264251471
20
-426.27557992935181
30
0
10
1617.3724398046718
20
-426.6974364133776
30
0
10
1617.3577130874676
20
-427.45630402666995
30
0
10
1617.0830805904529
20
-428.16203142601984
30
0
10
1616.9611170142889
20
-428.47544312477112
30
0
0
SPLINE
5
107
100
AcDbEntity
8
0
100
AcDbSpline
70
0
71
3
72
9
73
5
74
0
42
0.000000001
43
0.0000000001
44
0.0000000001
40
0
40
0
40
0
40
0
40
0.087871306990111975
40
0.17632654711163354
40
0.17632654711163354
40
0.17632654711163354
40
0.17632654711163354
10
1616.9611170142889
20
-428.47544312477112
30
0
10
1616.8049239117443
20
-428.72793127229454
30
0
10
1616.491499753191
20
-429.23458543238831
30
0
10
1615.9911247502785
20
-429.5580566382859
30
0
10
1615.7401087135077
20
-429.72032785415649
30
0
0
SPLINE
5
108
100
AcDbEntity
8
0
100
AcDbSpline
70
0
71
3
72
9
73
5
74
0
42
0.000000001
43
0.0000000001
44
0.0000000001
40
0
40
0
40
0
40
0
40
0.09017219582039579
40
0.18199327860005016
40
0.18199327860005016
40
0.18199327860005016
40
0.18199327860005016
10
1615.7401087135077
20
-429.72032785415649
30
0
10
1615.4654241220348
20
-429.84964517098598
30
0
10
1614.9110320621735
20
-430.11064449849971
30
0
10
1614.2991570775464
20
-430.14591585117068
30
0
10
1613.9904477447271
20
-430.16371130943298
30
0
0
LINE
5
109
100
AcDbEntity
8
0
100
AcDbLine
10
1620.0341060012579
20
-426.20736718177795
30
0
11
1620.0341060012579
21
-430
31
0
0
LINE
5
110
100
AcDbEntity
8
0
100
AcDbLine
10
1620.0341060012579
20
-430
30
0
11
1618.8062741607428
21
-430
31
0
0
LINE
5
111
100
AcDbEntity
8
0
100
AcDbLine
10
1618.8062741607428
20
-430
30
0
11
1618.8062741607428
21
-422.75579810142517
31
0
0
LINE
5
112
100
AcDbEntity
8
0
100
AcDbLine
10
1618.8062741607428
20
-422.75579810142517
30
0
11
1619.9113252013922
21
-422.75579810142517
31
0
0
LINE
5
113
100
AcDbEntity
8
0
100
AcDbLine
10
1619.9113252013922
20
-422.75579810142517
30
0
11
1619.9113252013922
21
-423.8540244102478
31
0
0
SPLINE
5
114
100
AcDbEntity
8
0
100
AcDbSpline
70
0
71
3
72
9
73
5
74
0
42
0.000000001
43
0.0000000001
44
0.0000000001
40
0
40
0
40
0
40
0
40
0.075787204645257511
40
0.12890489096115945
40
0.12890489096115945
40
0.12890489096115945
40
0.12890489096115945
10
1619.9113252013922
20
-423.8540244102478
30
0
10
1620.0344170901262
20
-423.63088640016514
30
0
10
1620.2437815411536
20
-423.25135556783499
30
0
10
1620.5614532500526
20
-422.95837947356239
30
0
10
1620.6923558562994
20
-422.83765316009521
30
0
0
SPLINE
5
115
100
AcDbEntity
8
0
100
AcDbSpline
70
0
71
3
72
9
73
5
74
0
42
0.000000001
43
0.0000000001
44
0.0000000001
40
0
40
0
40
0
40
0
40
0.041870557953316283
40
0.083509093173784743
40
0.083509093173784743
40
0.083509093173784743
40
0.083509093173784743
10
1620.6923558562994
20
-422.83765316009521
30
0
10
1620.8145130039768
20
-422.7660300429684
30
0
10
1621.0581503741455
20
-422.62318070314797
30
0
10
1621.3397875056598
20
-422.60243261082002
30
0
10
1621.4802148193121
20
-422.59208738803864
30
0
0
SPLINE
5
116
100
AcDbEntity
8
0
100
AcDbSpline
70
0
71
3
72
9
73
5
74
0
42
0.000000001
43
0.0000000001
44
0.0000000001
40
0
40
0
40
0
40
0
40
0.063362098423578206
40
0.13355127775648851
40
0.13355127775648851
40
0.13355127775648851
40
0.13355127775648851
10
1621.4802148193121
20
-422.59208738803864
30
0
10
1621.6929157934378
20
-422.61169702024449
30
0
10
1622.1412356499661
20
-422.65302916521085
30
0
10
1622.5351364214039
20
-422.87241905927817
30
0
10
1622.7421548217535
20
-422.98772156238556
30
0
0
LINE
5
117
100
AcDbEntity
8
0
100
AcDbLine
10
1622.7421548217535
20
-422.98772156238556
30
0
11
1622.3192336410284
21
-424.12687599658966
31
0
0
SPLINE
5
118
100
AcDbEntity
8
0
100
AcDbSpline
70
0
71
3
72
9
73
5
74
0
42
0.000000001
43
0.0000000001
44
0.0000000001
40
0
40
0
40
0
40
0
40
0.049243724831636693
40
0.094752437497520992
40
0.094752437497520992
40
0.094752437497520992
40
0.094752437497520992
10
1622.3192336410284
20
-424.12687599658966
30
0
10
1622.1723650929951
20
-424.04931987797454
30
0
10
1621.8897676053875
20
-423.900090076477
30
0
10
1621.5716268455426
20
-423.87357872218467
30
0
10
1621.418826803565
20
-423.8608455657959
30
0
0
SPLINE
5
119
100
AcDbEntity
8
0
100
AcDbSpline
70
0
71
3
72
9
73
5
74
0
42
0.000000001
43
0.0000000001
44
0.0000000001
40
0
40
0
40
0
40
0
40
0.03867616906223717
40
0.077316592125237338
40
0.077316592125237338
40
0.077316592125237338
40
0.077316592125237338
10
1621.418826803565
20
-423.8608455657959
30
0
10
1621.2881091406564
20
-423.87091686707538
30
0
10
1621.0267946291183
20
-423.89105016135125
30
0
10
1620.8060775350209
20
-424.03237273722277
30
0
10
1620.6957700103521
20
-424.10300135612488
30
0
0
SPLINE
5
120
100
AcDbEntity
8
0
100
AcDbSpline
70
0
71
3
72
9
73
5
74
0
42
0.000000001
43
0.0000000001
44
0.0000000001
40
0
40
0
40
0
40
0
40
0.039866435191843554
40
0.082276982842049068
40
0.082276982842049068
40
0.082276982842049068
40
0.082276982842049068
10
1620.6957700103521
20
-424.10300135612488
30
0
10
1620.5959300779975
20
-424.19363239163101
30
0
10
1620.3898788381066
20
-424.3806781637802
30
0
10
1620.2901479940986
20
-424.64080997843882
30
0
10
1620.2387406677008
20
-424.77489769458771
30
0
0
SPLINE
5
121
100
AcDbEntity
8
0
100
AcDbSpline
70
0
71
3
72
9
73
5
74
0
42
0.000000001
43
0.0000000001
44
0.0000000001
40
0
40
0
40
0
40
0
40
0.070250877138717444
40
0.14511890215183426
40
0.14511890215183426
40
0.14511890215183426
40
0.14511890215183426
10
1620.2387406677008
20
-424.77489769458771
30
0
10
1620.1790728704191
20
-425.00217412824668
30
0
10
1620.0558156871919
20
-425.4716644446799
30
0
10
1620.0414944462464
20
-425.95698589033884
30
0
10
1620.0341060012579
20
-426.20736718177795
30
0
0
LINE
5
122
100
AcDbEntity
8
0
100
AcDbLine
10
1604.5088651031256
20
-426.03683471679688
30
0
11
1604.5088651031256
21
-430
31
0
0
LINE
5
123
100
AcDbEntity
8
0
100
AcDbLine
10
1604.5088651031256
20
-430
30
0
11
1603.2810356467962
21
-430
31
0
0
LINE
5
124
100
AcDbEntity
8
0
100
AcDbLine
10
1603.2810356467962
20
-430
30
0
11
1603.2810356467962
21
-420
31
0
0
LINE
5
125
100
AcDbEntity
8
0
100
AcDbLine
10
1603.2810356467962
20
-420
30
0
11
1604.5088651031256
21
-420
31
0
0
LINE
5
126
100
AcDbEntity
8
0
100
AcDbLine
10
1604.5088651031256
20
-420
30
0
11
1604.5088651031256
21
-423.58799457550049
31
0
0
SPLINE
5
127
100
AcDbEntity
8
0
100
AcDbSpline
70
0
71
3
72
9
73
5
74
0
42
0.000000001
43
0.0000000001
44
0.0000000001
40
0
40
0
40
0
40
0
40
0.12258697700953249
40
0.24486219124069916
40
0.24486219124069916
40
0.24486219124069916
40
0.24486219124069916
10
1604.5088651031256
20
-423.58799457550049
30
0
10
1604.8138398036203
20
-423.29752185510199
30
0
10
1605.4230135940006
20
-422.71731514352882
30
0
10
1606.2600500962953
20
-422.63379452657045
30
0
10
1606.6780354827642
20
-422.59208738803864
30
0
0
SPLINE
5
128
100
AcDbEntity
8
0
100
AcDbSpline
70
0
71
3
72
9
73
5
74
0
42
0.000000001
43
0.0000000001
44
0.0000000001
40
0
40
0
40
0
40
0
40
0.075621520103717602
40
0.14449229789251836
40
0.14449229789251836
40
0.14449229789251836
40
0.14449229789251836
10
1606.6780354827642
20
-422.59208738803864
30
0
10
1606.932413910961
20
-422.60265217861513
30
0
10
1607.4184623740714
20
-422.62283863962608
30
0
10
1607.8640254889347
20
-422.81681854236911
30
0
10
1608.0763985961676
20
-422.90927708148956
30
0
0
SPLINE
5
129
100
AcDbEntity
8
0
100
AcDbSpline
70
0
71
3
72
9
73
5
74
0
42
0.000000001
43
0.0000000001
44
0.0000000001
40
0
40
0
40
0
40
0
40
0.063387566410014237
40
0.12376552860357751
40
0.12376552860357751
40
0.12376552860357751
40
0.12376552860357751
10
1608.0763985961676
20
-422.90927708148956
30
0
10
1608.2590415802795
20
-423.02272900568568
30
0
10
1608.6156557674869
20
-423.24424622372186
30
0
10
1608.8240044428244
20
-423.60824026193188
30
0
10
1608.9256455749273
20
-423.78581166267395
30
0
0
SPLINE
5
130
100
AcDbEntity
8
0
100
AcDbSpline
70
0
71
3
72
9
73
5
74
0
42
0.000000001
43
0.0000000001
44
0.0000000001
40
0
40
0
40
0
40
0
40
0.07118783139441455
40
0.16519814017708395
40
0.16519814017708395
40
0.16519814017708395
40
0.16519814017708395
10
1608.9256455749273
20
-423.78581166267395
30
0
10
1608.999896785419
20
-424.01255147946938
30
0
10
1609.1722037884392
20
-424.53872281107209
30
0
10
1609.1780932925676
20
-425.09354210229338
30
0
10
1609.1814448684454
20
-425.40927648544312
30
0
0
LINE
5
131
100
AcDbEntity
8
0
100
AcDbLine
10
1609.1814448684456
20
-425.40927648544312
30
0
11
1609.1814448684454
21
-430
31
0
0
LINE
5
132
100
AcDbEntity
8
0
100
AcDbLine
10
1609.1814448684454
20
-430
30
0
11
1607.9536130279303
21
-430
31
0
0
LINE
5
133
100
AcDbEntity
8
0
100
AcDbLine
10
1607.9536130279303
20
-430
30
0
11
1607.9536130279303
21
-425.40927648544312
31
0
0
SPLINE
5
134
100
AcDbEntity
8
0
100
AcDbSpline
70
0
71
3
72
9
73
5
74
0
42
0.000000001
43
0.0000000001
44
0.0000000001
40
0
40
0
40
0
40
0
40
0.080176262608718768
40
0.14233982779430848
40
0.14233982779430848
40
0.14233982779430848
40
0.14233982779430848
10
1607.9536130279303
20
-425.40927648544312
30
0
10
1607.9472312389148
20
-425.13538676163034
30
0
10
1607.9359014173451
20
-424.64914039825976
30
0
10
1607.6704841877076
20
-424.24527407908892
30
0
10
1607.5545694679022
20
-424.06889498233795
30
0
0
SPLINE
5
135
100
AcDbEntity
8
0
100
AcDbSpline
70
0
71
3
72
9
73
5
74
0
42
0.000000001
43
0.0000000001
44
0.0000000001
40
0
40
0
40
0
40
0
40
0.057539486138408938
40
0.12310082929940434
40
0.12310082929940434
40
0.12310082929940434
40
0.12310082929940434
10
1607.5545694679022
20
-424.06889498233795
30
0
10
1607.400702716955
20
-423.94667768665283
30
0
10
1607.0715179098886
20
-423.6852041931744
30
0
10
1606.6500904503275
20
-423.66183316652047
30
0
10
1606.4256455749273
20
-423.64938616752625
30
0
0
SPLINE
5
136
100
AcDbEntity
8
0
100
AcDbSpline
70
0
71
3
72
9
73
5
74
0
42
0.000000001
43
0.0000000001
44
0.0000000001
40
0
40
0
40
0
40
0
40
0.053420998160987332
40
0.1074751646258639
40
0.1074751646258639
40
0.1074751646258639
40
0.1074751646258639
10
1606.4256455749273
20
-423.64938616752625
30
0
10
1606.2459785350668
20
-423.66145689290977
30
0
10
1605.8845149654676
20
-423.68574141102806
30
0
10
1605.5615018331412
20
-423.84990441736443
30
0
10
1605.3990437835455
20
-423.93246948719025
30
0
0
SPLINE
5
137
100
AcDbEntity
8
0
100
AcDbSpline
70
0
71
3
72
9
73
5
74
0
42
0.000000001
43
0.0000000001
44
0.0000000001
40
0
40
0
40
0
40
0
40
0.052986459206237735
40
0.10429671333049539
40
0.10429671333049539
40
0.10429671333049539
40
0.10429671333049539
10
1605.3990437835455
20
-423.93246948719025
30
0
10
1605.2508267898031
20
-424.03387953370964
30
0
10
1604.95908158662
20
-424.23349156118064
30
0
10
1604.7944817652515
20
-424.54608097541427
30
0
10
1604.71350453794
20
-424.69986379146576
30
0
0
SPLINE
5
138
100
AcDbEntity
8
0
100
AcDbSpline
70
0
71
3
72
9
73
5
74
0
42
0.000000001
43
0.0000000001
44
0.0000000001
40
0
40
0
40
0
40
0
40
0.059648166539873669
40
0.13587735030224327
40
0.13587735030224327
40
0.13587735030224327
40
0.13587735030224327
10
1604.71350453794
20
-424.69986379146576
30
0
10
1604.6540443608892
20
-424.89062535623884
30
0
10
1604.518595246946
20
-425.32517644916391
30
0
10
1604.5123620294441
20
-425.78107112564373
30
0
10
1604.5088651031256
20
-426.03683471679688
30
0
0
SPLINE
5
139
100
AcDbEntity
8
0
100
AcDbSpline
70
0
71
3
72
9
73
5
74
0
42
0.000000001
43
0.0000000001
44
0.0000000001
40
0
40
0
40
0
40
0
40
0.019020998463333449
40
0.043253442306924586
40
0.043253442306924586
40
0.043253442306924586
40
0.043253442306924586
10
1625.194404348731
20
-428.8608455657959
30
0
10
1625.2529840239408
20
-428.88661406780273
30
0
10
1625.3861932561963
20
-428.94521122383719
30
0
10
1625.5321467190861
20
-428.94797473433789
30
0
10
1625.613916143775
20
-428.94952297210693
30
0
0
SPLINE
5
140
100
AcDbEntity
8
0
100
AcDbSpline
70
0
71
3
72
9
73
5
74
0
42
0.000000001
43
0.0000000001
44
0.0000000001
40
0
40
0
40
0
40
0
40
0.023734086512016805
40
0.054129594602230463
40
0.054129594602230463
40
0.054129594602230463
40
0.054129594602230463
10
1625.613916143775
20
-428.94952297210693
30
0
10
1625.6930285118119
20
-428.94671543899875
30
0
10
1625.8734576346135
20
-428.94031238536115
30
0
10
1626.0523440882264
20
-428.91563233379992
30
0
10
1626.1527945846319
20
-428.90177369117737
30
0
0
LINE
5
141
100
AcDbEntity
8
0
100
AcDbLine
10
1626.1527945846319
20
-428.90177369117737
30
0
11
1626.330149397254
21
-429.98635768890381
31
0
0
SPLINE
5
142
100
AcDbEntity
8
0
100
AcDbSpline
70
0
71
3
72
9
73
5
74
0
42
0.000000001
43
0.0000000001
44
0.0000000001
40
0
40
0
40
0
40
0
40
0.049790723554003755
40
0.093532252219492545
40
0.093532252219492545
40
0.093532252219492545
40
0.093532252219492545
10
1626.330149397254
20
-429.98635768890381
30
0
10
1626.166953513386
20
-430.01814957823115
30
0
10
1625.8603888065163
20
-430.07787088370441
30
0
10
1625.5483718193602
20
-430.08988078777679
30
0
10
1625.4024531692266
20
-430.09549736976624
30
0
0
SPLINE
5
143
100
AcDbEntity
8
0
100
AcDbSpline
70
0
71
3
72
9
73
5
74
0
42
0.000000001
43
0.0000000001
44
0.0000000001
40
0
40
0
40
0
40
0
40
0.059580237957698019
40
0.10666953150874622
40
0.10666953150874622
40
0.10666953150874622
40
0.10666953150874622
10
1625.4024531692266
20
-430.09549736976624
30
0
10
1625.2016140935875
20
-430.09163472848746
30
0
10
1624.8420416776084
20
-430.08471924527169
30
0
10
1624.5115250896342
20
-429.945497464357
30
0
10
1624.3656184524298
20
-429.88403797149658
30
0
0
SPLINE
5
144
100
AcDbEntity
8
0
100
AcDbSpline
70
0
71
3
72
9
73
5
74
0
42
0.000000001
43
0.0000000001
44
0.0000000001
40
0
40
0
40
0
40
0
40
0.039792528215611286
40
0.077039413124561834
40
0.077039413124561834
40
0.077039413124561834
40
0.077039413124561834
10
1624.3656184524298
20
-429.88403797149658
30
0
10
1624.2528319946953
20
-429.81002300085919
30
0
10
1624.0344743556636
20
-429.66672801167334
30
0
10
1623.9082350564797
20
-429.43846464385075
30
0
10
1623.8472010940313
20
-429.32810425758362
30
0
0
SPLINE
5
145
100
AcDbEntity
8
0
100
AcDbSpline
70
0
71
3
72
9
73
5
74
0
42
0.000000001
43
0.0000000001
44
0.0000000001
40
0
40
0
40
0
40
0
40
0.054633627369130855
40
0.14620102635987856
40
0.14620102635987856
40
0.14620102635987856
40
0.14620102635987856
10
1623.8472010940313
20
-429.32810425758362
30
0
10
1623.8040696546277
20
-429.15059955416064
30
0
10
1623.688648786331
20
-428.6755922907987
30
0
10
1623.693867273141
20
-428.18551953691491
30
0
10
1623.6971356719732
20
-427.87858128547668
30
0
0
LINE
5
146
100
AcDbEntity
8
0
100
AcDbLine
10
1623.6971356719732
20
-427.87858128547668
30
0
11
1623.6971356719732
21
-423.710777759552
31
0
0
LINE
5
147
100
AcDbEntity
8
0
100
AcDbLine
10
1623.6971356719732
20
-423.710777759552
30
0
11
1622.7967240661383
21
-423.710777759552
31
0
0
LINE
5
148
100
AcDbEntity
8
0
100
AcDbLine
10
1622.7967240661383
20
-423.710777759552
30
0
11
1622.7967240661383
21
-422.75579810142517
31
0
0
LINE
5
149
100
AcDbEntity
8
0
100
AcDbLine
10
1622.7967240661383
20
-422.75579810142517
30
0
11
1623.6971356719732
21
-422.75579810142517
31
0
0
LINE
5
150
100
AcDbEntity
8
0
100
AcDbLine
10
1623.6971356719732
20
-422.75579810142517
30
0
11
1623.6971356719732
21
-420.96180081367493
31
0
0
LINE
5
151
100
AcDbEntity
8
0
100
AcDbLine
10
1623.6971356719732
20
-420.96180081367493
30
0
11
1624.9181439727545
21
-420.22510230541229
31
0
0
LINE
5
152
100
AcDbEntity
8
0
100
AcDbLine
10
1624.9181439727545
20
-420.22510230541229
30
0
11
1624.9181439727545
21
-422.75579810142517
31
0
0
LINE
5
153
100
AcDbEntity
8
0
100
AcDbLine
10
1624.9181439727545
20
-422.75579810142517
30
0
11
1626.1527945846319
21
-422.75579810142517
31
0
0
LINE
5
154
100
AcDbEntity
8
0
100
AcDbLine
10
1626.1527945846319
20
-422.75579810142517
30
0
11
1626.1527945846319
21
-423.710777759552
31
0
0
LINE
5
155
100
AcDbEntity
8
0
100
AcDbLine
10
1626.1527945846319
20
-423.710777759552
30
0
11
1624.9181439727545
21
-423.710777759552
31
0
0
LINE
5
156
100
AcDbEntity
8
0
100
AcDbLine
10
1624.9181439727545
20
-423.710777759552
30
0
11
1624.9181439727545
21
-427.94679403305054
31
0
0
SPLINE
5
157
100
AcDbEntity
8
0
100
AcDbSpline
70
0
71
3
72
9
73
5
74
0
42
0.000000001
43
0.0000000001
44
0.0000000001
40
0
40
0
40
0
40
0
40
0.043174997986590087
40
0.068040717983792839
40
0.068040717983792839
40
0.068040717983792839
40
0.068040717983792839
10
1624.9181439727545
20
-427.94679403305054
30
0
10
1624.9163342575573
20
-428.09145774847502
30
0
10
1624.913482275459
20
-428.31943744790061
30
0
10
1624.9643546530228
20
-428.54109574139244
30
0
10
1624.9829461425543
20
-428.62210154533386
30
0
0
SPLINE
5
158
100
AcDbEntity
8
0
100
AcDbSpline
70
0
71
3
72
9
73
5
74
0
42
0.000000001
43
0.0000000001
44
0.0000000001
40
0
40
0
40
0
40
0
40
0.015943653508030429
40
0.032297564616923582
40
0.032297564616923582
40
0.032297564616923582
40
0.032297564616923582
10
1624.9829461425543
20
-428.62210154533386
30
0
10
1625.0082624050949
20
-428.66974822592249
30
0
10
1625.0595463611126
20
-428.7662676180629
30
0
10
1625.1490726191396
20
-428.82905373775759
30
0
10
1625.194404348731
20
-428.8608455657959
30
0
0
SPLINE
5
159
100
AcDbEntity
8
0
100
AcDbSpline
70
0
71
3
72
9
73
5
74
0
42
0.000000001
43
0.0000000001
44
0.0000000001
40
0
40
0
40
0
40
0
40
0.095679035220574665
40
0.18885770354576681
40
0.18885770354576681
40
0.18885770354576681
40
0.18885770354576681
10
1595.6582524627447
20
-429.77489829063416
30
0
10
1595.3701045238922
20
-429.62818798286895
30
0
10
1594.8013387761221
20
-429.33860132736862
30
0
10
1594.4113660702319
20
-428.83369488439718
30
0
10
1594.2189612239599
20
-428.58458399772644
30
0
0
SPLINE
5
160
100
AcDbEntity
8
0
100
AcDbSpline
70
0
71
3
72
9
73
5
74
0
42
0.000000001
43
0.0000000001
44
0.0000000001
40
0
40
0
40
0
40
0
40
0.093565063720955202
40
0.1898271829830282
40
0.1898271829830282
40
0.1898271829830282
40
0.1898271829830282
10
1594.2189612239599
20
-428.58458399772644
30
0
10
1594.0655703960442
20
-428.30871104142153
30
0
10
1593.7543671797935
20
-427.74901296530265
30
0
10
1593.6982870980346
20
-427.11081092459733
30
0
10
1593.6698486655951
20
-426.78717613220215
30
0
0
LINE
5
161
100
AcDbEntity
8
0
100
AcDbLine
10
1593.6698486655948
20
-426.78717613220215
30
0
11
1594.9181427806616
21
-426.67803585529327
31
0
0
SPLINE
5
162
100
AcDbEntity
8
0
100
AcDbSpline
70
0
71
3
72
9
73
5
74
0
42
0.000000001
43
0.0000000001
44
0.0000000001
40
0
40
0
40
0
40
0
40
0.069872978066015307
40
0.13077522435602879
40
0.13077522435602879
40
0.13077522435602879
40
0.13077522435602879
10
1594.9181427806616
20
-426.67803585529327
30
0
10
1594.9533565748065
20
-426.91050188788091
30
0
10
1595.0192631950367
20
-427.34558850374077
30
0
10
1595.2318356698459
20
-427.73017505907086
30
0
10
1595.3308310359716
20
-427.90927767753601
30
0
0
SPLINE
5
163
100
AcDbEntity
8
0
100
AcDbSpline
70
0
71
3
72
9
73
5
74
0
42
0.000000001
43
0.0000000001
44
0.0000000001
40
0
40
0
40
0
40
0
40
0.060009577969819518
40
0.12846865249570991
40
0.12846865249570991
40
0.12846865249570991
40
0.12846865249570991
10
1595.3308310359716
20
-427.90927767753601
30
0
10
1595.4604314901421
20
-428.06469262206116
30
0
10
1595.7378804620134
20
-428.39740531853897
30
0
10
1596.1287047745905
20
-428.58626378693594
30
0
10
1596.3369693607092
20
-428.68690371513367
30
0
0
SPLINE
5
164
100
AcDbEntity
8
0
100
AcDbSpline
70
0
71
3
72
9
73
5
74
0
42
0.000000001
43
0.0000000001
44
0.0000000001
40
0
40
0
40
0
40
0
40
0.075815882984513541
40
0.15715756003486434
40
0.15715756003486434
40
0.15715756003486434
40
0.15715756003486434
10
1596.3369693607092
20
-428.68690371513367
30
0
10
1596.5761252916877
20
-428.77341883989448
30
0
10
1597.0718678867868
20
-428.95275469114722
30
0
10
1597.598950384802
20
-428.97309895636579
30
0
10
1597.8717579692602
20
-428.98362874984741
30
0
0
SPLINE
5
165
100
AcDbEntity
8
0
100
AcDbSpline
70
0
71
3
72
9
73
5
74
0
42
0.000000001
43
0.0000000001
44
0.0000000001
40
0
40
0
40
0
40
0
40
0.071504297506375894
40
0.13616195130831069
40
0.13616195130831069
40
0.13616195130831069
40
0.13616195130831069
10
1597.8717579692602
20
-428.98362874984741
30
0
10
1598.1113432439586
20
-428.97628595406729
30
0
10
1598.5675731440529
20
-428.9623034462133
30
0
10
1599.0022971302733
20
-428.82413669192761
30
0
10
1599.2087294906378
20
-428.75852704048157
30
0
0
SPLINE
5
166
100
AcDbEntity
8
0
100
AcDbSpline
70
0
71
3
72
9
73
5
74
0
42
0.000000001
43
0.0000000001
44
0.0000000001
40
0
40
0
40
0
40
0
40
0.05717403271736337
40
0.10721891272293368
40
0.10721891272293368
40
0.10721891272293368
40
0.10721891272293368
10
1599.2087294906378
20
-428.75852704048157
30
0
10
1599.3859348230785
20
-428.68142905200381
30
0
10
1599.7182493751575
20
-428.53684658851762
30
0
10
1599.9591719297516
20
-428.26710402319782
30
0
10
1600.0716235488653
20
-428.14120054244995
30
0
0
SPLINE
5
167
100
AcDbEntity
8
0
100
AcDbSpline
70
0
71
3
72
9
73
5
74
0
42
0.000000001
43
0.0000000001
44
0.0000000001
40
0
40
0
40
0
40
0
40
0.046182457238536652
40
0.091334683164094571
40
0.091334683164094571
40
0.091334683164094571
40
0.091334683164094571
10
1600.0716235488653
20
-428.14120054244995
30
0
10
1600.1541862601775
20
-428.00836647912865
30
0
10
1600.3174698862506
20
-427.74566159480037
30
0
10
1600.3423870353161
20
-427.43748181850782
30
0
10
1600.35470508039
20
-427.2851300239563
30
0
0
SPLINE
5
168
100
AcDbEntity
8
0
100
AcDbSpline
70
0
71
3
72
9
73
5
74
0
42
0.000000001
43
0.0000000001
44
0.0000000001
40
0
40
0
40
0
40
0
40
0.044607176509098102
40
0.087867279812227445
40
0.087867279812227445
40
0.087867279812227445
40
0.087867279812227445
10
1600.35470508039
20
-427.2851300239563
30
0
10
1600.344049138097
20
-427.13414240685188
30
0
10
1600.323059047794
20
-426.83672678365986
30
0
10
1600.1614297755036
20
-426.58640658273868
30
0
10
1600.0818540900946
20
-426.46316528320312
30
0
0
SPLINE
5
169
100
AcDbEntity
8
0
100
AcDbSpline
70
0
71
3
72
9
73
5
74
0
42
0.000000001
43
0.0000000001
44
0.0000000001
40
0
40
0
40
0
40
0
40
0.048490381002547357
40
0.10862538313203318
40
0.10862538313203318
40
0.10862538313203318
40
0.10862538313203318
10
1600.0818540900946
20
-426.46316528320312
30
0
10
1599.9667771517261
20
-426.34741443128542
30
0
10
1599.7089883643114
20
-426.08811598121213
30
0
10
1599.3694263618399
20
-425.94973326078241
30
0
10
1599.1814448684454
20
-425.87312459945679
30
0
0
SPLINE
5
170
100
AcDbEntity
8
0
100
AcDbSpline
70
0
71
3
72
9
73
5
74
0
42
0.000000001
43
0.0000000001
44
0.0000000001
40
0
40
0
40
0
40
0
40
0.067666530828069463
40
0.1846541363534232
40
0.1846541363534232
40
0.1846541363534232
40
0.1846541363534232
10
1599.1814448684454
20
-425.87312459945679
30
0
10
1598.966593364438
20
-425.80424576851442
30
0
10
1598.3802884596173
20
-425.61628340536316
30
0
10
1597.7808586037418
20
-425.47494681599602
30
0
10
1597.4010898917913
20
-425.38540303707123
30
0
0
SPLINE
5
171
100
AcDbEntity
8
0
100
AcDbSpline
70
0
71
3
72
9
73
5
74
0
42
0.000000001
43
0.0000000001
44
0.0000000001
40
0
40
0
40
0
40
0
40
0.12148557539624946
40
0.20318645960182091
40
0.20318645960182091
40
0.20318645960182091
40
0.20318645960182091
10
1597.4010898917913
20
-425.38540303707123
30
0
10
1597.0062711051653
20
-425.29107097661318
30
0
10
1596.3459307217313
20
-425.13329918083502
30
0
10
1595.7216779475152
20
-424.86795126825746
30
0
10
1595.4706671088934
20
-424.76125538349152
30
0
0
SPLINE
5
172
100
AcDbEntity
8
0
100
AcDbSpline
70
0
71
3
72
9
73
5
74
0
42
0.000000001
43
0.0000000001
44
0.0000000001
40
0
40
0
40
0
40
0
40
0.07532124580636064
40
0.14290027068337222
40
0.14290027068337222
40
0.14290027068337222
40
0.14290027068337222
10
1595.4706671088934
20
-424.76125538349152
30
0
10
1595.2507579991538
20
-424.6342149680014
30
0
10
1594.833544091297
20
-424.39319253711994
30
0
10
1594.5413280204402
20
-424.01092748596915
30
0
10
1594.4031360000372
20
-423.83015036582947
30
0
0
SPLINE
5
173
100
AcDbEntity
8
0
100
AcDbSpline
70
0
71
3
72
9
73
5
74
0
42
0.000000001
43
0.0000000001
44
0.0000000001
40
0
40
0
40
0
40
0
40
0.064541473692177623
40
0.13069659508606041
40
0.13069659508606041
40
0.13069659508606041
40
0.13069659508606041
10
1594.4031360000372
20
-423.83015036582947
30
0
10
1594.3006792290353
20
-423.63791176478395
30
0
10
1594.0932040917721
20
-423.24862826746886
30
0
10
1594.0657414059913
20
-422.80819949787838
30
0
10
1594.0518405288458
20
-422.58526623249054
30
0
0
SPLINE
5
174
100
AcDbEntity
8
0
100
AcDbSpline
70
0
71
3
72
9
73
5
74
0
42
0.000000001
43
0.0000000001
44
0.0000000001
40
0
40
0
40
0
40
0
40
0.074027244196297318
40
0.14954833765299919
40
0.14954833765299919
40
0.14954833765299919
40
0.14954833765299919
10
1594.0518405288458
20
-422.58526623249054
30
0
10
1594.0704511967988
20
-422.3359266723856
30
0
10
1594.1080480908236
20
-421.83221594899373
30
0
10
1594.3562432709732
20
-421.39210423914045
30
0
10
1594.4815804809332
20
-421.16985023021698
30
0
0
SPLINE
5
175
100
AcDbEntity
8
0
100
AcDbSpline
70
0
71
3
72
9
73
5
74
0
42
0.000000001
43
0.0000000001
44
0.0000000001
40
0
40
0
40
0
40
0
40
0.078400250084233278
40
0.1623322968894253
40
0.1623322968894253
40
0.1623322968894253
40
0.1623322968894253
10
1594.4815804809332
20
-421.16985023021698
30
0
10
1594.6457277786685
20
-420.96186898220128
30
0
10
1594.9856043459115
20
-420.53123166071254
30
0
10
1595.4807088532746
20
-420.29346630641555
30
0
10
1595.7366969436407
20
-420.17053246498108
30
0
0
SPLINE
5
176
100
AcDbEntity
8
0
100
AcDbSpline
70
0
71
3
72
9
73
5
74
0
42
0.000000001
43
0.0000000001
44
0.0000000001
40
0
40
0
40
0
40
0
40
0.090818670560999112
40
0.18754588688835133
40
0.18754588688835133
40
0.18754588688835133
40
0.18754588688835133
10
1595.7366969436407
20
-420.17053246498108
30
0
10
1596.0244877182499
20
-420.07108288966941
30
0
10
1596.6187925646977
20
-419.86571367773001
30
0
10
1597.2474109826444
20
-419.84180149141332
30
0
10
1597.5716223567724
20
-419.82946872711182
30
0
0
SPLINE
5
177
100
AcDbEntity
8
0
100
AcDbSpline
70
0
71
3
72
9
73
5
74
0
42
0.000000001
43
0.0000000001
44
0.0000000001
40
0
40
0
40
0
40
0
40
0.10500378186878999
40
0.20035516661826641
40
0.20035516661826641
40
0.20035516661826641
40
0.20035516661826641
10
1597.5716223567724
20
-419.82946872711182
30
0
10
1597.9237403000868
20
-419.84129642047179
30
0
10
1598.595607998054
20
-419.86386455498723
30
0
10
1599.2305594577788
20
-420.08320110236912
30
0
10
1599.5327403396368
20
-420.18758594989777
30
0
0
SPLINE
5
178
100
AcDbEntity
8
0
100
AcDbSpline
70
0
71
3
72
9
73
5
74
0
42
0.000000001
43
0.0000000001
44
0.0000000001
40
0
40
0
40
0
40
0
40
0.087185269028673421
40
0.16976090395322879
40
0.16976090395322879
40
0.16976090395322879
40
0.16976090395322879
10
1599.5327403396368
20
-420.18758594989777
30
0
10
1599.7972729070841
20
-420.31772394732002
30
0
10
1600.3123517532613
20
-420.57111932393803
30
0
10
1600.6666686953256
20
-421.0221045122953
30
0
10
1600.8390166610479
20
-421.24147415161133
30
0
0
SPLINE
5
179
100
AcDbEntity
8
0
100
AcDbSpline
70
0
71
3
72
9
73
5
74
0
42
0.000000001
43
0.0000000001
44
0.0000000001
40
0
40
0
40
0
40
0
40
0.082079051829504035
40
0.16663356743680191
40
0.16663356743680191
40
0.16663356743680191
40
0.16663356743680191
10
1600.8390166610479
20
-421.24147415161133
30
0
10
1600.9738109824755
20
-421.48318991932024
30
0
10
1601.2474649556768
20
-421.97391148324277
30
0
10
1601.3023162977649
20
-422.53332717735987
30
0
10
1601.330149397254
20
-422.81719028949738
30
0
0
LINE
5
180
100
AcDbEntity
8
0
100
AcDbLine
10
1601.3301493972538
20
-422.81719028949738
30
0
11
1600.0613906234503
21
-422.91268825531006
31
0
0
SPLINE
5
181
100
AcDbEntity
8
0
100
AcDbSpline
70
0
71
3
72
9
73
5
74
0
42
0.000000001
43
0.0000000001
44
0.0000000001
40
0
40
0
40
0
40
0
40
0.086188093623474377
40
0.16231007693751154
40
0.16231007693751154
40
0.16231007693751154
40
0.16231007693751154
10
1600.0613906234503
20
-422.91268825531006
30
0
10
1600.0137013209605
20
-422.62178893548344
30
0
10
1599.9238924618614
20
-422.07396511206309
30
0
10
1599.5461759219866
20
-421.66977863367958
30
0
10
1599.3690302222967
20
-421.48021876811981
30
0
0
SPLINE
5
182
100
AcDbEntity
8
0
100
AcDbSpline
70
0
71
3
72
9
73
5
74
0
42
0.000000001
43
0.0000000001
44
0.0000000001
40
0
40
0
40
0
40
0
40
0.081603018208202441
40
0.18353537984819629
40
0.18353537984819629
40
0.18353537984819629
40
0.18353537984819629
10
1599.3690302222967
20
-421.48021876811981
30
0
10
1599.1313463163115
20
-421.33940711557079
30
0
10
1598.5967655259603
20
-421.0227041221633
30
0
10
1597.9727565425296
20
-421.00547598924732
30
0
10
1597.6261927932501
20
-420.9959077835083
30
0
0
SPLINE
5
183
100
AcDbEntity
8
0
100
AcDbSpline
70
0
71
3
72
9
73
5
74
0
42
0.000000001
43
0.0000000001
44
0.0000000001
40
0
40
0
40
0
40
0
40
0.10435003351589647
40
0.18282243117927799
40
0.18282243117927799
40
0.18282243117927799
40
0.18282243117927799
10
1597.6261927932501
20
-420.9959077835083
30
0
10
1597.2716471435165
20
-421.00129357003942
30
0
10
1596.6504791815687
20
-421.01072952855577
30
0
10
1596.1089655201042
20
-421.30819872838003
30
0
10
1595.8765330165625
20
-421.43588066101074
30
0
0
SPLINE
5
184
100
AcDbEntity
8
0
100
AcDbSpline
70
0
71
3
72
9
73
5
74
0
42
0.000000001
43
0.0000000001
44
0.0000000001
40
0
40
0
40
0
40
0
40
0.063638848971989945
40
0.1228079930753018
40
0.1228079930753018
40
0.1228079930753018
40
0.1228079930753018
10
1595.8765330165625
20
-421.43588066101074
30
0
10
1595.7164385504382
20
-421.5860407666201
30
0
10
1595.4074939292709
20
-421.87581441130015
30
0
10
1595.3534560296009
20
-422.29474729278371
30
0
10
1595.3274204581976
20
-422.4965900182724
30
0
0
SPLINE
5
185
100
AcDbEntity
8
0
100
AcDbSpline
70
0
71
3
72
9
73
5
74
0
42
0.000000001
43
0.0000000001
44
0.0000000001
40
0
40
0
40
0
40
0
40
0.050065881778110319
40
0.099214905616750004
40
0.099214905616750004
40
0.099214905616750004
40
0.099214905616750004
10
1595.3274204581976
20
-422.4965900182724
30
0
10
1595.3430137768692
20
-422.66771171947107
30
0
10
1595.3739148533166
20
-423.00682136521033
30
0
10
1595.6028324215149
20
-423.25862031260851
30
0
10
1595.7162334769964
20
-423.38335633277893
30
0
0
SPLINE
5
186
100
AcDbEntity
8
0
100
AcDbSpline
70
0
71
3
72
9
73
5
74
0
42
0.000000001
43
0.0000000001
44
0.0000000001
40
0
40
0
40
0
40
0
40
0.077449077366773186
40
0.21288227105907376
40
0.21288227105907376
40
0.21288227105907376
40
0.21288227105907376
10
1595.7162334769964
20
-423.38335633277893
30
0
10
1595.942728340566
20
-423.50958559014475
30
0
10
1596.5652889000874
20
-423.85654867732092
30
0
10
1597.2658009277561
20
-424.00300586355144
30
0
10
1597.7114584296942
20
-424.09618020057678
30
0
0
SPLINE
5
187
100
AcDbEntity
8
0
100
AcDbSpline
70
0
71
3
72
9
73
5
74
0
42
0.000000001
43
0.0000000001
44
0.0000000001
40
0
40
0
40
0
40
0
40
0.14023144220043302
40
0.23056570711946509
40
0.23056570711946509
40
0.23056570711946509
40
0.23056570711946509
10
1597.7114584296942
20
-424.09618020057678
30
0
10
1598.168339877227
20
-424.1982536723109
30
0
10
1598.9195351324938
20
-424.36608081449265
30
0
10
1599.6419336932356
20
-424.63040825509938
30
0
10
1599.9249651283026
20
-424.73397016525269
30
0
0
SPLINE
5
188
100
AcDbEntity
8
0
100
AcDbSpline
70
0
71
3
72
9
73
5
74
0
42
0.000000001
43
0.0000000001
44
0.0000000001
40
0
40
0
40
0
40
0
40
0.088542320781116846
40
0.16593289946662337
40
0.16593289946662337
40
0.16593289946662337
40
0.16593289946662337
10
1599.9249651283026
20
-424.73397016525269
30
0
10
1600.191446814451
20
-424.86925098159992
30
0
10
1600.6908473095732
20
-425.12277424483364
30
0
10
1601.0477357368052
20
-425.55306551009522
30
0
10
1601.2141873687506
20
-425.75375199317932
30
0
0
SPLINE
5
189
100
AcDbEntity
8
0
100
AcDbSpline
70
0
71
3
72
9
73
5
74
0
42
0.000000001
43
0.0000000001
44
0.0000000001
40
0
40
0
40
0
40
0
40
0.07338807028750563
40
0.1499000100674116
40
0.1499000100674116
40
0.1499000100674116
40
0.1499000100674116
10
1601.2141873687506
20
-425.75375199317932
30
0
10
1601.335534429114
20
-425.97003154023861
30
0
10
1601.5833938632002
20
-426.41179688649368
30
0
10
1601.6144389707724
20
-426.91774380413796
30
0
10
1601.6302850097418
20
-427.17598915100098
30
0
0
SPLINE
5
190
100
AcDbEntity
8
0
100
AcDbSpline
70
0
71
3
72
9
73
5
74
0
42
0.000000001
43
0.0000000001
44
0.0000000001
40
0
40
0
40
0
40
0
40
0.078344504984065172
40
0.15890303060696157
40
0.15890303060696157
40
0.15890303060696157
40
0.15890303060696157
10
1601.6302850097418
20
-427.17598915100098
30
0
10
1601.610203486719
20
-427.43977547808873
30
0
10
1601.56947293557
20
-427.97480275046036
30
0
10
1601.3065523731937
20
-428.4428156576692
30
0
10
1601.173260435462
20
-428.68008255958557
30
0
0
SPLINE
5
191
100
AcDbEntity
8
0
100
AcDbSpline
70
0
71
3
72
9
73
5
74
0
42
0.000000001
43
0.0000000001
44
0.0000000001
40
0
40
0
40
0
40
0
40
0.08389524476844902
40
0.17297570917341368
40
0.17297570917341368
40
0.17297570917341368
40
0.17297570917341368
10
1601.173260435462
20
-428.68008255958557
30
0
10
1601.0002339436296
20
-428.9041649386138
30
0
10
1600.6434869049488
20
-429.36617930584828
30
0
10
1600.1264373987349
20
-429.6382141233521
30
0
10
1599.8601629585028
20
-429.7783088684082
30
0
0
SPLINE
5
192
100
AcDbEntity
8
0
100
AcDbSpline
70
0
71
3
72
9
73
5
74
0
42
0.000000001
43
0.0000000001
44
0.0000000001
40
0
40
0
40
0
40
0
40
0.095616390877727817
40
0.19781039292145439
40
0.19781039292145439
40
0.19781039292145439
40
0.19781039292145439
10
1599.8601629585028
20
-429.7783088684082
30
0
10
1599.5602807708983
20
-429.89267200281978
30
0
10
1598.9398869993317
20
-430.12926550259567
30
0
10
1598.2760862966397
20
-430.15647521745689
30
0
10
1597.933149561286
20
-430.17053246498108
30
0
0
SPLINE
5
193
100
AcDbEntity
8
0
100
AcDbSpline
70
0
71
3
72
9
73
5
74
0
42
0.000000001
43
0.0000000001
44
0.0000000001
40
0
40
0
40
0
40
0
40
0.12513567629776456
40
0.23208009684435454
40
0.23208009684435454
40
0.23208009684435454
40
0.23208009684435454
10
1597.933149561286
20
-430.17053246498108
30
0
10
1597.5132722719584
20
-430.15987593208854
30
0
10
1596.7345562027053
20
-430.14011203054667
30
0
10
1595.9977697362683
20
-429.89010403472366
30
0
10
1595.6582524627447
20
-429.77489829063416
30
0
0
LWPOLYLINE
5
194
100
AcDbEntity
8
0
100
AcDbPolyline
90
65
70
1
43
0.0
10
1825
20
-412.94626792005238
10
1825
20
-400
10
1816.4999999999998
20
-400.00000000000011
42
-0.41421356237309503
10
1815.9999999999995
20
-399.5
10
1816
20
-388.5
42
0.41421356237297013
10
1815.5
20
-388.00000000000011
10
1766.4999999999998
20
-388
42
0.41421356237297013
10
1765.9999999999995
20
-388.5
10
1766.0000000000002
20
-399.5
42
-0.41421356237309503
10
1765.5
20
-400
10
1596.5
20
-400.00000000000011
42
-0.41421356237309503
10
1596
20
-399.5
10
1596
20
-388.5
42
0.41421356237297013
10
1595.5
20
-388.00000000000011
10
1546.5
20
-388
42
0.41421356237297013
10
1546
20
-388.5
10
1546.0000000000002
20
-399.5
42
-0.41421356237309503
10
1545.5
20
-400
10
1376.5
20
-400.00000000000011
42
-0.41421356237309503
10
1376
20
-399.5
10
1376
20
-388.5
42
0.41421356237297013
10
1375.5
20
-388.00000000000011
10
1326.5
20
-388
42
0.41421356237297013
10
1326
20
-388.5
10
1326.0000000000002
20
-399.5
42
-0.41421356237309503
10
1325.5
20
-400
10
1156.5
20
-400
42
-0.41421356237309503
10
1156
20
-399.5
10
1156
20
-388.5
42
0.4142135623730534
10
1155.5
20
-388
10
1106.5
20
-388
42
0.41421356237309503
10
1106
20
-388.5
10
1106
20
-399.5
42
-0.41421356237309503
10
1105.5
20
-400
10
1025
20
-400
10
1025
20
-424.58578643762689
42
0.19891236737967427
10
1025.2928932188133
20
-425.2928932188135
10
1049.7071067811867
20
-449.70710678118667
42
0.19891236737965803
10
1050.4142135623733
20
-450.00000000000006
10
1236.4499999999996
20
-450
42
0.41421356237319906
10
1237.4499999999996
20
-449
10
1237.4499999999998
20
-424.69999999999999
10
1243.5499999999997
20
-424.69999999999999
10
1243.5499999999997
20
-449
42
0.41421356237315748
10
1244.5499999999995
20
-450
10
1455.4499999999996
20
-450
42
0.41421356237294937
10
1456.4499999999996
20
-449
10
1456.4499999999998
20
-424.69999999999999
10
1462.5499999999997
20
-424.69999999999999
10
1462.5499999999997
20
-449
42
0.41421356237294937
10
1463.5499999999997
20
-450
10
1674.4499999999998
20
-450
42
0.41421356237294937
10
1675.4499999999998
20
-449
10
1675.4499999999996
20
-424.69999999999999
10
1681.5499999999997
20
-424.69999999999999
10
1681.5499999999997
20
-449
42
0.41421356237299095
10
1682.5499999999997
20
-450.00000000000011
10
1825
20
-450
10
1825
20
-437.05373207994774
42
0.42159929778353211
10
1819.8742608995049
20
-432.05531336213249
10
1767.180092880146
20
-433.38087603748147
42
-0.42159929778348537
10
1762.0543537796507
20
-428.38245731966589
10
1762.0543537796507
20
-421.6175426803336
42
-0.42159929778355343
10
1767.1800928801458
20
-416.6191239625183
10
1819.8742608995049
20
-417.94468663786756
42
0.42159929778352795
0
SPLINE
5
195
100
AcDbEntity
8
0
100
AcDbSpline
70
0
71
3
72
9
73
5
74
0
42
0.000000001
43
0.0000000001
44
0.0000000001
40
0
40
0
40
0
40
0
40
0.085985517568563902
40
0.17183166110531373
40
0.17183166110531373
40
0.17183166110531373
40
0.17183166110531373
10
1613.9904477447271
20
-423.60845804214478
30
0
10
1613.6966464824736
20
-423.63707088683691
30
0
10
1613.1095201807955
20
-423.69425019762571
30
0
10
1612.6780435967144
20
-424.0964640558484
30
0
10
1612.4624802917242
20
-424.29740786552429
30
0
0
SPLINE
5
196
100
AcDbEntity
8
0
100
AcDbSpline
70
0
71
3
72
9
73
5
74
0
42
0.000000001
43
0.0000000001
44
0.0000000001
40
0
40
0
40
0
40
0
40
0.097716013611422597
40
0.22024904486894878
40
0.22024904486894878
40
0.22024904486894878
40
0.22024904486894878
10
1612.4624802917242
20
-424.29740786552429
30
0
10
1612.2859897798228
20
-424.57783995251981
30
0
10
1611.8881853132043
20
-425.2099256980249
30
0
10
1611.8671118762641
20
-425.96038796918208
30
0
10
1611.8553879112005
20
-426.37789905071259
30
0
0
SPLINE
5
197
100
AcDbEntity
8
0
100
AcDbSpline
70
0
71
3
72
9
73
5
74
0
42
0.000000001
43
0.0000000001
44
0.0000000001
40
0
40
0
40
0
40
0
40
0.12261752131721844
40
0.22056012487332635
40
0.22056012487332635
40
0.22056012487332635
40
0.22056012487332635
10
1611.8553879112005
20
-426.37789905071259
30
0
10
1611.8672246371448
20
-426.79563062835376
30
0
10
1611.8885161273356
20
-427.54703163481929
30
0
10
1612.2859808787198
20
-428.18050063307112
30
0
10
1612.4624802917242
20
-428.46180081367493
30
0
0
SPLINE
5
198
100
AcDbEntity
8
0
100
AcDbSpline
70
0
71
3
72
9
73
5
74
0
42
0.000000001
43
0.0000000001
44
0.0000000001
40
0
40
0
40
0
40
0
40
0.086000367536698041
40
0.17200299895560411
40
0.17200299895560411
40
0.17200299895560411
40
0.17200299895560411
10
1612.4624802917242
20
-428.46180081367493
30
0
10
1612.6779213134635
20
-428.66373956202204
30
0
10
1613.1088090282328
20
-429.06762237457178
30
0
10
1613.6965655939025
20
-429.1253146816299
30
0
10
1613.9904477447271
20
-429.15416121482849
30
0
0
SPLINE
5
199
100
AcDbEntity
8
0
100
AcDbSpline
70
0
71
3
72
9
73
5
74
0
42
0.000000001
43
0.0000000001
44
0.0000000001
40
0
40
0
40
0
40
0
40
0.08551906995155166
40
0.1715383020891168
40
0.1715383020891168
40
0.1715383020891168
40
0.1715383020891168
10
1613.9904477447271
20
-429.15416121482849
30
0
10
1614.2826357061178
20
-429.12483396785149
30
0
10
1614.8687205035346
20
-429.06600795215417
30
0
10
1615.2968867212642
20
-428.6613227944153
30
0
10
1615.511594042182
20
-428.45839023590088
30
0
0
SPLINE
5
200
100
AcDbEntity
8
0
100
AcDbSpline
70
0
71
3
72
9
73
5
74
0
42
0.000000001
43
0.0000000001
44
0.0000000001
40
0
40
0
40
0
40
0
40
0.098925298271820464
40
0.22416623624676835
40
0.22416623624676835
40
0.22416623624676835
40
0.22416623624676835
10
1615.511594042182
20
-428.45839023590088
30
0
10
1615.6880388344739
20
-428.17327242981327
30
0
10
1616.0878654277158
20
-427.52719112812264
30
0
10
1616.1076405251035
20
-426.7635918970953
30
0
10
1616.1186888068914
20
-426.33697152137756
30
0
0
SPLINE
5
201
100
AcDbEntity
8
0
100
AcDbSpline
70
0
71
3
72
9
73
5
74
0
42
0.000000001
43
0.0000000001
44
0.0000000001
40
0
40
0
40
0
40
0
40
0.11907568851683492
40
0.21608344532109036
40
0.21608344532109036
40
0.21608344532109036
40
0.21608344532109036
10
1616.1186888068914
20
-426.33697152137756
30
0
10
1616.1054155559414
20
-425.93127972241433
30
0
10
1616.081328944882
20
-425.19508173985059
30
0
10
1615.6857669116507
20
-424.57789577987637
30
0
10
1615.5081846565008
20
-424.30081844329834
30
0
0
SPLINE
5
202
100
AcDbEntity
8
0
100
AcDbSpline
70
0
71
3
72
9
73
5
74
0
42
0.000000001
43
0.0000000001
44
0.0000000001
40
0
40
0
40
0
40
0
40
0.085932308409414335
40
0.17101664847496173
40
0.17101664847496173
40
0.17101664847496173
40
0.17101664847496173
10
1615.5081846565008
20
-424.30081844329834
30
0
10
1615.2930764776067
20
-424.09888141854395
30
0
10
1614.8649827781016
20
-423.69700005615863
30
0
10
1614.280994206898
20
-423.63787432387551
30
0
10
1613.9904477447271
20
-423.60845804214478
30
0
0
ENDSEC
0
SECTION
2
OBJECTS
0
DICTIONARY
5
C
100
AcDbDictionary
3
ACAD_GROUP
350
D
3
ACAD_MLINESTYLE
350
17
0
DICTIONARY
5
D
100
AcDbDictionary
0
DICTIONARY
5
1A
330
C
100
AcDbDictionary
0
DICTIONARY
5
17
100
AcDbDictionary
0
ENDSEC
0
EOF
