0
SECTION
2
HEADER
9
$INSUNITS
70
4
9
$ACADVER
1
AC1014
9
$HANDSEED
5
FFFF
0
ENDSEC
0
SECTION
2
TABLES
0
TABLE
2
VPORT
5
8
100
AcDbSymbolTable
0
ENDTAB
0
TABLE
2
LTYPE
5
5
100
AcDbSymbolTable
0
LTYPE
5
14
100
AcDbSymbolTableRecord
100
AcDbLinetypeTableRecord
2
BYBLOCK
70
0
0
LTYPE
5
15
100
AcDbSymbolTableRecord
100
AcDbLinetypeTableRecord
2
BYLAYER
70
0
0
LTYPE
5
16
100
AcDbSymbolTableRecord
100
AcDbLinetypeTableRecord
2
DASHED
70
0
3
Dashed __ __ __ __ __ __ __ __ __ __ __ __ __ _
72
65
73
2
40
0.75
49
0.5
74
0
49
-0.25
74
0
0
ENDTAB
0
TABLE
2
LAYER
5
2
100
AcDbSymbolTable
70
2
0
LAYER
5
50
100
AcDbSymbolTableRecord
100
AcDbLayerTableRecord
2
0
70
0
62
7
6
CONTINUOUS
0
ENDTAB
0
TABLE
2
STYLE
5
3
100
AcDbSymbolTable
70
1
0
STYLE
5
11
100
AcDbSymbolTableRecord
100
AcDbTextStyleTableRecord
2
STANDARD
70
0
0
ENDTAB
0
TABLE
2
VIEW
5
6
100
AcDbSymbolTable
70
0
0
ENDTAB
0
TABLE
2
UCS
5
7
100
AcDbSymbolTable
70
0
0
ENDTAB
0
TABLE
2
APPID
5
9
100
AcDbSymbolTable
70
2
0
APPID
5
12
100
AcDbSymbolTableRecord
100
AcDbRegAppTableRecord
2
ACAD
70
0
0
ENDTAB
0
TABLE
2
DIMSTYLE
5
A
100
AcDbSymbolTable
70
1
0
ENDTAB
0
TABLE
2
BLOCK_RECORD
5
1
100
AcDbSymbolTable
70
1
0
BLOCK_RECORD
5
1F
100
AcDbSymbolTableRecord
100
AcDbBlockTableRecord
2
*MODEL_SPACE
0
BLOCK_RECORD
5
1B
100
AcDbSymbolTableRecord
100
AcDbBlockTableRecord
2
*PAPER_SPACE
0
ENDTAB
0
ENDSEC
0
SECTION
2
BLOCKS
0
BLOCK
5
20
100
AcDbEntity
100
AcDbBlockBegin
2
*MODEL_SPACE
0
ENDBLK
5
21
100
AcDbEntity
100
AcDbBlockEnd
0
BLOCK
5
1C
100
AcDbEntity
100
AcDbBlockBegin
2
*PAPER_SPACE
0
ENDBLK
5
1D
100
AcDbEntity
100
AcDbBlockEnd
0
ENDSEC
0
SECTION
2
ENTITIES
0
LWPOLYLINE
5
100
100
AcDbEntity
8
0
100
AcDbPolyline
90
8
70
1
43
0.0
10
788
20
-777.99999999999932
10
950
20
-777.99999999999932
42
-0.41421356237310336
10
960
20
-787.99999999999932
10
960
20
-949.99999999999909
42
-0.41421356237310336
10
950
20
-959.99999999999909
10
788
20
-959.99999999999909
42
-0.41421356237310336
10
778
20
-949.99999999999909
10
778
20
-787.99999999999932
42
-0.41421356237310336
0
LWPOLYLINE
5
101
100
AcDbEntity
8
0
100
AcDbPolyline
90
51
70
1
43
0.0
10
778
20
-564.97587950662376
10
768.68776629380829
20
-564.97587950644913
42
-0.43016658931963814
10
766.58071032504483
20
-562.02004420442222
10
767.80920817101332
20
-555.74006064865182
42
0.47199600207827297
10
765.35571220912152
20
-552.76010485285792
10
754.72402595916242
20
-552.76010485297786
42
0.48583223003248077
10
752.19743937530507
20
-555.97358690998567
10
753.63717946057716
20
-561.90306429624491
42
-0.48563790824508324
10
751.2093415445845
20
-564.99295039513026
10
741
20
-564.99937109554128
10
741
20
-703.9999999999992
42
-0.41421356237310336
10
731
20
-713.9999999999992
10
709.91108800512393
20
-713.9999999999992
10
709.99161856353976
20
-737.13484863080009
42
0.48469781703562514
10
713.08102386344433
20
-739.55566969813185
10
719.03430923839221
20
-738.11135833925573
42
-0.48583223003249509
10
722.12372963842188
20
-740.54136133475163
10
722.12169346657333
20
-751.15348527052163
42
-0.47199600207898829
10
719.14126696788367
20
-753.60640941648376
10
712.96151548709463
20
-752.39628794436248
42
0.43016658931963359
10
710.00527595394306
20
-754.5027767316202
10
710.00076748897754
20
-777.99999999999932
10
731
20
-777.99999999999932
42
-0.41421356237310336
10
741
20
-787.99999999999932
10
741
20
-949.99999999999909
42
-0.41421356237310336
10
731
20
-959.99999999999909
10
709.94937812565638
20
-959.99999999999898
10
709.99161856353965
20
-972.13484863079987
42
0.4846978170356252
10
713.08102386344433
20
-974.55566969813162
10
719.03430923839221
20
-973.1113583392555
42
-0.48583223003249509
10
722.12372963842188
20
-975.5413613347514
10
722.12169346657333
20
-986.15348527052129
42
-0.47199600207898829
10
719.14126696788367
20
-988.60640941648342
10
712.96151548709463
20
-987.39628794436214
42
0.43016658931963359
10
710.00527595394306
20
-989.50277673161986
10
710.00326182815456
20
-999.99999999999886
10
1000
20
-999.99999999999886
10
1000.0000000000005
20
-564.97587950666127
10
988.68776629380829
20
-564.97587950644913
42
-0.43016658931963814
10
986.58071032504483
20
-562.02004420442222
10
987.80920817101833
20
-555.74006064862624
42
0.47199600207900277
10
985.3557122091205
20
-552.76010485283234
10
974.72402595915003
20
-552.76010485297786
42
0.48583223003101134
10
972.19743937530507
20
-555.97358690998567
10
973.63717946057727
20
-561.90306429624502
42
-0.48563790824509667
10
971.20934154458439
20
-564.99295039513026
10
960
20
-564.99999999999932
10
960
20
-703.9999999999992
42
-0.41421356237310336
10
950
20
-713.9999999999992
10
788
20
-713.9999999999992
42
-0.41421356237310336
10
778
20
-703.9999999999992
0
LWPOLYLINE
5
102
100
AcDbEntity
8
0
100
AcDbPolyline
90
4
70
1
43
0.0
10
844
20
-749.04999999999916
10
844
20
-742.94999999999914
10
894
20
-742.94999999999914
10
894
20
-749.04999999999916
0
LWPOLYLINE
5
103
100
AcDbEntity
8
0
100
AcDbPolyline
90
4
70
1
43
0.0
10
756.44999999999993
20
-597.99999999999943
10
762.54999999999995
20
-597.99999999999943
10
762.54999999999995
20
-647.99999999999932
10
756.44999999999993
20
-647.99999999999932
0
LWPOLYLINE
5
104
100
AcDbEntity
8
0
100
AcDbPolyline
90
4
70
1
43
0.0
10
756.44999999999993
20
-843.99999999999909
10
762.54999999999995
20
-843.99999999999909
10
762.54999999999995
20
-893.99999999999909
10
756.44999999999993
20
-893.99999999999909
0
ENDSEC
0
SECTION
2
OBJECTS
0
DICTIONARY
5
C
100
AcDbDictionary
3
ACAD_GROUP
350
D
3
ACAD_MLINESTYLE
350
17
0
DICTIONARY
5
D
100
AcDbDictionary
0
DICTIONARY
5
1A
330
C
100
AcDbDictionary
0
DICTIONARY
5
17
100
AcDbDictionary
0
ENDSEC
0
EOF
