0
SECTION
2
HEADER
9
$INSUNITS
70
4
9
$ACADVER
1
AC1014
9
$HANDSEED
5
FFFF
0
ENDSEC
0
SECTION
2
TABLES
0
TABLE
2
VPORT
5
8
100
AcDbSymbolTable
0
ENDTAB
0
TABLE
2
LTYPE
5
5
100
AcDbSymbolTable
0
LTYPE
5
14
100
AcDbSymbolTableRecord
100
AcDbLinetypeTableRecord
2
BYBLOCK
70
0
0
LTYPE
5
15
100
AcDbSymbolTableRecord
100
AcDbLinetypeTableRecord
2
BYLAYER
70
0
0
LTYPE
5
16
100
AcDbSymbolTableRecord
100
AcDbLinetypeTableRecord
2
DASHED
70
0
3
Dashed __ __ __ __ __ __ __ __ __ __ __ __ __ _
72
65
73
2
40
0.75
49
0.5
74
0
49
-0.25
74
0
0
ENDTAB
0
TABLE
2
LAYER
5
2
100
AcDbSymbolTable
70
2
0
LAYER
5
50
100
AcDbSymbolTableRecord
100
AcDbLayerTableRecord
2
0
70
0
62
7
6
CONTINUOUS
0
ENDTAB
0
TABLE
2
STYLE
5
3
100
AcDbSymbolTable
70
1
0
STYLE
5
11
100
AcDbSymbolTableRecord
100
AcDbTextStyleTableRecord
2
STANDARD
70
0
0
ENDTAB
0
TABLE
2
VIEW
5
6
100
AcDbSymbolTable
70
0
0
ENDTAB
0
TABLE
2
UCS
5
7
100
AcDbSymbolTable
70
0
0
ENDTAB
0
TABLE
2
APPID
5
9
100
AcDbSymbolTable
70
2
0
APPID
5
12
100
AcDbSymbolTableRecord
100
AcDbRegAppTableRecord
2
ACAD
70
0
0
ENDTAB
0
TABLE
2
DIMSTYLE
5
A
100
AcDbSymbolTable
70
1
0
ENDTAB
0
TABLE
2
BLOCK_RECORD
5
1
100
AcDbSymbolTable
70
1
0
BLOCK_RECORD
5
1F
100
AcDbSymbolTableRecord
100
AcDbBlockTableRecord
2
*MODEL_SPACE
0
BLOCK_RECORD
5
1B
100
AcDbSymbolTableRecord
100
AcDbBlockTableRecord
2
*PAPER_SPACE
0
ENDTAB
0
ENDSEC
0
SECTION
2
BLOCKS
0
BLOCK
5
20
100
AcDbEntity
100
AcDbBlockBegin
2
*MODEL_SPACE
0
ENDBLK
5
21
100
AcDbEntity
100
AcDbBlockEnd
0
BLOCK
5
1C
100
AcDbEntity
100
AcDbBlockBegin
2
*PAPER_SPACE
0
ENDBLK
5
1D
100
AcDbEntity
100
AcDbBlockEnd
0
ENDSEC
0
SECTION
2
ENTITIES
0
LWPOLYLINE
5
100
100
AcDbEntity
8
0
100
AcDbPolyline
90
65
70
1
43
0.0
10
988.68776629380829
20
-564.97587950644913
10
1000
20
-564.97587950666127
10
1000
20
0
10
709.95285904570483
20
0
10
709.99161856353976
20
-11.13484863080085
42
0.4846978170355884
10
713.08102386344433
20
-13.555669698132709
10
719.03430923839221
20
-12.111358339256615
42
-0.48583223003249854
10
722.12372963842188
20
-14.541361334752462
10
722.12169346657333
20
-25.153485270522395
42
-0.47199600207897802
10
719.14126696788367
20
-27.606409416484464
10
712.96151548709463
20
-26.396287944363156
42
0.43016658931964297
10
710.00527595394306
20
-28.502776731621008
10
710.00306995591018
20
-39.999999999999943
10
731
20
-39.999999999999964
42
-0.41421356237310231
10
741
20
-49.999999999999929
10
741
20
-211.99999999999977
42
-0.41421356237310025
10
731
20
-221.99999999999974
10
709.90760708507548
20
-221.99999999999974
10
709.99161856353976
20
-246.13484863080058
42
0.48469781703561637
10
713.08102386344433
20
-248.55566969813228
10
719.03430923839221
20
-247.11135833925636
42
-0.48583223003249848
10
722.12372963842188
20
-249.5413613347522
10
722.12169346657333
20
-260.15348527052214
42
-0.47199600207897796
10
719.14126696788367
20
-262.60640941648421
10
712.96151548709463
20
-261.39628794436294
42
0.4301665893196569
10
710.00527595394306
20
-263.50277673162071
10
710.00095936122193
20
-285.99999999999972
10
731
20
-285.99999999999977
42
-0.41421356237310125
10
741
20
-295.99999999999972
10
741
20
-457.99999999999949
42
-0.41421356237310125
10
731
20
-467.99999999999949
10
709.91108800512393
20
-467.99999999999949
10
709.99161856353976
20
-491.13484863080038
42
0.48469781703561637
10
713.08102386344433
20
-493.55566969813208
10
719.03430923839221
20
-492.11135833925607
42
-0.48583223003249509
10
722.12372963842188
20
-494.54136133475185
10
722.12169346657333
20
-505.15348527052186
42
-0.47199600207898829
10
719.14126696788367
20
-507.60640941648387
10
712.96151548709463
20
-506.3962879443626
42
0.43016658931964191
10
710.00527595394306
20
-508.50277673162049
10
710.00076748897754
20
-531.99999999999943
10
731
20
-531.99999999999943
42
-0.41421356237310336
10
741
20
-541.99999999999943
10
741
20
-564.99937109554139
10
751.31223146908064
20
-564.99288568719794
42
0.48563790824510567
10
753.74006938507375
20
-561.90299958831292
10
752.2946157823767
20
-555.94999144625581
42
-0.48583223003248344
10
754.72402595916355
20
-552.86010485297788
10
765.33615009027596
20
-552.86010485288352
42
-0.47199600207899089
10
767.78964605217402
20
-555.84006064867754
10
766.58071032504472
20
-562.02004420442222
42
0.43016658931972002
10
768.68776629380864
20
-564.97587950644902
10
778
20
-564.97587950662376
10
778
20
-541.99999999999943
42
-0.41421356237310125
10
788
20
-531.99999999999943
10
950
20
-531.99999999999943
42
-0.41421356237310336
10
960
20
-541.99999999999943
10
960
20
-564.99999999999943
10
971.31223146908087
20
-564.99288568719794
42
0.48563790824508812
10
973.74006938507375
20
-561.90299958831292
10
972.2946157823767
20
-555.94999144625592
42
-0.48583223003099041
10
974.72402595915139
20
-552.86010485297788
10
985.33615009026391
20
-552.86010485288375
42
-0.47199600208045389
10
987.78964605217368
20
-555.84006064867754
10
986.58071032504472
20
-562.02004420442222
42
0.430166589319669
0
LWPOLYLINE
5
101
100
AcDbEntity
8
0
100
AcDbPolyline
90
4
70
1
43
0.0
10
756.44999999999993
20
-351.9999999999996
10
762.54999999999995
20
-351.9999999999996
10
762.54999999999995
20
-401.99999999999955
10
756.44999999999993
20
-401.9999999999996
0
LWPOLYLINE
5
102
100
AcDbEntity
8
0
100
AcDbPolyline
90
4
70
1
43
0.0
10
844
20
-503.04999999999944
10
844
20
-496.94999999999942
10
894
20
-496.94999999999942
10
894
20
-503.04999999999944
0
LWPOLYLINE
5
103
100
AcDbEntity
8
0
100
AcDbPolyline
90
4
70
1
43
0.0
10
844
20
-257.04999999999973
10
844
20
-250.9499999999997
10
894
20
-250.9499999999997
10
894
20
-257.04999999999973
0
LWPOLYLINE
5
104
100
AcDbEntity
8
0
100
AcDbPolyline
90
4
70
1
43
0.0
10
756.44999999999993
20
-105.99999999999987
10
762.54999999999995
20
-105.99999999999987
10
762.54999999999995
20
-155.99999999999983
10
756.44999999999993
20
-155.99999999999983
0
LWPOLYLINE
5
105
100
AcDbEntity
8
0
100
AcDbPolyline
90
8
70
1
43
0.0
10
788
20
-285.99999999999972
10
950
20
-285.99999999999977
42
-0.41421356237310125
10
960
20
-295.99999999999972
10
960
20
-457.99999999999949
42
-0.41421356237310125
10
950
20
-467.99999999999949
10
788.00000000000011
20
-467.99999999999943
42
-0.41421356237310125
10
778
20
-457.99999999999949
10
777.99999999999977
20
-295.99999999999972
42
-0.41421356237310125
0
LWPOLYLINE
5
106
100
AcDbEntity
8
0
100
AcDbPolyline
90
8
70
1
43
0.0
10
788
20
-39.999999999999957
10
950
20
-39.999999999999964
42
-0.41421356237310231
10
960
20
-49.999999999999929
10
960
20
-211.99999999999977
42
-0.41421356237310025
10
950
20
-221.99999999999974
10
788.00000000000011
20
-221.99999999999966
42
-0.41421356237310125
10
778
20
-211.99999999999974
10
778
20
-49.999999999999929
42
-0.41421356237310203
0
ENDSEC
0
SECTION
2
OBJECTS
0
DICTIONARY
5
C
100
AcDbDictionary
3
ACAD_GROUP
350
D
3
ACAD_MLINESTYLE
350
17
0
DICTIONARY
5
D
100
AcDbDictionary
0
DICTIONARY
5
1A
330
C
100
AcDbDictionary
0
DICTIONARY
5
17
100
AcDbDictionary
0
ENDSEC
0
EOF
