0
SECTION
2
HEADER
9
$INSUNITS
70
4
9
$ACADVER
1
AC1014
9
$HANDSEED
5
FFFF
0
ENDSEC
0
SECTION
2
TABLES
0
TABLE
2
VPORT
5
8
100
AcDbSymbolTable
0
ENDTAB
0
TABLE
2
LTYPE
5
5
100
AcDbSymbolTable
0
LTYPE
5
14
100
AcDbSymbolTableRecord
100
AcDbLinetypeTableRecord
2
BYBLOCK
70
0
0
LTYPE
5
15
100
AcDbSymbolTableRecord
100
AcDbLinetypeTableRecord
2
BYLAYER
70
0
0
LTYPE
5
16
100
AcDbSymbolTableRecord
100
AcDbLinetypeTableRecord
2
DASHED
70
0
3
Dashed __ __ __ __ __ __ __ __ __ __ __ __ __ _
72
65
73
2
40
0.75
49
0.5
74
0
49
-0.25
74
0
0
ENDTAB
0
TABLE
2
LAYER
5
2
100
AcDbSymbolTable
70
2
0
LAYER
5
50
100
AcDbSymbolTableRecord
100
AcDbLayerTableRecord
2
0
70
0
62
7
6
CONTINUOUS
0
ENDTAB
0
TABLE
2
STYLE
5
3
100
AcDbSymbolTable
70
1
0
STYLE
5
11
100
AcDbSymbolTableRecord
100
AcDbTextStyleTableRecord
2
STANDARD
70
0
0
ENDTAB
0
TABLE
2
VIEW
5
6
100
AcDbSymbolTable
70
0
0
ENDTAB
0
TABLE
2
UCS
5
7
100
AcDbSymbolTable
70
0
0
ENDTAB
0
TABLE
2
APPID
5
9
100
AcDbSymbolTable
70
2
0
APPID
5
12
100
AcDbSymbolTableRecord
100
AcDbRegAppTableRecord
2
ACAD
70
0
0
ENDTAB
0
TABLE
2
DIMSTYLE
5
A
100
AcDbSymbolTable
70
1
0
ENDTAB
0
TABLE
2
BLOCK_RECORD
5
1
100
AcDbSymbolTable
70
1
0
BLOCK_RECORD
5
1F
100
AcDbSymbolTableRecord
100
AcDbBlockTableRecord
2
*MODEL_SPACE
0
BLOCK_RECORD
5
1B
100
AcDbSymbolTableRecord
100
AcDbBlockTableRecord
2
*PAPER_SPACE
0
ENDTAB
0
ENDSEC
0
SECTION
2
BLOCKS
0
BLOCK
5
20
100
AcDbEntity
100
AcDbBlockBegin
2
*MODEL_SPACE
0
ENDBLK
5
21
100
AcDbEntity
100
AcDbBlockEnd
0
BLOCK
5
1C
100
AcDbEntity
100
AcDbBlockBegin
2
*PAPER_SPACE
0
ENDBLK
5
1D
100
AcDbEntity
100
AcDbBlockEnd
0
ENDSEC
0
SECTION
2
ENTITIES
0
LWPOLYLINE
5
100
100
AcDbEntity
8
0
100
AcDbPolyline
90
62
70
1
43
0.0
10
367.01698981355895
20
-28.6801589287704
10
367.05856498584859
20
-39.999999999999972
10
511.99999999999994
20
-39.999999999999865
42
-0.4142135623730927
10
522
20
-49.999999999999929
10
521.99999999999989
20
-211.99999999999977
42
-0.41421356237309087
10
511.99999999999994
20
-221.99999999999974
10
366.99999999997533
20
-221.99999999999974
10
366.9999999997878
20
-246.31223370619182
42
-0.43016658931964552
10
364.04416469776066
20
-248.41928967495548
10
357.86418114201609
20
-247.21035394782632
42
0.47199600207899944
10
354.88422534622202
20
-249.66384990972429
10
354.88422534632917
20
-260.27597404083667
42
0.48583223003246928
10
357.97411193959141
20
-262.70538421761091
10
363.92712008165154
20
-261.25993061492642
42
-0.48469782468394468
10
367.01698981355895
20
-263.68015892877008
10
367.09896545545837
20
-285.99999999999966
10
511.99999999999989
20
-285.99999999999966
42
-0.41421356237309193
10
522
20
-295.99999999999972
10
522
20
-429.97587950649279
10
531.00000000000045
20
-429.9758795066615
42
-0.43016658931964652
10
533.10705596876414
20
-432.93171480868841
10
531.89812024163507
20
-439.1116983644331
42
0.4719960020782541
10
534.35161620352687
20
-442.09165416022699
10
544.96374033464531
20
-442.09165416013275
42
0.48583223003250697
10
547.39315051143194
20
-439.00176756685482
10
545.94769690873522
20
-433.04875942479777
42
-0.4856379082450708
10
548.37553482472811
20
-429.95887332591269
10
558.99999999999989
20
-429.9521915523996
10
558.99999999999989
20
-295.99999999999966
42
-0.41421356237309293
10
568.99999999999989
20
-285.99999999999972
10
710.00095936122193
20
-285.99999999999972
10
710.00527595394306
20
-263.50277673162077
42
-0.43016658931963198
10
712.96151548709463
20
-261.39628794436294
10
719.14126696788367
20
-262.60640941648421
42
0.47199600207899317
10
722.12169346657322
20
-260.15348527052214
10
722.12372963842188
20
-249.5413613347522
42
0.48583223003251014
10
719.03430923839221
20
-247.1113583392563
10
713.08102386344433
20
-248.55566969813231
42
-0.48469781703562076
10
709.99161856353976
20
-246.13484863080058
10
709.90760708507548
20
-221.99999999999977
10
568.99999999999989
20
-221.99999999999972
42
-0.41421356237309398
10
558.99999999999989
20
-211.99999999999974
10
558.99999999999989
20
-49.999999999999929
42
-0.41421356237309426
10
568.99999999999989
20
-39.999999999999957
10
710.00306995591018
20
-39.999999999999943
10
710.00527595394306
20
-28.502776731621019
42
-0.43016658931963442
10
712.96151548709463
20
-26.396287944363159
10
719.14126696788367
20
-27.606409416484464
42
0.47199600207901032
10
722.12169346657333
20
-25.153485270522395
10
722.12372963842188
20
-14.541361334752462
42
0.48583223003245962
10
719.03430923839221
20
-12.11135833925659
10
713.08102386344433
20
-13.555669698132595
42
-0.48469781703561821
10
709.99161856353976
20
-11.13484863080085
10
709.95285904570483
20
0
10
366.99999999987494
20
0
10
366.9999999997878
20
-11.312233706192092
42
-0.43016658931964535
10
364.04416469776066
20
-13.419289674955749
10
357.86418114201609
20
-12.21035394782659
42
0.47199600207900083
10
354.88422534622202
20
-14.66384990972456
10
354.88422534632917
20
-25.2759740408369
42
0.48583223003247067
10
357.97411193959141
20
-27.705384217611201
10
363.92712008165148
20
-26.259930614926684
42
-0.48469782468395867
0
LWPOLYLINE
5
101
100
AcDbEntity
8
0
100
AcDbPolyline
90
4
70
1
43
0.0
10
537.44999999999993
20
-351.9999999999996
10
543.54999999999995
20
-351.9999999999996
10
543.54999999999995
20
-401.99999999999955
10
537.44999999999993
20
-401.9999999999996
0
LWPOLYLINE
5
102
100
AcDbEntity
8
0
100
AcDbPolyline
90
4
70
1
43
0.0
10
537.44999999999993
20
-105.99999999999987
10
543.54999999999995
20
-105.99999999999987
10
543.54999999999995
20
-155.99999999999983
10
537.44999999999993
20
-155.99999999999983
0
LWPOLYLINE
5
103
100
AcDbEntity
8
0
100
AcDbPolyline
90
4
70
1
43
0.0
10
404
20
-257.04999999999973
10
404
20
-250.9499999999997
10
454
20
-250.9499999999997
10
454
20
-257.04999999999973
0
LWPOLYLINE
5
104
100
AcDbEntity
8
0
100
AcDbPolyline
90
4
70
1
43
0.0
10
624
20
-257.04999999999973
10
624
20
-250.9499999999997
10
674
20
-250.9499999999997
10
674
20
-257.04999999999973
0
ENDSEC
0
SECTION
2
OBJECTS
0
DICTIONARY
5
C
100
AcDbDictionary
3
ACAD_GROUP
350
D
3
ACAD_MLINESTYLE
350
17
0
DICTIONARY
5
D
100
AcDbDictionary
0
DICTIONARY
5
1A
330
C
100
AcDbDictionary
0
DICTIONARY
5
17
100
AcDbDictionary
0
ENDSEC
0
EOF
