0
SECTION
2
HEADER
9
$INSUNITS
70
4
9
$ACADVER
1
AC1014
9
$HANDSEED
5
FFFF
0
ENDSEC
0
SECTION
2
TABLES
0
TABLE
2
VPORT
5
8
100
AcDbSymbolTable
0
ENDTAB
0
TABLE
2
LTYPE
5
5
100
AcDbSymbolTable
0
LTYPE
5
14
100
AcDbSymbolTableRecord
100
AcDbLinetypeTableRecord
2
BYBLOCK
70
0
0
LTYPE
5
15
100
AcDbSymbolTableRecord
100
AcDbLinetypeTableRecord
2
BYLAYER
70
0
0
LTYPE
5
16
100
AcDbSymbolTableRecord
100
AcDbLinetypeTableRecord
2
DASHED
70
0
3
Dashed __ __ __ __ __ __ __ __ __ __ __ __ __ _
72
65
73
2
40
0.75
49
0.5
74
0
49
-0.25
74
0
0
ENDTAB
0
TABLE
2
LAYER
5
2
100
AcDbSymbolTable
70
2
0
LAYER
5
50
100
AcDbSymbolTableRecord
100
AcDbLayerTableRecord
2
0
70
0
62
7
6
CONTINUOUS
0
ENDTAB
0
TABLE
2
STYLE
5
3
100
AcDbSymbolTable
70
1
0
STYLE
5
11
100
AcDbSymbolTableRecord
100
AcDbTextStyleTableRecord
2
STANDARD
70
0
0
ENDTAB
0
TABLE
2
VIEW
5
6
100
AcDbSymbolTable
70
0
0
ENDTAB
0
TABLE
2
UCS
5
7
100
AcDbSymbolTable
70
0
0
ENDTAB
0
TABLE
2
APPID
5
9
100
AcDbSymbolTable
70
2
0
APPID
5
12
100
AcDbSymbolTableRecord
100
AcDbRegAppTableRecord
2
ACAD
70
0
0
ENDTAB
0
TABLE
2
DIMSTYLE
5
A
100
AcDbSymbolTable
70
1
0
ENDTAB
0
TABLE
2
BLOCK_RECORD
5
1
100
AcDbSymbolTable
70
1
0
BLOCK_RECORD
5
1F
100
AcDbSymbolTableRecord
100
AcDbBlockTableRecord
2
*MODEL_SPACE
0
BLOCK_RECORD
5
1B
100
AcDbSymbolTableRecord
100
AcDbBlockTableRecord
2
*PAPER_SPACE
0
ENDTAB
0
ENDSEC
0
SECTION
2
BLOCKS
0
BLOCK
5
20
100
AcDbEntity
100
AcDbBlockBegin
2
*MODEL_SPACE
0
ENDBLK
5
21
100
AcDbEntity
100
AcDbBlockEnd
0
BLOCK
5
1C
100
AcDbEntity
100
AcDbBlockBegin
2
*PAPER_SPACE
0
ENDBLK
5
1D
100
AcDbEntity
100
AcDbBlockEnd
0
ENDSEC
0
SECTION
2
ENTITIES
0
LWPOLYLINE
5
100
100
AcDbEntity
8
0
100
AcDbPolyline
90
65
70
1
43
0.0
10
108.68774973318835
20
-564.97587718913098
10
120.99999999999994
20
-564.97587722181584
10
120.99999999999996
20
-541.99999999999943
42
-0.41421356237309243
10
130.99999999999994
20
-531.99999999999943
10
293
20
-531.99999999999943
42
-0.41421356237309398
10
303
20
-541.99999999999943
10
303
20
-564.9988464964232
10
312.47808391030946
20
-564.99288568719817
42
0.48563790824508296
10
314.90592182630246
20
-561.90299958831304
10
313.46046822361791
20
-555.94999144625297
42
-0.48583223003248344
10
315.88987840039226
20
-552.86010485299084
10
326.50200253150456
20
-552.86010485288375
42
-0.47199600207899089
10
328.95549849340256
20
-555.84006064867776
10
327.74656276627343
20
-562.02004420442233
42
0.4301665893196373
10
329.85361873503706
20
-564.97587950644947
10
340
20
-564.97587950663956
10
340
20
-541.99999999999943
42
-0.41421356237309293
10
350
20
-531.99999999999943
10
367.10263822542294
20
-531.99999999999943
10
367.01698981355895
20
-508.68015892876986
42
0.48469782468394573
10
363.92712008165154
20
-506.25993061492613
10
357.97411193959141
20
-507.70538421761057
42
-0.48583223003249193
10
354.88422534632917
20
-505.27597404083633
10
354.88422534622202
20
-494.66384990972404
42
-0.47199600207899944
10
357.86418114201609
20
-492.21035394782604
10
364.04416469776066
20
-493.41928967495517
42
0.43016658931964552
10
366.9999999997878
20
-491.31223370619153
10
366.9999999999676
20
-467.99999999999943
10
350
20
-467.99999999999943
42
-0.41421356237309293
10
340
20
-457.99999999999949
10
340
20
-295.99999999999972
42
-0.41421356237309398
10
350
20
-285.99999999999972
10
367.09896545545837
20
-285.99999999999972
10
367.01698981355895
20
-263.68015892877008
42
0.48469782468394468
10
363.92712008165154
20
-261.25993061492642
10
357.97411193959141
20
-262.70538421761091
42
-0.48583223003249193
10
354.88422534632917
20
-260.27597404083667
10
354.88422534622202
20
-249.66384990972429
42
-0.47199600207899944
10
357.86418114201609
20
-247.21035394782632
10
364.04416469776066
20
-248.41928967495548
42
0.43016658931963681
10
366.99999999978786
20
-246.31223370619182
10
366.99999999997533
20
-221.99999999999977
10
350
20
-221.99999999999972
42
-0.41421356237309398
10
340
20
-211.99999999999974
10
340
20
-49.999999999999929
42
-0.41421356237309426
10
350
20
-39.999999999999957
10
367.05856498584859
20
-39.999999999999957
10
367.01698981355895
20
-28.6801589287704
42
0.48469782468397471
10
363.92712008165148
20
-26.259930614926734
10
357.97411193959141
20
-27.705384217611165
42
-0.4858322300324921
10
354.88422534632917
20
-25.2759740408369
10
354.88422534622202
20
-14.66384990972456
42
-0.47199600207899944
10
357.86418114201609
20
-12.21035394782659
10
364.04416469776066
20
-13.419289674955747
42
0.43016658931963875
10
366.9999999997878
20
-11.312233706192089
10
366.99999999987494
20
0
10
76.999999999999886
20
0
10
76.999999999999886
20
-564.99999999999932
10
91.311901902339088
20
-564.99288587274123
42
0.48567863821733492
10
93.740069385073795
20
-561.90299958831281
10
92.294615782376781
20
-555.94999144625581
42
-0.48583223003248344
10
94.724025959163498
20
-552.86010485297788
10
105.33615009028195
20
-552.86010485288375
42
-0.47199600207826448
10
107.78964605217382
20
-555.84006064867754
10
106.58071032504466
20
-562.02004420442222
42
0.43016460769584847
0
LWPOLYLINE
5
101
100
AcDbEntity
8
0
100
AcDbPolyline
90
4
70
1
43
0.0
10
318.44999999999999
20
-351.9999999999996
10
324.54999999999984
20
-351.9999999999996
10
324.54999999999984
20
-401.99999999999955
10
318.44999999999999
20
-401.9999999999996
0
LWPOLYLINE
5
102
100
AcDbEntity
8
0
100
AcDbPolyline
90
4
70
1
43
0.0
10
318.44999999999999
20
-105.99999999999987
10
324.54999999999984
20
-105.99999999999987
10
324.54999999999984
20
-155.99999999999983
10
318.44999999999999
20
-155.99999999999983
0
LWPOLYLINE
5
103
100
AcDbEntity
8
0
100
AcDbPolyline
90
4
70
1
43
0.0
10
184.00000000000006
20
-503.04999999999944
10
184.00000000000006
20
-496.94999999999942
10
234.00000000000006
20
-496.94999999999942
10
234.00000000000006
20
-503.04999999999944
0
LWPOLYLINE
5
104
100
AcDbEntity
8
0
100
AcDbPolyline
90
4
70
1
43
0.0
10
184.00000000000006
20
-257.04999999999973
10
184.00000000000006
20
-250.9499999999997
10
234.00000000000006
20
-250.9499999999997
10
234.00000000000006
20
-257.04999999999973
0
LWPOLYLINE
5
105
100
AcDbEntity
8
0
100
AcDbPolyline
90
8
70
1
43
0.0
10
130.99999999999994
20
-285.99999999999972
10
293
20
-285.99999999999972
42
-0.41421356237309293
10
303
20
-295.99999999999972
10
303
20
-457.99999999999943
42
-0.41421356237309193
10
293
20
-467.99999999999949
10
130.99999999999994
20
-467.99999999999943
42
-0.41421356237309243
10
120.99999999999994
20
-457.99999999999949
10
120.99999999999996
20
-295.99999999999972
42
-0.41421356237309453
0
LWPOLYLINE
5
106
100
AcDbEntity
8
0
100
AcDbPolyline
90
8
70
1
43
0.0
10
130.99999999999994
20
-39.999999999999957
10
293
20
-39.999999999999936
42
-0.41421356237309476
10
303
20
-49.999999999999929
10
303
20
-211.99999999999977
42
-0.41421356237309193
10
293
20
-221.99999999999974
10
130.99999999999994
20
-221.99999999999974
42
-0.41421356237309453
10
120.99999999999994
20
-211.99999999999974
10
120.99999999999994
20
-49.999999999999929
42
-0.41421356237309553
0
ENDSEC
0
SECTION
2
OBJECTS
0
DICTIONARY
5
C
100
AcDbDictionary
3
ACAD_GROUP
350
D
3
ACAD_MLINESTYLE
350
17
0
DICTIONARY
5
D
100
AcDbDictionary
0
DICTIONARY
5
1A
330
C
100
AcDbDictionary
0
DICTIONARY
5
17
100
AcDbDictionary
0
ENDSEC
0
EOF
