0
SECTION
2
HEADER
9
$INSUNITS
70
4
9
$ACADVER
1
AC1014
9
$HANDSEED
5
FFFF
0
ENDSEC
0
SECTION
2
TABLES
0
TABLE
2
VPORT
5
8
100
AcDbSymbolTable
0
ENDTAB
0
TABLE
2
LTYPE
5
5
100
AcDbSymbolTable
0
LTYPE
5
14
100
AcDbSymbolTableRecord
100
AcDbLinetypeTableRecord
2
BYBLOCK
70
0
0
LTYPE
5
15
100
AcDbSymbolTableRecord
100
AcDbLinetypeTableRecord
2
BYLAYER
70
0
0
LTYPE
5
16
100
AcDbSymbolTableRecord
100
AcDbLinetypeTableRecord
2
DASHED
70
0
3
Dashed __ __ __ __ __ __ __ __ __ __ __ __ __ _
72
65
73
2
40
0.75
49
0.5
74
0
49
-0.25
74
0
0
ENDTAB
0
TABLE
2
LAYER
5
2
100
AcDbSymbolTable
70
2
0
LAYER
5
50
100
AcDbSymbolTableRecord
100
AcDbLayerTableRecord
2
0
70
0
62
7
6
CONTINUOUS
0
ENDTAB
0
TABLE
2
STYLE
5
3
100
AcDbSymbolTable
70
1
0
STYLE
5
11
100
AcDbSymbolTableRecord
100
AcDbTextStyleTableRecord
2
STANDARD
70
0
0
ENDTAB
0
TABLE
2
VIEW
5
6
100
AcDbSymbolTable
70
0
0
ENDTAB
0
TABLE
2
UCS
5
7
100
AcDbSymbolTable
70
0
0
ENDTAB
0
TABLE
2
APPID
5
9
100
AcDbSymbolTable
70
2
0
APPID
5
12
100
AcDbSymbolTableRecord
100
AcDbRegAppTableRecord
2
ACAD
70
0
0
ENDTAB
0
TABLE
2
DIMSTYLE
5
A
100
AcDbSymbolTable
70
1
0
ENDTAB
0
TABLE
2
BLOCK_RECORD
5
1
100
AcDbSymbolTable
70
1
0
BLOCK_RECORD
5
1F
100
AcDbSymbolTableRecord
100
AcDbBlockTableRecord
2
*MODEL_SPACE
0
BLOCK_RECORD
5
1B
100
AcDbSymbolTableRecord
100
AcDbBlockTableRecord
2
*PAPER_SPACE
0
ENDTAB
0
ENDSEC
0
SECTION
2
BLOCKS
0
BLOCK
5
20
100
AcDbEntity
100
AcDbBlockBegin
2
*MODEL_SPACE
0
ENDBLK
5
21
100
AcDbEntity
100
AcDbBlockEnd
0
BLOCK
5
1C
100
AcDbEntity
100
AcDbBlockBegin
2
*PAPER_SPACE
0
ENDBLK
5
1D
100
AcDbEntity
100
AcDbBlockEnd
0
ENDSEC
0
SECTION
2
ENTITIES
0
SPLINE
5
100
100
AcDbEntity
8
0
100
AcDbSpline
70
0
71
3
72
9
73
5
74
0
42
0.000000001
43
0.0000000001
44
0.0000000001
40
0
40
0
40
0
40
0
40
0.11805936633628601
40
0.22016130543861195
40
0.22016130543861195
40
0.22016130543861195
40
0.22016130543861195
10
691.28581292927265
20
-432.93997287750244
30
0
10
690.88592904976872
20
-432.92354324983421
30
0
10
690.14021136833867
20
-432.8929046957951
30
0
10
689.49220108032682
20
-432.52662097478236
30
0
10
689.19168002903461
20
-432.3567533493042
30
0
0
SPLINE
5
101
100
AcDbEntity
8
0
100
AcDbSpline
70
0
71
3
72
9
73
5
74
0
42
0.000000001
43
0.0000000001
44
0.0000000001
40
0
40
0
40
0
40
0
40
0.094028060323093729
40
0.19815426624235905
40
0.19815426624235905
40
0.19815426624235905
40
0.19815426624235905
10
689.19168002903461
20
-432.3567533493042
30
0
10
688.96042030399815
20
-432.12864191751464
30
0
10
688.47306471069385
20
-431.64792102172635
30
0
10
688.43885282585632
20
-430.96115550613422
30
0
10
688.42087514698505
20
-430.60027360916138
30
0
0
LINE
5
102
100
AcDbEntity
8
0
100
AcDbLine
10
688.42087514698505
20
-430.60027360916138
30
0
11
689.61459882557392
21
-430.77762603759766
31
0
0
SPLINE
5
103
100
AcDbEntity
8
0
100
AcDbSpline
70
0
71
3
72
9
73
5
74
0
42
0.000000001
43
0.0000000001
44
0.0000000001
40
0
40
0
40
0
40
0
40
0.049802619758464749
40
0.092532902191011082
40
0.092532902191011082
40
0.092532902191011082
40
0.092532902191011082
10
689.61459882557392
20
-430.77762603759766
30
0
10
689.64577129466488
20
-430.94538930409885
30
0
10
689.70368951357455
20
-431.2570922226538
30
0
10
689.92739504806059
20
-431.47972805768001
30
0
10
690.03069885075092
20
-431.58253788948059
30
0
0
SPLINE
5
104
100
AcDbEntity
8
0
100
AcDbSpline
70
0
71
3
72
9
73
5
74
0
42
0.000000001
43
0.0000000001
44
0.0000000001
40
0
40
0
40
0
40
0
40
0.059805131120822613
40
0.13108766755001455
40
0.13108766755001455
40
0.13108766755001455
40
0.13108766755001455
10
690.03069885075092
20
-431.58253788948059
30
0
10
690.20685098867273
20
-431.68181461445852
30
0
10
690.5929612180355
20
-431.89942059701337
30
0
10
691.03734553768845
20
-431.91508414235471
30
0
10
691.27899177372456
20
-431.92360162734985
30
0
0
SPLINE
5
105
100
AcDbEntity
8
0
100
AcDbSpline
70
0
71
3
72
9
73
5
74
0
42
0.000000001
43
0.0000000001
44
0.0000000001
40
0
40
0
40
0
40
0
40
0.076025458739256521
40
0.13768668619696289
40
0.13768668619696289
40
0.13768668619696289
40
0.13768668619696289
10
691.27899177372456
20
-431.92360162734985
30
0
10
691.53667386911889
20
-431.91635654109371
30
0
10
692.00335166883872
20
-431.90323525337817
30
0
10
692.4123405590467
20
-431.68173427803487
30
0
10
692.59550102055073
20
-431.58253788948059
30
0
0
SPLINE
5
106
100
AcDbEntity
8
0
100
AcDbSpline
70
0
71
3
72
9
73
5
74
0
42
0.000000001
43
0.0000000001
44
0.0000000001
40
0
40
0
40
0
40
0
40
0.056451997761295072
40
0.11601625640477777
40
0.11601625640477777
40
0.11601625640477777
40
0.11601625640477777
10
692.59550102055073
20
-431.58253788948059
30
0
10
692.7382873753761
20
-431.45486393954519
30
0
10
693.03173205420887
20
-431.19247723403748
30
0
10
693.15815148414777
20
-430.81920239858511
30
0
10
693.2230568677187
20
-430.62755823135376
30
0
0
SPLINE
5
107
100
AcDbEntity
8
0
100
AcDbSpline
70
0
71
3
72
9
73
5
74
0
42
0.000000001
43
0.0000000001
44
0.0000000001
40
0
40
0
40
0
40
0
40
0.058570309791971191
40
0.15800819526448179
40
0.15800819526448179
40
0.15800819526448179
40
0.15800819526448179
10
693.2230568677187
20
-430.62755823135376
30
0
10
693.25000002283582
20
-430.43397226373031
30
0
10
693.32268598488611
20
-429.91172525016066
30
0
10
693.31596434413518
20
-429.38396938175259
30
0
10
693.31173427402973
20
-429.05184149742126
30
0
0
SPLINE
5
108
100
AcDbEntity
8
0
100
AcDbSpline
70
0
71
3
72
9
73
5
74
0
42
0.000000001
43
0.0000000001
44
0.0000000001
40
0
40
0
40
0
40
0
40
0.11500360279995954
40
0.22768862721534755
40
0.22768862721534755
40
0.22768862721534755
40
0.22768862721534755
10
693.31173427402973
20
-429.05184149742126
30
0
10
693.0290212849344
20
-429.3283795997491
30
0
10
692.46929506057404
20
-429.87588054196988
30
0
10
691.69130850987335
20
-429.95890867553487
30
0
10
691.30627639591694
20
-430
30
0
0
SPLINE
5
109
100
AcDbEntity
8
0
100
AcDbSpline
70
0
71
3
72
9
73
5
74
0
42
0.000000001
43
0.0000000001
44
0.0000000001
40
0
40
0
40
0
40
0
40
0.13521524098453885
40
0.26282023806101995
40
0.26282023806101995
40
0.26282023806101995
40
0.26282023806101995
10
691.30627639591694
20
-430
30
0
10
690.8406945972223
20
-429.96052731522076
30
0
10
689.93573508024144
20
-429.88380356473942
30
0
10
689.30169980111532
20
-429.23651161423675
30
0
10
688.99386174976826
20
-428.92223715782166
30
0
0
SPLINE
5
110
100
AcDbEntity
8
0
100
AcDbSpline
70
0
71
3
72
9
73
5
74
0
42
0.000000001
43
0.0000000001
44
0.0000000001
40
0
40
0
40
0
40
0
40
0.13347587425272775
40
0.27497035574840362
40
0.27497035574840362
40
0.27497035574840362
40
0.27497035574840362
10
688.99386174976826
20
-428.92223715782166
30
0
10
688.75517408285759
20
-428.53813632006216
30
0
10
688.26345950858979
20
-427.74685965981695
30
0
10
688.20525810635957
20
-426.81598328220377
30
0
10
688.17530877888203
20
-426.33697211742401
30
0
0
SPLINE
5
111
100
AcDbEntity
8
0
100
AcDbSpline
70
0
71
3
72
9
73
5
74
0
42
0.000000001
43
0.0000000001
44
0.0000000001
40
0
40
0
40
0
40
0
40
0.10011625297683077
40
0.1959989322984394
40
0.1959989322984394
40
0.1959989322984394
40
0.1959989322984394
10
688.17530877888203
20
-426.33697211742401
30
0
10
688.18954494746083
20
-426.00134106608778
30
0
10
688.21741528577729
20
-425.34427165176078
30
0
10
688.44106838739879
20
-424.72604077398228
30
0
10
688.55047948658466
20
-424.4236022233963
30
0
0
SPLINE
5
112
100
AcDbEntity
8
0
100
AcDbSpline
70
0
71
3
72
9
73
5
74
0
42
0.000000001
43
0.0000000001
44
0.0000000001
40
0
40
0
40
0
40
0
40
0.090254916099930263
40
0.17558471375680587
40
0.17558471375680587
40
0.17558471375680587
40
0.17558471375680587
10
688.55047948658466
20
-424.4236022233963
30
0
10
688.68610388316756
20
-424.15043905755283
30
0
10
688.94995179175214
20
-423.61901896038694
30
0
10
689.41329890532052
20
-423.24926771105487
30
0
10
689.63847406208515
20
-423.0695778131485
30
0
0
SPLINE
5
113
100
AcDbEntity
8
0
100
AcDbSpline
70
0
71
3
72
9
73
5
74
0
42
0.000000001
43
0.0000000001
44
0.0000000001
40
0
40
0
40
0
40
0
40
0.085380211380134671
40
0.17612460710864047
40
0.17612460710864047
40
0.17612460710864047
40
0.17612460710864047
10
689.63847406208515
20
-423.0695778131485
30
0
10
689.89106811696547
20
-422.93034583895059
30
0
10
690.41212595876107
20
-422.64313436036332
30
0
10
691.00673861893438
20
-422.60944546105037
30
0
10
691.31309993565083
20
-422.59208798408508
30
0
0
SPLINE
5
114
100
AcDbEntity
8
0
100
AcDbSpline
70
0
71
3
72
9
73
5
74
0
42
0.000000001
43
0.0000000001
44
0.0000000001
40
0
40
0
40
0
40
0
40
0.1198221397239958
40
0.24218438156253949
40
0.24218438156253949
40
0.24218438156253949
40
0.24218438156253949
10
691.31309993565083
20
-422.59208798408508
30
0
10
691.72322823314198
20
-422.63707360303988
30
0
10
692.55217911248701
20
-422.72799848829806
30
0
10
693.13382375162951
20
-423.3265225277662
30
0
10
693.42769630253315
20
-423.62892329692841
30
0
0
LINE
5
115
100
AcDbEntity
8
0
100
AcDbLine
10
693.42769630253304
20
-423.62892329692841
30
0
11
693.42769630253315
21
-422.75579929351807
31
0
0
LINE
5
116
100
AcDbEntity
8
0
100
AcDbLine
10
693.42769630253315
20
-422.75579929351807
30
0
11
694.56002958118916
21
-422.75579929351807
31
0
0
LINE
5
117
100
AcDbEntity
8
0
100
AcDbLine
10
694.56002958118916
20
-422.75579929351807
30
0
11
694.56002958118916
21
-429.01773571968079
31
0
0
SPLINE
5
118
100
AcDbEntity
8
0
100
AcDbSpline
70
0
71
3
72
9
73
5
74
0
42
0.000000001
43
0.0000000001
44
0.0000000001
40
0
40
0
40
0
40
0
40
0.14478223898740469
40
0.24346627786377789
40
0.24346627786377789
40
0.24346627786377789
40
0.24346627786377789
10
694.56002958118916
20
-429.01773571968079
30
0
10
694.5603551280808
20
-429.5042394486581
30
0
10
694.56090256877883
20
-430.32234568108953
30
0
10
694.31516138902634
20
-431.10014932329443
30
0
10
694.21555526554585
20
-431.41541600227356
30
0
0
SPLINE
5
119
100
AcDbEntity
8
0
100
AcDbSpline
70
0
71
3
72
9
73
5
74
0
42
0.000000001
43
0.0000000001
44
0.0000000001
40
0
40
0
40
0
40
0
40
0.077285347470699081
40
0.15799832674450592
40
0.15799832674450592
40
0.15799832674450592
40
0.15799832674450592
10
694.21555526554585
20
-431.41541600227356
30
0
10
694.08135969861075
20
-431.63979213463494
30
0
10
693.80701694508559
20
-432.09849555817766
30
0
10
693.35504000640481
20
-432.38456080456211
30
0
10
693.12414892017841
20
-432.53069639205933
30
0
0
SPLINE
5
120
100
AcDbEntity
8
0
100
AcDbSpline
70
0
71
3
72
9
73
5
74
0
42
0.000000001
43
0.0000000001
44
0.0000000001
40
0
40
0
40
0
40
0
40
0.088780222728497241
40
0.18982831125873878
40
0.18982831125873878
40
0.18982831125873878
40
0.18982831125873878
10
693.12414892017841
20
-432.53069639205933
30
0
10
692.85037820009518
20
-432.64993461484863
30
0
10
692.26500645999022
20
-432.90488768630928
30
0
10
691.62597677430085
20
-432.92778456828114
30
0
10
691.28581292927265
20
-432.93997287750244
30
0
0
LWPOLYLINE
5
121
100
AcDbEntity
8
0
100
AcDbPolyline
90
6
70
1
43
0.0
10
671.68826825916767
20
-428.81991863250732
10
671.68826825916767
20
-430
10
665.43997295200825
20
-430
10
665.43997295200825
20
-420
10
666.76330156624317
20
-420
10
666.76330156624317
20
-428.81991863250732
0
LINE
5
122
100
AcDbEntity
8
0
100
AcDbLine
10
682.10436351597309
20
-426.04365587234497
30
0
11
682.10436351597309
21
-430
31
0
0
LINE
5
123
100
AcDbEntity
8
0
100
AcDbLine
10
682.10436351597309
20
-430
30
0
11
680.87653405964375
21
-430
31
0
0
LINE
5
124
100
AcDbEntity
8
0
100
AcDbLine
10
680.87653405964375
20
-430
30
0
11
680.87653405964375
21
-422.75579810142517
31
0
0
LINE
5
125
100
AcDbEntity
8
0
100
AcDbLine
10
680.87653405964375
20
-422.75579810142517
30
0
11
681.98158271610737
21
-422.75579810142517
31
0
0
LINE
5
126
100
AcDbEntity
8
0
100
AcDbLine
10
681.98158271610737
20
-422.75579810142517
30
0
11
681.98158271610737
21
-423.78581166267395
31
0
0
SPLINE
5
127
100
AcDbEntity
8
0
100
AcDbSpline
70
0
71
3
72
9
73
5
74
0
42
0.000000001
43
0.0000000001
44
0.0000000001
40
0
40
0
40
0
40
0
40
0.13240230947807788
40
0.26872414121623983
40
0.26872414121623983
40
0.26872414121623983
40
0.26872414121623983
10
681.98158271610737
20
-423.78581166267395
30
0
10
682.28074258695119
20
-423.43766286746677
30
0
10
682.88791839601186
20
-422.73105898437507
30
0
10
683.81624352112476
20
-422.63885951722187
30
0
10
684.28717620670795
20
-422.59208738803864
30
0
0
SPLINE
5
128
100
AcDbEntity
8
0
100
AcDbSpline
70
0
71
3
72
9
73
5
74
0
42
0.000000001
43
0.0000000001
44
0.0000000001
40
0
40
0
40
0
40
0
40
0.063115744496926002
40
0.12331600113056175
40
0.12331600113056175
40
0.12331600113056175
40
0.12331600113056175
10
684.28717620670795
20
-422.59208738803864
30
0
10
684.49877761072025
20
-422.60093190438681
30
0
10
684.9122059745049
20
-422.61821238482287
30
0
10
685.30122296546779
20
-422.7587929675351
30
0
10
685.49113281071186
20
-422.82742142677307
30
0
0
SPLINE
5
129
100
AcDbEntity
8
0
100
AcDbSpline
70
0
71
3
72
9
73
5
74
0
42
0.000000001
43
0.0000000001
44
0.0000000001
40
0
40
0
40
0
40
0
40
0.055174965862948018
40
0.10377100725416648
40
0.10377100725416648
40
0.10377100725416648
40
0.10377100725416648
10
685.49113281071186
20
-422.82742142677307
30
0
10
685.6592869233765
20
-422.90744665901769
30
0
10
685.97554487428272
20
-423.0579551156319
30
0
10
686.20543666660001
20
-423.32138357940431
30
0
10
686.31309516727924
20
-423.44474732875824
30
0
0
SPLINE
5
130
100
AcDbEntity
8
0
100
AcDbSpline
70
0
71
3
72
9
73
5
74
0
42
0.000000001
43
0.0000000001
44
0.0000000001
40
0
40
0
40
0
40
0
40
0.047785882073534777
40
0.098977649458749928
40
0.098977649458749928
40
0.098977649458749928
40
0.098977649458749928
10
686.31309516727924
20
-423.44474732875824
30
0
10
686.39779302831641
20
-423.58087235731517
30
0
10
686.57322549572882
20
-423.86282457362739
30
0
10
686.65354680554447
20
-424.18522901040296
30
0
10
686.69508941471577
20
-424.35197830200195
30
0
0
SPLINE
5
131
100
AcDbEntity
8
0
100
AcDbSpline
70
0
71
3
72
9
73
5
74
0
42
0.000000001
43
0.0000000001
44
0.0000000001
40
0
40
0
40
0
40
0
40
0.047174482962032006
40
0.11967069343843736
40
0.11967069343843736
40
0.11967069343843736
40
0.11967069343843736
10
686.69508941471577
20
-424.35197830200195
30
0
10
686.71477387141749
20
-424.50812502720788
30
0
10
686.76470876069561
20
-424.90423295908641
30
0
10
686.7638320682903
20
-425.3037040042463
30
0
10
686.76330097019672
20
-425.54570257663727
30
0
0
LINE
5
132
100
AcDbEntity
8
0
100
AcDbLine
10
686.76330097019672
20
-425.54570257663721
30
0
11
686.76330097019672
21
-430
31
0
0
LINE
5
133
100
AcDbEntity
8
0
100
AcDbLine
10
686.76330097019672
20
-430
30
0
11
685.53546912968159
21
-430
31
0
0
LINE
5
134
100
AcDbEntity
8
0
100
AcDbLine
10
685.53546912968159
20
-430
30
0
11
685.53546912968159
21
-425.59345126152039
31
0
0
SPLINE
5
135
100
AcDbEntity
8
0
100
AcDbSpline
70
0
71
3
72
9
73
5
74
0
42
0.000000001
43
0.0000000001
44
0.0000000001
40
0
40
0
40
0
40
0
40
0.065667295262725633
40
0.11352921120835946
40
0.11352921120835946
40
0.11352921120835946
40
0.11352921120835946
10
685.53546912968159
20
-425.59345126152039
30
0
10
685.53429026104357
20
-425.3733646951631
30
0
10
685.53225216847306
20
-424.9928670033346
30
0
10
685.43374947830921
20
-424.62601053720266
30
0
10
685.39222247898579
20
-424.47135031223297
30
0
0
SPLINE
5
136
100
AcDbEntity
8
0
100
AcDbSpline
70
0
71
3
72
9
73
5
74
0
42
0.000000001
43
0.0000000001
44
0.0000000001
40
0
40
0
40
0
40
0
40
0.038882855821194967
40
0.079254711639249409
40
0.079254711639249409
40
0.079254711639249409
40
0.079254711639249409
10
685.39222247898579
20
-424.47135031223297
30
0
10
685.33412949695446
20
-424.35301905498187
30
0
10
685.21571889048221
20
-424.11182510270442
30
0
10
684.99597447881627
20
-423.95684496585369
30
0
10
684.88403804600239
20
-423.87789905071259
30
0
0
SPLINE
5
137
100
AcDbEntity
8
0
100
AcDbSpline
70
0
71
3
72
9
73
5
74
0
42
0.000000001
43
0.0000000001
44
0.0000000001
40
0
40
0
40
0
40
0
40
0.042993937762676543
40
0.089285193967078041
40
0.089285193967078041
40
0.089285193967078041
40
0.089285193967078041
10
684.88403804600239
20
-423.87789905071259
30
0
10
684.75431196836337
20
-423.81326318936834
30
0
10
684.4849107781647
20
-423.67903437205928
30
0
10
684.18398634242999
20
-423.66400139624568
30
0
10
684.02796752750874
20
-423.65620732307434
30
0
0
SPLINE
5
138
100
AcDbEntity
8
0
100
AcDbSpline
70
0
71
3
72
9
73
5
74
0
42
0.000000001
43
0.0000000001
44
0.0000000001
40
0
40
0
40
0
40
0
40
0.074125966191914791
40
0.14678774837333955
40
0.14678774837333955
40
0.14678774837333955
40
0.14678774837333955
10
684.02796752750874
20
-423.65620732307434
30
0
10
683.77640513718359
20
-423.67611505592265
30
0
10
683.27824937951527
20
-423.71553729120865
30
0
10
682.87403295075717
20
-424.00892875104944
30
0
10
682.67394073307514
20
-424.15416121482849
30
0
0
SPLINE
5
139
100
AcDbEntity
8
0
100
AcDbSpline
70
0
71
3
72
9
73
5
74
0
42
0.000000001
43
0.0000000001
44
0.0000000001
40
0
40
0
40
0
40
0
40
0.083835159233543552
40
0.20151419803309645
40
0.20151419803309645
40
0.20151419803309645
40
0.20151419803309645
10
682.67394073307514
20
-424.15416121482849
30
0
10
682.50895980213659
20
-424.38692607573677
30
0
10
682.11239587486784
20
-424.94642193290508
30
0
10
682.10732485777157
20
-425.63913152648854
30
0
10
682.10436351597309
20
-426.04365587234497
30
0
0
SPLINE
5
140
100
AcDbEntity
8
0
100
AcDbSpline
70
0
71
3
72
9
73
5
74
0
42
0.000000001
43
0.0000000001
44
0.0000000001
40
0
40
0
40
0
40
0
40
0.13967936589170177
40
0.27043428433530359
40
0.27043428433530359
40
0.27043428433530359
40
0.27043428433530359
10
676.04706652462482
20
-430.16371130943298
30
0
10
675.56988395757867
20
-430.12870713962843
30
0
10
674.64600715449762
20
-430.06093529981939
30
0
10
673.93282032771356
20
-429.47268559743793
30
0
10
673.58799465000629
20
-429.18826699256897
30
0
0
SPLINE
5
141
100
AcDbEntity
8
0
100
AcDbSpline
70
0
71
3
72
9
73
5
74
0
42
0.000000001
43
0.0000000001
44
0.0000000001
40
0
40
0
40
0
40
0
40
0.13826349538740976
40
0.30195710037969503
40
0.30195710037969503
40
0.30195710037969503
40
0.30195710037969503
10
673.58799465000629
20
-429.18826699256897
30
0
10
673.31494425988001
20
-428.80508488516944
30
0
10
672.71862269409655
20
-427.96824391175471
30
0
10
672.67416745669129
20
-426.93696463459696
30
0
10
672.6500678807497
20
-426.37789905071259
30
0
0
SPLINE
5
142
100
AcDbEntity
8
0
100
AcDbSpline
70
0
71
3
72
9
73
5
74
0
42
0.000000001
43
0.0000000001
44
0.0000000001
40
0
40
0
40
0
40
0
40
0.17735542509543586
40
0.32620801002273447
40
0.32620801002273447
40
0.32620801002273447
40
0.32620801002273447
10
672.6500678807497
20
-426.37789905071259
30
0
10
672.67804952636425
20
-425.76815952939285
30
0
10
672.7295158794692
20
-424.64667189643831
30
0
10
673.44312880463974
20
-423.78856362723923
30
0
10
673.76875884830952
20
-423.39699864387512
30
0
0
SPLINE
5
143
100
AcDbEntity
8
0
100
AcDbSpline
70
0
71
3
72
9
73
5
74
0
42
0.000000001
43
0.0000000001
44
0.0000000001
40
0
40
0
40
0
40
0
40
0.11997750238539998
40
0.24574505314296555
40
0.24574505314296555
40
0.24574505314296555
40
0.24574505314296555
10
673.76875884830952
20
-423.39699864387512
30
0
10
674.10236968771403
20
-423.16226916630899
30
0
10
674.78569124240994
20
-422.68148229550519
30
0
10
675.6200552249685
20
-422.62235009903208
30
0
10
676.04706652462482
20
-422.59208738803864
30
0
0
SPLINE
5
144
100
AcDbEntity
8
0
100
AcDbSpline
70
0
71
3
72
9
73
5
74
0
42
0.000000001
43
0.0000000001
44
0.0000000001
40
0
40
0
40
0
40
0
40
0.13793166450791966
40
0.26890053081988352
40
0.26890053081988352
40
0.26890053081988352
40
0.26890053081988352
10
676.04706652462482
20
-422.59208738803864
30
0
10
676.51794172656059
20
-422.62848018442469
30
0
10
677.43592232370747
20
-422.6994286667848
30
0
10
678.14414391297055
20
-423.28549540521641
30
0
10
678.48908551037312
20
-423.5709410905838
30
0
0
SPLINE
5
145
100
AcDbEntity
8
0
100
AcDbSpline
70
0
71
3
72
9
73
5
74
0
42
0.000000001
43
0.0000000001
44
0.0000000001
40
0
40
0
40
0
40
0
40
0.13653873272863745
40
0.2922586039215041
40
0.2922586039215041
40
0.2922586039215041
40
0.2922586039215041
10
678.48908551037312
20
-423.5709410905838
30
0
10
678.76531193204926
20
-423.94515190500039
30
0
10
679.35656942178855
20
-424.74614315494165
30
0
10
679.4092010652605
20
-425.7439389895768
30
0
10
679.43724401295185
20
-426.27557992935181
30
0
0
SPLINE
5
146
100
AcDbEntity
8
0
100
AcDbSpline
70
0
71
3
72
9
73
5
74
0
42
0.000000001
43
0.0000000001
44
0.0000000001
40
0
40
0
40
0
40
0
40
0.12535426776061565
40
0.2254968160823338
40
0.2254968160823338
40
0.2254968160823338
40
0.2254968160823338
10
679.43724401295185
20
-426.27557992935181
30
0
10
679.42905739247658
20
-426.6974364133776
30
0
10
679.41433067527259
20
-427.45630402666995
30
0
10
679.13969817825773
20
-428.16203142601984
30
0
10
679.0177346020937
20
-428.47544312477112
30
0
0
SPLINE
5
147
100
AcDbEntity
8
0
100
AcDbSpline
70
0
71
3
72
9
73
5
74
0
42
0.000000001
43
0.0000000001
44
0.0000000001
40
0
40
0
40
0
40
0
40
0.087871237122381554
40
0.17632657239012986
40
0.17632657239012986
40
0.17632657239012986
40
0.17632657239012986
10
679.0177346020937
20
-428.47544312477112
30
0
10
678.86154197078542
20
-428.72793134032054
30
0
10
678.54811846369603
20
-429.2345861124017
30
0
10
678.04774286898169
20
-429.55805676471346
30
0
10
677.79672630131245
20
-429.72032785415649
30
0
0
SPLINE
5
148
100
AcDbEntity
8
0
100
AcDbSpline
70
0
71
3
72
9
73
5
74
0
42
0.000000001
43
0.0000000001
44
0.0000000001
40
0
40
0
40
0
40
0
40
0.09017219582039579
40
0.18199316026257384
40
0.18199316026257384
40
0.18199316026257384
40
0.18199316026257384
10
677.79672630131245
20
-429.72032785415649
30
0
10
677.52204171148935
20
-429.84964517141168
30
0
10
676.9676500154402
20
-430.11064433007493
30
0
10
676.35577544921875
20
-430.14591580224374
30
0
10
676.04706652462482
20
-430.16371130943298
30
0
0
LWPOLYLINE
5
149
100
AcDbEntity
8
0
100
AcDbPolyline
90
57
70
1
43
0.0
10
825
20
-410.96909258248337
10
825
20
-400
10
749.04999999999995
20
-400
10
749.04999999999984
20
-424.39999999999998
42
-0.41421356237309503
10
748.54999999999995
20
-424.89999999999998
10
743.45000000000005
20
-424.89999999999998
42
-0.41421356237309503
10
742.95000000000005
20
-424.39999999999998
10
742.95000000000005
20
-400
10
648.5
20
-400
42
-0.41421356237309503
10
648
20
-399.5
10
647.99999999999977
20
-388.5
42
0.41421356237309503
10
647.5
20
-388.00000000000006
10
598.5
20
-388
42
0.41421356237326151
10
598
20
-388.5
10
598
20
-399.5
42
-0.41421356237309503
10
597.5
20
-400
10
503.05000000000001
20
-400
10
503.04999999999995
20
-424.39999999999998
42
-0.41421356237309503
10
502.54999999999995
20
-424.89999999999998
10
497.45000000000005
20
-424.89999999999998
42
-0.41421356237309503
10
496.95000000000005
20
-424.39999999999998
10
496.94999999999999
20
-400
10
402.49999999999994
20
-400
42
-0.41421356237309503
10
401.99999999999994
20
-399.5
10
401.99999999999989
20
-388.5
42
0.4142135623730534
10
401.50000000000006
20
-388.00000000000006
10
352.5
20
-388
42
0.4142135623731783
10
352
20
-388.5
10
351.99999999999994
20
-399.5
42
-0.41421356237309503
10
351.5
20
-400
10
257.04999999999995
20
-400
10
257.0499999999999
20
-424.39999999999998
42
-0.41421356237309503
10
256.54999999999995
20
-424.89999999999998
10
251.45000000000005
20
-424.89999999999998
42
-0.41421356237309503
10
250.95000000000002
20
-424.39999999999998
10
250.94999999999999
20
-400
10
156.50000000000006
20
-400
42
-0.41421356237313667
10
155.99999999999997
20
-399.5
10
155.99999999999994
20
-388.5
42
0.41421356237319906
10
155.49999999999997
20
-388.00000000000006
10
106.50000000000006
20
-388
42
0.41421356237311585
10
105.99999999999997
20
-388.49999999999994
10
105.99999999999994
20
-399.5
42
-0.41421356237309503
10
105.49999999999997
20
-400
10
25
20
-400
10
25
20
-424.79289321881345
42
0.19891236737968837
10
25.146446609406674
20
-425.14644660940667
10
49.85355339059339
20
-449.85355339059322
42
0.1989123673797539
10
50.20710678118661
20
-450
10
825
20
-450
10
825.00000000000011
20
-437.79069219820883
42
0.42924350898886265
10
818.16837471681288
20
-431.29915735107511
10
776.84270966747238
20
-433.41031221623643
42
-0.42924350898887265
10
770.01108438428491
20
-426.91877736910277
10
770.01108438428503
20
-421.84100741158863
42
-0.42924350898887254
10
776.84270966747249
20
-415.34947256445503
10
818.16837471681254
20
-417.46062742961681
42
0.42924350898888269
0
SPLINE
5
150
100
AcDbEntity
8
0
100
AcDbSpline
70
0
71
3
72
9
73
5
74
0
42
0.000000001
43
0.0000000001
44
0.0000000001
40
0
40
0
40
0
40
0
40
0.11805936633628601
40
0.22016130543861195
40
0.22016130543861195
40
0.22016130543861195
40
0.22016130543861195
10
691.28581292927265
20
-432.93997287750244
30
0
10
690.88592904976872
20
-432.92354324983421
30
0
10
690.14021136833867
20
-432.8929046957951
30
0
10
689.49220108032682
20
-432.52662097478236
30
0
10
689.19168002903461
20
-432.3567533493042
30
0
0
SPLINE
5
151
100
AcDbEntity
8
0
100
AcDbSpline
70
0
71
3
72
9
73
5
74
0
42
0.000000001
43
0.0000000001
44
0.0000000001
40
0
40
0
40
0
40
0
40
0.094028060323093729
40
0.19815426624235905
40
0.19815426624235905
40
0.19815426624235905
40
0.19815426624235905
10
689.19168002903461
20
-432.3567533493042
30
0
10
688.96042030399815
20
-432.12864191751464
30
0
10
688.47306471069385
20
-431.64792102172635
30
0
10
688.43885282585632
20
-430.96115550613422
30
0
10
688.42087514698505
20
-430.60027360916138
30
0
0
LINE
5
152
100
AcDbEntity
8
0
100
AcDbLine
10
688.42087514698505
20
-430.60027360916138
30
0
11
689.61459882557392
21
-430.77762603759766
31
0
0
SPLINE
5
153
100
AcDbEntity
8
0
100
AcDbSpline
70
0
71
3
72
9
73
5
74
0
42
0.000000001
43
0.0000000001
44
0.0000000001
40
0
40
0
40
0
40
0
40
0.049802619758464749
40
0.092532902191011082
40
0.092532902191011082
40
0.092532902191011082
40
0.092532902191011082
10
689.61459882557392
20
-430.77762603759766
30
0
10
689.64577129466488
20
-430.94538930409885
30
0
10
689.70368951357455
20
-431.2570922226538
30
0
10
689.92739504806059
20
-431.47972805768001
30
0
10
690.03069885075092
20
-431.58253788948059
30
0
0
SPLINE
5
154
100
AcDbEntity
8
0
100
AcDbSpline
70
0
71
3
72
9
73
5
74
0
42
0.000000001
43
0.0000000001
44
0.0000000001
40
0
40
0
40
0
40
0
40
0.059805131120822613
40
0.13108766755001455
40
0.13108766755001455
40
0.13108766755001455
40
0.13108766755001455
10
690.03069885075092
20
-431.58253788948059
30
0
10
690.20685098867273
20
-431.68181461445852
30
0
10
690.5929612180355
20
-431.89942059701337
30
0
10
691.03734553768845
20
-431.91508414235471
30
0
10
691.27899177372456
20
-431.92360162734985
30
0
0
SPLINE
5
155
100
AcDbEntity
8
0
100
AcDbSpline
70
0
71
3
72
9
73
5
74
0
42
0.000000001
43
0.0000000001
44
0.0000000001
40
0
40
0
40
0
40
0
40
0.076025458739256521
40
0.13768668619696289
40
0.13768668619696289
40
0.13768668619696289
40
0.13768668619696289
10
691.27899177372456
20
-431.92360162734985
30
0
10
691.53667386911889
20
-431.91635654109371
30
0
10
692.00335166883872
20
-431.90323525337817
30
0
10
692.4123405590467
20
-431.68173427803487
30
0
10
692.59550102055073
20
-431.58253788948059
30
0
0
SPLINE
5
156
100
AcDbEntity
8
0
100
AcDbSpline
70
0
71
3
72
9
73
5
74
0
42
0.000000001
43
0.0000000001
44
0.0000000001
40
0
40
0
40
0
40
0
40
0.056451997761295072
40
0.11601625640477777
40
0.11601625640477777
40
0.11601625640477777
40
0.11601625640477777
10
692.59550102055073
20
-431.58253788948059
30
0
10
692.7382873753761
20
-431.45486393954519
30
0
10
693.03173205420887
20
-431.19247723403748
30
0
10
693.15815148414777
20
-430.81920239858511
30
0
10
693.2230568677187
20
-430.62755823135376
30
0
0
SPLINE
5
157
100
AcDbEntity
8
0
100
AcDbSpline
70
0
71
3
72
9
73
5
74
0
42
0.000000001
43
0.0000000001
44
0.0000000001
40
0
40
0
40
0
40
0
40
0.058570309791971191
40
0.15800819526448179
40
0.15800819526448179
40
0.15800819526448179
40
0.15800819526448179
10
693.2230568677187
20
-430.62755823135376
30
0
10
693.25000002283582
20
-430.43397226373031
30
0
10
693.32268598488611
20
-429.91172525016066
30
0
10
693.31596434413518
20
-429.38396938175259
30
0
10
693.31173427402973
20
-429.05184149742126
30
0
0
SPLINE
5
158
100
AcDbEntity
8
0
100
AcDbSpline
70
0
71
3
72
9
73
5
74
0
42
0.000000001
43
0.0000000001
44
0.0000000001
40
0
40
0
40
0
40
0
40
0.11500360279995954
40
0.22768862721534755
40
0.22768862721534755
40
0.22768862721534755
40
0.22768862721534755
10
693.31173427402973
20
-429.05184149742126
30
0
10
693.0290212849344
20
-429.3283795997491
30
0
10
692.46929506057404
20
-429.87588054196988
30
0
10
691.69130850987335
20
-429.95890867553487
30
0
10
691.30627639591694
20
-430
30
0
0
SPLINE
5
159
100
AcDbEntity
8
0
100
AcDbSpline
70
0
71
3
72
9
73
5
74
0
42
0.000000001
43
0.0000000001
44
0.0000000001
40
0
40
0
40
0
40
0
40
0.13521524098453885
40
0.26282023806101995
40
0.26282023806101995
40
0.26282023806101995
40
0.26282023806101995
10
691.30627639591694
20
-430
30
0
10
690.8406945972223
20
-429.96052731522076
30
0
10
689.93573508024144
20
-429.88380356473942
30
0
10
689.30169980111532
20
-429.23651161423675
30
0
10
688.99386174976826
20
-428.92223715782166
30
0
0
SPLINE
5
160
100
AcDbEntity
8
0
100
AcDbSpline
70
0
71
3
72
9
73
5
74
0
42
0.000000001
43
0.0000000001
44
0.0000000001
40
0
40
0
40
0
40
0
40
0.13347587425272775
40
0.27497035574840362
40
0.27497035574840362
40
0.27497035574840362
40
0.27497035574840362
10
688.99386174976826
20
-428.92223715782166
30
0
10
688.75517408285759
20
-428.53813632006216
30
0
10
688.26345950858979
20
-427.74685965981695
30
0
10
688.20525810635957
20
-426.81598328220377
30
0
10
688.17530877888203
20
-426.33697211742401
30
0
0
SPLINE
5
161
100
AcDbEntity
8
0
100
AcDbSpline
70
0
71
3
72
9
73
5
74
0
42
0.000000001
43
0.0000000001
44
0.0000000001
40
0
40
0
40
0
40
0
40
0.10011625297683077
40
0.1959989322984394
40
0.1959989322984394
40
0.1959989322984394
40
0.1959989322984394
10
688.17530877888203
20
-426.33697211742401
30
0
10
688.18954494746083
20
-426.00134106608778
30
0
10
688.21741528577729
20
-425.34427165176078
30
0
10
688.44106838739879
20
-424.72604077398228
30
0
10
688.55047948658466
20
-424.4236022233963
30
0
0
SPLINE
5
162
100
AcDbEntity
8
0
100
AcDbSpline
70
0
71
3
72
9
73
5
74
0
42
0.000000001
43
0.0000000001
44
0.0000000001
40
0
40
0
40
0
40
0
40
0.090254916099930263
40
0.17558471375680587
40
0.17558471375680587
40
0.17558471375680587
40
0.17558471375680587
10
688.55047948658466
20
-424.4236022233963
30
0
10
688.68610388316756
20
-424.15043905755283
30
0
10
688.94995179175214
20
-423.61901896038694
30
0
10
689.41329890532052
20
-423.24926771105487
30
0
10
689.63847406208515
20
-423.0695778131485
30
0
0
SPLINE
5
163
100
AcDbEntity
8
0
100
AcDbSpline
70
0
71
3
72
9
73
5
74
0
42
0.000000001
43
0.0000000001
44
0.0000000001
40
0
40
0
40
0
40
0
40
0.085380211380134671
40
0.17612460710864047
40
0.17612460710864047
40
0.17612460710864047
40
0.17612460710864047
10
689.63847406208515
20
-423.0695778131485
30
0
10
689.89106811696547
20
-422.93034583895059
30
0
10
690.41212595876107
20
-422.64313436036332
30
0
10
691.00673861893438
20
-422.60944546105037
30
0
10
691.31309993565083
20
-422.59208798408508
30
0
0
SPLINE
5
164
100
AcDbEntity
8
0
100
AcDbSpline
70
0
71
3
72
9
73
5
74
0
42
0.000000001
43
0.0000000001
44
0.0000000001
40
0
40
0
40
0
40
0
40
0.1198221397239958
40
0.24218438156253949
40
0.24218438156253949
40
0.24218438156253949
40
0.24218438156253949
10
691.31309993565083
20
-422.59208798408508
30
0
10
691.72322823314198
20
-422.63707360303988
30
0
10
692.55217911248701
20
-422.72799848829806
30
0
10
693.13382375162951
20
-423.3265225277662
30
0
10
693.42769630253315
20
-423.62892329692841
30
0
0
LINE
5
165
100
AcDbEntity
8
0
100
AcDbLine
10
693.42769630253304
20
-423.62892329692841
30
0
11
693.42769630253315
21
-422.75579929351807
31
0
0
LINE
5
166
100
AcDbEntity
8
0
100
AcDbLine
10
693.42769630253315
20
-422.75579929351807
30
0
11
694.56002958118916
21
-422.75579929351807
31
0
0
LINE
5
167
100
AcDbEntity
8
0
100
AcDbLine
10
694.56002958118916
20
-422.75579929351807
30
0
11
694.56002958118916
21
-429.01773571968079
31
0
0
SPLINE
5
168
100
AcDbEntity
8
0
100
AcDbSpline
70
0
71
3
72
9
73
5
74
0
42
0.000000001
43
0.0000000001
44
0.0000000001
40
0
40
0
40
0
40
0
40
0.14478223898740469
40
0.24346627786377789
40
0.24346627786377789
40
0.24346627786377789
40
0.24346627786377789
10
694.56002958118916
20
-429.01773571968079
30
0
10
694.5603551280808
20
-429.5042394486581
30
0
10
694.56090256877883
20
-430.32234568108953
30
0
10
694.31516138902634
20
-431.10014932329443
30
0
10
694.21555526554585
20
-431.41541600227356
30
0
0
SPLINE
5
169
100
AcDbEntity
8
0
100
AcDbSpline
70
0
71
3
72
9
73
5
74
0
42
0.000000001
43
0.0000000001
44
0.0000000001
40
0
40
0
40
0
40
0
40
0.077285347470699081
40
0.15799832674450592
40
0.15799832674450592
40
0.15799832674450592
40
0.15799832674450592
10
694.21555526554585
20
-431.41541600227356
30
0
10
694.08135969861075
20
-431.63979213463494
30
0
10
693.80701694508559
20
-432.09849555817766
30
0
10
693.35504000640481
20
-432.38456080456211
30
0
10
693.12414892017841
20
-432.53069639205933
30
0
0
SPLINE
5
170
100
AcDbEntity
8
0
100
AcDbSpline
70
0
71
3
72
9
73
5
74
0
42
0.000000001
43
0.0000000001
44
0.0000000001
40
0
40
0
40
0
40
0
40
0.088780222728497241
40
0.18982831125873878
40
0.18982831125873878
40
0.18982831125873878
40
0.18982831125873878
10
693.12414892017841
20
-432.53069639205933
30
0
10
692.85037820009518
20
-432.64993461484863
30
0
10
692.26500645999022
20
-432.90488768630928
30
0
10
691.62597677430085
20
-432.92778456828114
30
0
10
691.28581292927265
20
-432.93997287750244
30
0
0
SPLINE
5
171
100
AcDbEntity
8
0
100
AcDbSpline
70
0
71
3
72
9
73
5
74
0
42
0.000000001
43
0.0000000001
44
0.0000000001
40
0
40
0
40
0
40
0
40
0.077520353510401846
40
0.15822009760960631
40
0.15822009760960631
40
0.15822009760960631
40
0.15822009760960631
10
691.40177495777607
20
-423.60845923423767
30
0
10
691.13732020108478
20
-423.63833237524773
30
0
10
690.59756443989068
20
-423.69930386302451
30
0
10
690.20861542210901
20
-424.07957706961434
30
0
10
690.01023299992085
20
-424.2735344171524
30
0
0
SPLINE
5
172
100
AcDbEntity
8
0
100
AcDbSpline
70
0
71
3
72
9
73
5
74
0
42
0.000000001
43
0.0000000001
44
0.0000000001
40
0
40
0
40
0
40
0
40
0.093130424448991056
40
0.20887365497068572
40
0.20887365497068572
40
0.20887365497068572
40
0.20887365497068572
10
690.01023299992085
20
-424.2735344171524
30
0
10
689.84361687430146
20
-424.54166705600073
30
0
10
689.46992890561569
20
-425.14303706611884
30
0
10
689.44889945427008
20
-425.85421180412561
30
0
10
689.43724639713764
20
-426.24829530715942
30
0
0
SPLINE
5
173
100
AcDbEntity
8
0
100
AcDbSpline
70
0
71
3
72
9
73
5
74
0
42
0.000000001
43
0.0000000001
44
0.0000000001
40
0
40
0
40
0
40
0
40
0.12410438207827919
40
0.21890085224233685
40
0.21890085224233685
40
0.21890085224233685
40
0.21890085224233685
10
689.43724639713764
20
-426.24829530715942
30
0
10
689.44527385002914
20
-426.67093445366152
30
0
10
689.4594330299858
20
-427.41640425747477
30
0
10
689.83902640731412
20
-428.05307248523428
30
0
10
690.00341184437275
20
-428.32878589630127
30
0
0
SPLINE
5
174
100
AcDbEntity
8
0
100
AcDbSpline
70
0
71
3
72
9
73
5
74
0
42
0.000000001
43
0.0000000001
44
0.0000000001
40
0
40
0
40
0
40
0
40
0.080497759237492361
40
0.16029861921108973
40
0.16029861921108973
40
0.16029861921108973
40
0.16029861921108973
10
690.00341184437275
20
-428.32878589630127
30
0
10
690.20344910984306
20
-428.51978089090659
30
0
10
690.60179184322351
20
-428.9001173648839
30
0
10
691.14955002474426
20
-428.95587321589346
30
0
10
691.42223842442036
20
-428.98362994194031
30
0
0
SPLINE
5
175
100
AcDbEntity
8
0
100
AcDbSpline
70
0
71
3
72
9
73
5
74
0
42
0.000000001
43
0.0000000001
44
0.0000000001
40
0
40
0
40
0
40
0
40
0.079449921598387083
40
0.16006258344210839
40
0.16006258344210839
40
0.16006258344210839
40
0.16006258344210839
10
691.42223842442036
20
-428.98362994194031
30
0
10
691.69349960835439
20
-428.95570641647686
30
0
10
692.23999185170101
20
-428.8994507080435
30
0
10
692.63973932699832
20
-428.52219471709361
30
0
10
692.84106500446796
20
-428.33219647407532
30
0
0
SPLINE
5
176
100
AcDbEntity
8
0
100
AcDbSpline
70
0
71
3
72
9
73
5
74
0
42
0.000000001
43
0.0000000001
44
0.0000000001
40
0
40
0
40
0
40
0
40
0.094039502366780575
40
0.21553831769418583
40
0.21553831769418583
40
0.21553831769418583
40
0.21553831769418583
10
692.84106500446796
20
-428.33219647407532
30
0
10
693.00749965475745
20
-428.06045760518339
30
0
10
693.38896748079401
20
-427.43763275840087
30
0
10
693.40501053294179
20
-426.70321414887883
30
0
10
693.41405399143696
20
-426.28922283649445
30
0
0
SPLINE
5
177
100
AcDbEntity
8
0
100
AcDbSpline
70
0
71
3
72
9
73
5
74
0
42
0.000000001
43
0.0000000001
44
0.0000000001
40
0
40
0
40
0
40
0
40
0.11757291979751926
40
0.21242988396591281
40
0.21242988396591281
40
0.21242988396591281
40
0.21242988396591281
10
693.41405399143696
20
-426.28922283649445
30
0
10
693.40187390339395
20
-425.88874117217784
30
0
10
693.37986701019008
20
-425.16515385608704
30
0
10
692.99560084897644
20
-424.5558434050572
30
0
10
692.82401330769062
20
-424.28376615047455
30
0
0
SPLINE
5
178
100
AcDbEntity
8
0
100
AcDbSpline
70
0
71
3
72
9
73
5
74
0
42
0.000000001
43
0.0000000001
44
0.0000000001
40
0
40
0
40
0
40
0
40
0.082448564294461651
40
0.16143964810497535
40
0.16143964810497535
40
0.16143964810497535
40
0.16143964810497535
10
692.82401330769062
20
-424.28376615047455
30
0
10
692.62033423332639
20
-424.08682793438823
30
0
10
692.22151736643366
20
-423.70121010616435
30
0
10
691.67109303034294
20
-423.63893159456984
30
0
10
691.40177495777607
20
-423.60845923423767
30
0
0
LWPOLYLINE
5
179
100
AcDbEntity
8
0
100
AcDbPolyline
90
6
70
1
43
0.0
10
671.68826825916767
20
-428.81991863250732
10
671.68826825916767
20
-430
10
665.43997295200825
20
-430
10
665.43997295200825
20
-420
10
666.76330156624317
20
-420
10
666.76330156624317
20
-428.81991863250732
0
LINE
5
180
100
AcDbEntity
8
0
100
AcDbLine
10
682.10436351597309
20
-426.04365587234497
30
0
11
682.10436351597309
21
-430
31
0
0
LINE
5
181
100
AcDbEntity
8
0
100
AcDbLine
10
682.10436351597309
20
-430
30
0
11
680.87653405964375
21
-430
31
0
0
LINE
5
182
100
AcDbEntity
8
0
100
AcDbLine
10
680.87653405964375
20
-430
30
0
11
680.87653405964375
21
-422.75579810142517
31
0
0
LINE
5
183
100
AcDbEntity
8
0
100
AcDbLine
10
680.87653405964375
20
-422.75579810142517
30
0
11
681.98158271610737
21
-422.75579810142517
31
0
0
LINE
5
184
100
AcDbEntity
8
0
100
AcDbLine
10
681.98158271610737
20
-422.75579810142517
30
0
11
681.98158271610737
21
-423.78581166267395
31
0
0
SPLINE
5
185
100
AcDbEntity
8
0
100
AcDbSpline
70
0
71
3
72
9
73
5
74
0
42
0.000000001
43
0.0000000001
44
0.0000000001
40
0
40
0
40
0
40
0
40
0.13240230947807788
40
0.26872414121623983
40
0.26872414121623983
40
0.26872414121623983
40
0.26872414121623983
10
681.98158271610737
20
-423.78581166267395
30
0
10
682.28074258695119
20
-423.43766286746677
30
0
10
682.88791839601186
20
-422.73105898437507
30
0
10
683.81624352112476
20
-422.63885951722187
30
0
10
684.28717620670795
20
-422.59208738803864
30
0
0
SPLINE
5
186
100
AcDbEntity
8
0
100
AcDbSpline
70
0
71
3
72
9
73
5
74
0
42
0.000000001
43
0.0000000001
44
0.0000000001
40
0
40
0
40
0
40
0
40
0.063115744496926002
40
0.12331600113056175
40
0.12331600113056175
40
0.12331600113056175
40
0.12331600113056175
10
684.28717620670795
20
-422.59208738803864
30
0
10
684.49877761072025
20
-422.60093190438681
30
0
10
684.9122059745049
20
-422.61821238482287
30
0
10
685.30122296546779
20
-422.7587929675351
30
0
10
685.49113281071186
20
-422.82742142677307
30
0
0
SPLINE
5
187
100
AcDbEntity
8
0
100
AcDbSpline
70
0
71
3
72
9
73
5
74
0
42
0.000000001
43
0.0000000001
44
0.0000000001
40
0
40
0
40
0
40
0
40
0.055174965862948018
40
0.10377100725416648
40
0.10377100725416648
40
0.10377100725416648
40
0.10377100725416648
10
685.49113281071186
20
-422.82742142677307
30
0
10
685.6592869233765
20
-422.90744665901769
30
0
10
685.97554487428272
20
-423.0579551156319
30
0
10
686.20543666660001
20
-423.32138357940431
30
0
10
686.31309516727924
20
-423.44474732875824
30
0
0
SPLINE
5
188
100
AcDbEntity
8
0
100
AcDbSpline
70
0
71
3
72
9
73
5
74
0
42
0.000000001
43
0.0000000001
44
0.0000000001
40
0
40
0
40
0
40
0
40
0.047785882073534777
40
0.098977649458749928
40
0.098977649458749928
40
0.098977649458749928
40
0.098977649458749928
10
686.31309516727924
20
-423.44474732875824
30
0
10
686.39779302831641
20
-423.58087235731517
30
0
10
686.57322549572882
20
-423.86282457362739
30
0
10
686.65354680554447
20
-424.18522901040296
30
0
10
686.69508941471577
20
-424.35197830200195
30
0
0
SPLINE
5
189
100
AcDbEntity
8
0
100
AcDbSpline
70
0
71
3
72
9
73
5
74
0
42
0.000000001
43
0.0000000001
44
0.0000000001
40
0
40
0
40
0
40
0
40
0.047174482962032006
40
0.11967069343843736
40
0.11967069343843736
40
0.11967069343843736
40
0.11967069343843736
10
686.69508941471577
20
-424.35197830200195
30
0
10
686.71477387141749
20
-424.50812502720788
30
0
10
686.76470876069561
20
-424.90423295908641
30
0
10
686.7638320682903
20
-425.3037040042463
30
0
10
686.76330097019672
20
-425.54570257663727
30
0
0
LINE
5
190
100
AcDbEntity
8
0
100
AcDbLine
10
686.76330097019672
20
-425.54570257663721
30
0
11
686.76330097019672
21
-430
31
0
0
LINE
5
191
100
AcDbEntity
8
0
100
AcDbLine
10
686.76330097019672
20
-430
30
0
11
685.53546912968159
21
-430
31
0
0
LINE
5
192
100
AcDbEntity
8
0
100
AcDbLine
10
685.53546912968159
20
-430
30
0
11
685.53546912968159
21
-425.59345126152039
31
0
0
SPLINE
5
193
100
AcDbEntity
8
0
100
AcDbSpline
70
0
71
3
72
9
73
5
74
0
42
0.000000001
43
0.0000000001
44
0.0000000001
40
0
40
0
40
0
40
0
40
0.065667295262725633
40
0.11352921120835946
40
0.11352921120835946
40
0.11352921120835946
40
0.11352921120835946
10
685.53546912968159
20
-425.59345126152039
30
0
10
685.53429026104357
20
-425.3733646951631
30
0
10
685.53225216847306
20
-424.9928670033346
30
0
10
685.43374947830921
20
-424.62601053720266
30
0
10
685.39222247898579
20
-424.47135031223297
30
0
0
SPLINE
5
194
100
AcDbEntity
8
0
100
AcDbSpline
70
0
71
3
72
9
73
5
74
0
42
0.000000001
43
0.0000000001
44
0.0000000001
40
0
40
0
40
0
40
0
40
0.038882855821194967
40
0.079254711639249409
40
0.079254711639249409
40
0.079254711639249409
40
0.079254711639249409
10
685.39222247898579
20
-424.47135031223297
30
0
10
685.33412949695446
20
-424.35301905498187
30
0
10
685.21571889048221
20
-424.11182510270442
30
0
10
684.99597447881627
20
-423.95684496585369
30
0
10
684.88403804600239
20
-423.87789905071259
30
0
0
SPLINE
5
195
100
AcDbEntity
8
0
100
AcDbSpline
70
0
71
3
72
9
73
5
74
0
42
0.000000001
43
0.0000000001
44
0.0000000001
40
0
40
0
40
0
40
0
40
0.042993937762676543
40
0.089285193967078041
40
0.089285193967078041
40
0.089285193967078041
40
0.089285193967078041
10
684.88403804600239
20
-423.87789905071259
30
0
10
684.75431196836337
20
-423.81326318936834
30
0
10
684.4849107781647
20
-423.67903437205928
30
0
10
684.18398634242999
20
-423.66400139624568
30
0
10
684.02796752750874
20
-423.65620732307434
30
0
0
SPLINE
5
196
100
AcDbEntity
8
0
100
AcDbSpline
70
0
71
3
72
9
73
5
74
0
42
0.000000001
43
0.0000000001
44
0.0000000001
40
0
40
0
40
0
40
0
40
0.074125966191914791
40
0.14678774837333955
40
0.14678774837333955
40
0.14678774837333955
40
0.14678774837333955
10
684.02796752750874
20
-423.65620732307434
30
0
10
683.77640513718359
20
-423.67611505592265
30
0
10
683.27824937951527
20
-423.71553729120865
30
0
10
682.87403295075717
20
-424.00892875104944
30
0
10
682.67394073307514
20
-424.15416121482849
30
0
0
SPLINE
5
197
100
AcDbEntity
8
0
100
AcDbSpline
70
0
71
3
72
9
73
5
74
0
42
0.000000001
43
0.0000000001
44
0.0000000001
40
0
40
0
40
0
40
0
40
0.083835159233543552
40
0.20151419803309645
40
0.20151419803309645
40
0.20151419803309645
40
0.20151419803309645
10
682.67394073307514
20
-424.15416121482849
30
0
10
682.50895980213659
20
-424.38692607573677
30
0
10
682.11239587486784
20
-424.94642193290508
30
0
10
682.10732485777157
20
-425.63913152648854
30
0
10
682.10436351597309
20
-426.04365587234497
30
0
0
SPLINE
5
198
100
AcDbEntity
8
0
100
AcDbSpline
70
0
71
3
72
9
73
5
74
0
42
0.000000001
43
0.0000000001
44
0.0000000001
40
0
40
0
40
0
40
0
40
0.13967936589170177
40
0.27043428433530359
40
0.27043428433530359
40
0.27043428433530359
40
0.27043428433530359
10
676.04706652462482
20
-430.16371130943298
30
0
10
675.56988395757867
20
-430.12870713962843
30
0
10
674.64600715449762
20
-430.06093529981939
30
0
10
673.93282032771356
20
-429.47268559743793
30
0
10
673.58799465000629
20
-429.18826699256897
30
0
0
SPLINE
5
199
100
AcDbEntity
8
0
100
AcDbSpline
70
0
71
3
72
9
73
5
74
0
42
0.000000001
43
0.0000000001
44
0.0000000001
40
0
40
0
40
0
40
0
40
0.13826349538740976
40
0.30195710037969503
40
0.30195710037969503
40
0.30195710037969503
40
0.30195710037969503
10
673.58799465000629
20
-429.18826699256897
30
0
10
673.31494425988001
20
-428.80508488516944
30
0
10
672.71862269409655
20
-427.96824391175471
30
0
10
672.67416745669129
20
-426.93696463459696
30
0
10
672.6500678807497
20
-426.37789905071259
30
0
0
SPLINE
5
200
100
AcDbEntity
8
0
100
AcDbSpline
70
0
71
3
72
9
73
5
74
0
42
0.000000001
43
0.0000000001
44
0.0000000001
40
0
40
0
40
0
40
0
40
0.17735542509543586
40
0.32620801002273447
40
0.32620801002273447
40
0.32620801002273447
40
0.32620801002273447
10
672.6500678807497
20
-426.37789905071259
30
0
10
672.67804952636425
20
-425.76815952939285
30
0
10
672.7295158794692
20
-424.64667189643831
30
0
10
673.44312880463974
20
-423.78856362723923
30
0
10
673.76875884830952
20
-423.39699864387512
30
0
0
SPLINE
5
201
100
AcDbEntity
8
0
100
AcDbSpline
70
0
71
3
72
9
73
5
74
0
42
0.000000001
43
0.0000000001
44
0.0000000001
40
0
40
0
40
0
40
0
40
0.11997750238539998
40
0.24574505314296555
40
0.24574505314296555
40
0.24574505314296555
40
0.24574505314296555
10
673.76875884830952
20
-423.39699864387512
30
0
10
674.10236968771403
20
-423.16226916630899
30
0
10
674.78569124240994
20
-422.68148229550519
30
0
10
675.6200552249685
20
-422.62235009903208
30
0
10
676.04706652462482
20
-422.59208738803864
30
0
0
SPLINE
5
202
100
AcDbEntity
8
0
100
AcDbSpline
70
0
71
3
72
9
73
5
74
0
42
0.000000001
43
0.0000000001
44
0.0000000001
40
0
40
0
40
0
40
0
40
0.13793166450791966
40
0.26890053081988352
40
0.26890053081988352
40
0.26890053081988352
40
0.26890053081988352
10
676.04706652462482
20
-422.59208738803864
30
0
10
676.51794172656059
20
-422.62848018442469
30
0
10
677.43592232370747
20
-422.6994286667848
30
0
10
678.14414391297055
20
-423.28549540521641
30
0
10
678.48908551037312
20
-423.5709410905838
30
0
0
SPLINE
5
203
100
AcDbEntity
8
0
100
AcDbSpline
70
0
71
3
72
9
73
5
74
0
42
0.000000001
43
0.0000000001
44
0.0000000001
40
0
40
0
40
0
40
0
40
0.13653873272863745
40
0.2922586039215041
40
0.2922586039215041
40
0.2922586039215041
40
0.2922586039215041
10
678.48908551037312
20
-423.5709410905838
30
0
10
678.76531193204926
20
-423.94515190500039
30
0
10
679.35656942178855
20
-424.74614315494165
30
0
10
679.4092010652605
20
-425.7439389895768
30
0
10
679.43724401295185
20
-426.27557992935181
30
0
0
SPLINE
5
204
100
AcDbEntity
8
0
100
AcDbSpline
70
0
71
3
72
9
73
5
74
0
42
0.000000001
43
0.0000000001
44
0.0000000001
40
0
40
0
40
0
40
0
40
0.12535426776061565
40
0.2254968160823338
40
0.2254968160823338
40
0.2254968160823338
40
0.2254968160823338
10
679.43724401295185
20
-426.27557992935181
30
0
10
679.42905739247658
20
-426.6974364133776
30
0
10
679.41433067527259
20
-427.45630402666995
30
0
10
679.13969817825773
20
-428.16203142601984
30
0
10
679.0177346020937
20
-428.47544312477112
30
0
0
SPLINE
5
205
100
AcDbEntity
8
0
100
AcDbSpline
70
0
71
3
72
9
73
5
74
0
42
0.000000001
43
0.0000000001
44
0.0000000001
40
0
40
0
40
0
40
0
40
0.087871237122381554
40
0.17632657239012986
40
0.17632657239012986
40
0.17632657239012986
40
0.17632657239012986
10
679.0177346020937
20
-428.47544312477112
30
0
10
678.86154197078542
20
-428.72793134032054
30
0
10
678.54811846369603
20
-429.2345861124017
30
0
10
678.04774286898169
20
-429.55805676471346
30
0
10
677.79672630131245
20
-429.72032785415649
30
0
0
SPLINE
5
206
100
AcDbEntity
8
0
100
AcDbSpline
70
0
71
3
72
9
73
5
74
0
42
0.000000001
43
0.0000000001
44
0.0000000001
40
0
40
0
40
0
40
0
40
0.09017219582039579
40
0.18199316026257384
40
0.18199316026257384
40
0.18199316026257384
40
0.18199316026257384
10
677.79672630131245
20
-429.72032785415649
30
0
10
677.52204171148935
20
-429.84964517141168
30
0
10
676.9676500154402
20
-430.11064433007493
30
0
10
676.35577544921875
20
-430.14591580224374
30
0
10
676.04706652462482
20
-430.16371130943298
30
0
0
SPLINE
5
207
100
AcDbEntity
8
0
100
AcDbSpline
70
0
71
3
72
9
73
5
74
0
42
0.000000001
43
0.0000000001
44
0.0000000001
40
0
40
0
40
0
40
0
40
0.085985517568563902
40
0.17183166110531373
40
0.17183166110531373
40
0.17183166110531373
40
0.17183166110531373
10
676.04706652462482
20
-423.60845804214478
30
0
10
675.7532652623712
20
-423.63707088683691
30
0
10
675.16613896069327
20
-423.69425019762571
30
0
10
674.73466237661205
20
-424.0964640558484
30
0
10
674.51909907162189
20
-424.29740786552429
30
0
0
SPLINE
5
208
100
AcDbEntity
8
0
100
AcDbSpline
70
0
71
3
72
9
73
5
74
0
42
0.000000001
43
0.0000000001
44
0.0000000001
40
0
40
0
40
0
40
0
40
0.097716124705161722
40
0.22024914119695016
40
0.22024914119695016
40
0.22024914119695016
40
0.22024914119695016
10
674.51909907162189
20
-424.29740786552429
30
0
10
674.34260751236366
20
-424.57783985693243
30
0
10
673.94480096331733
20
-425.20992494481476
30
0
10
673.92372876720719
20
-425.96038784959012
30
0
10
673.91200549900532
20
-426.37789905071259
30
0
0
SPLINE
5
209
100
AcDbEntity
8
0
100
AcDbSpline
70
0
71
3
72
9
73
5
74
0
42
0.000000001
43
0.0000000001
44
0.0000000001
40
0
40
0
40
0
40
0
40
0.12261753607266412
40
0.22056013962877202
40
0.22056013962877202
40
0.22056013962877202
40
0.22056013962877202
10
673.91200549900532
20
-426.37789905071259
30
0
10
673.92384272434185
20
-426.79563061689834
30
0
10
673.94513511168452
20
-427.54703156260547
30
0
10
674.34259972966493
20
-428.18050062389665
30
0
10
674.51909907162189
20
-428.46180081367493
30
0
0
SPLINE
5
210
100
AcDbEntity
8
0
100
AcDbSpline
70
0
71
3
72
9
73
5
74
0
42
0.000000001
43
0.0000000001
44
0.0000000001
40
0
40
0
40
0
40
0
40
0.086000367536698041
40
0.17200299895560411
40
0.17200299895560411
40
0.17200299895560411
40
0.17200299895560411
10
674.51909907162189
20
-428.46180081367493
30
0
10
674.73454009336115
20
-428.66373956202204
30
0
10
675.16542780813052
20
-429.06762237457178
30
0
10
675.75318437380031
20
-429.1253146816299
30
0
10
676.04706652462482
20
-429.15416121482849
30
0
0
SPLINE
5
211
100
AcDbEntity
8
0
100
AcDbSpline
70
0
71
3
72
9
73
5
74
0
42
0.000000001
43
0.0000000001
44
0.0000000001
40
0
40
0
40
0
40
0
40
0.085518836516794677
40
0.17153825819150698
40
0.17153825819150698
40
0.17153825819150698
40
0.17153825819150698
10
676.04706652462482
20
-429.15416121482849
30
0
10
676.33925354253495
20
-429.12483368432333
30
0
10
676.92533789727963
20
-429.06600695439096
30
0
10
677.35350468653041
20
-428.66132279357709
30
0
10
677.56821282207966
20
-428.45839023590088
30
0
0
SPLINE
5
212
100
AcDbEntity
8
0
100
AcDbSpline
70
0
71
3
72
9
73
5
74
0
42
0.000000001
43
0.0000000001
44
0.0000000001
40
0
40
0
40
0
40
0
40
0.098925298271820464
40
0.22416622180028917
40
0.22416622180028917
40
0.22416622180028917
40
0.22416622180028917
10
677.56821282207966
20
-428.45839023590088
30
0
10
677.74465768420055
20
-428.17327243863593
30
0
10
678.14448440990873
20
-427.52719119857443
30
0
10
678.16425861307141
20
-426.76359190841526
30
0
10
678.17530639469624
20
-426.33697152137756
30
0
0
SPLINE
5
213
100
AcDbEntity
8
0
100
AcDbSpline
70
0
71
3
72
9
73
5
74
0
42
0.000000001
43
0.0000000001
44
0.0000000001
40
0
40
0
40
0
40
0
40
0.11907568851683492
40
0.21608344532109036
40
0.21608344532109036
40
0.21608344532109036
40
0.21608344532109036
10
678.17530639469624
20
-426.33697152137756
30
0
10
678.16203314374604
20
-425.93127972241433
30
0
10
678.13794653268678
20
-425.19508173985059
30
0
10
677.74238449945551
20
-424.57789577987637
30
0
10
677.56480224430561
20
-424.30081844329834
30
0
0
SPLINE
5
214
100
AcDbEntity
8
0
100
AcDbSpline
70
0
71
3
72
9
73
5
74
0
42
0.000000001
43
0.0000000001
44
0.0000000001
40
0
40
0
40
0
40
0
40
0.085932403392225992
40
0.17101651002483775
40
0.17101651002483775
40
0.17101651002483775
40
0.17101651002483775
10
677.56480224430561
20
-424.30081844329834
30
0
10
677.34969366287362
20
-424.09888141965354
30
0
10
676.92159998201851
20
-423.69700082903489
30
0
10
676.33761208798114
20
-423.63787454265787
30
0
10
676.04706652462482
20
-423.60845804214478
30
0
0
LWPOLYLINE
5
215
100
AcDbEntity
8
0
100
AcDbPolyline
90
57
70
1
43
0.0
10
105.99999999999997
20
-399.5
42
-0.41421356237309503
10
105.49999999999997
20
-400
10
25
20
-400
10
25
20
-424.79289321881345
42
0.19891236737962048
10
25.146446609406677
20
-425.14644660940667
10
49.85355339059339
20
-449.85355339059322
42
0.19891236737965529
10
50.20710678118661
20
-450
10
825
20
-450
10
825.00000000000011
20
-437.79069219820883
42
0.42924350898886265
10
818.16837471681288
20
-431.29915735107511
10
776.84270966747226
20
-433.41031221623643
42
-0.42924350898887265
10
770.01108438428491
20
-426.91877736910277
10
770.01108438428503
20
-421.84100741158863
42
-0.42924350898887931
10
776.84270966747238
20
-415.34947256445503
10
818.16837471681254
20
-417.46062742961681
42
0.42924350898888269
10
825
20
-410.96909258248337
10
825
20
-400
10
749.04999999999995
20
-400
10
749.04999999999995
20
-424.39999999999998
42
-0.41421356237309503
10
748.54999999999995
20
-424.89999999999998
10
743.45000000000005
20
-424.90000000000003
42
-0.41421356237309503
10
742.95000000000005
20
-424.39999999999998
10
742.95000000000005
20
-400
10
648.5
20
-400
42
-0.41421356237309503
10
648
20
-399.5
10
647.99999999999977
20
-388.5
42
0.41421356237309503
10
647.5
20
-388.00000000000006
10
598.5
20
-388
42
0.41421356237309503
10
598
20
-388.5
10
597.99999999999989
20
-399.5
42
-0.41421356237309503
10
597.5
20
-400
10
503.05000000000001
20
-400
10
503.05000000000007
20
-424.39999999999998
42
-0.41421356237309503
10
502.54999999999995
20
-424.89999999999998
10
497.45000000000005
20
-424.90000000000003
42
-0.41421356237309503
10
496.95000000000005
20
-424.39999999999998
10
496.94999999999999
20
-400
10
402.49999999999994
20
-400
42
-0.41421356237309503
10
401.99999999999994
20
-399.5
10
401.99999999999989
20
-388.5
42
0.4142135623730534
10
401.50000000000006
20
-388.00000000000006
10
352.5
20
-388
42
0.41421356237313667
10
351.99999999999994
20
-388.5
10
351.99999999999989
20
-399.5
42
-0.41421356237309503
10
351.5
20
-400
10
257.04999999999995
20
-400
10
257.04999999999995
20
-424.39999999999998
42
-0.41421356237309503
10
256.54999999999995
20
-424.89999999999998
10
251.45000000000005
20
-424.90000000000003
42
-0.41421356237309503
10
250.95000000000002
20
-424.39999999999998
10
250.94999999999999
20
-400
10
156.50000000000006
20
-400
42
-0.41421356237313667
10
155.99999999999997
20
-399.5
10
155.99999999999994
20
-388.5
42
0.41421356237310542
10
155.49999999999997
20
-388.00000000000006
10
106.50000000000006
20
-388
42
0.41421356237312623
10
106
20
-388.5
0
ENDSEC
0
SECTION
2
OBJECTS
0
DICTIONARY
5
C
100
AcDbDictionary
3
ACAD_GROUP
350
D
3
ACAD_MLINESTYLE
350
17
0
DICTIONARY
5
D
100
AcDbDictionary
0
DICTIONARY
5
1A
330
C
100
AcDbDictionary
0
DICTIONARY
5
17
100
AcDbDictionary
0
ENDSEC
0
EOF
